<svg width="627" height="1077" viewBox="0 0 627 1077" fill="none" xmlns="http://www.w3.org/2000/svg">
<path d="M40 42C40 40.8955 40.8954 40 42 40H584.93C586.035 40 586.93 40.8954 586.93 42V1034.4C586.93 1035.5 586.035 1036.4 584.93 1036.4H42C40.8954 1036.4 40 1035.5 40 1034.4V42Z" fill="#444444"/>
<path d="M42 40V41H584.93V40V39H42V40ZM586.93 42H585.93V1034.4H586.93H587.93V42H586.93ZM584.93 1036.4V1035.4H42V1036.4V1037.4H584.93V1036.4ZM40 1034.4H41V42H40H39V1034.4H40ZM42 1036.4V1035.4C41.4477 1035.4 41 1034.95 41 1034.4H40H39C39 1036.06 40.3432 1037.4 42 1037.4V1036.4ZM586.93 1034.4H585.93C585.93 1034.95 585.482 1035.4 584.93 1035.4V1036.4V1037.4C586.587 1037.4 587.93 1036.06 587.93 1034.4H586.93ZM584.93 40V41C585.482 41 585.93 41.4477 585.93 42H586.93H587.93C587.93 40.3431 586.587 39 584.93 39V40ZM42 40V39C40.3431 39 39 40.3432 39 42H40H41C41 41.4477 41.4477 41 42 41V40Z" fill="white" fill-opacity="0.1"/>
<rect x="40" y="4" width="648.133" height="30" rx="3" fill="#444444"/>
<rect x="40.5" y="4.5" width="647.133" height="29" rx="2.5" stroke="white" stroke-opacity="0.0980392"/>
<path d="M47.7656 18.3906V22H46.8438V14H47.7656V16.9375H47.8438C47.9844 16.6276 48.1953 16.3815 48.4766 16.1992C48.7604 16.0143 49.138 15.9219 49.6094 15.9219C50.0182 15.9219 50.3763 16.0039 50.6836 16.168C50.9909 16.3294 51.2292 16.5781 51.3984 16.9141C51.5703 17.2474 51.6563 17.6719 51.6563 18.1875V22H50.7344V18.25C50.7344 17.7734 50.6107 17.4049 50.3633 17.1445C50.1185 16.8815 49.7786 16.75 49.3438 16.75C49.0417 16.75 48.7708 16.8138 48.5313 16.9414C48.2943 17.069 48.1068 17.2552 47.9688 17.5C47.8333 17.7448 47.7656 18.0417 47.7656 18.3906ZM55.9521 16V16.7812H52.8428V16H55.9521ZM53.749 14.5625H54.6709V20.2812C54.6709 20.5417 54.7087 20.737 54.7842 20.8672C54.8623 20.9948 54.9613 21.0807 55.0811 21.125C55.2035 21.1667 55.3324 21.1875 55.4678 21.1875C55.5693 21.1875 55.6527 21.1823 55.7178 21.1719C55.7829 21.1589 55.835 21.1484 55.874 21.1406L56.0615 21.9687C55.999 21.9922 55.9118 22.0156 55.7998 22.0391C55.6878 22.0651 55.5459 22.0781 55.374 22.0781C55.1136 22.0781 54.8584 22.0221 54.6084 21.9102C54.361 21.7982 54.1553 21.6276 53.9912 21.3984C53.8298 21.1693 53.749 20.8802 53.749 20.5312V14.5625ZM59.9482 16V16.7812H56.8389V16H59.9482ZM57.7451 14.5625H58.667V20.2812C58.667 20.5417 58.7048 20.737 58.7803 20.8672C58.8584 20.9948 58.9574 21.0807 59.0771 21.125C59.1995 21.1667 59.3285 21.1875 59.4639 21.1875C59.5654 21.1875 59.6488 21.1823 59.7139 21.1719C59.779 21.1589 59.8311 21.1484 59.8701 21.1406L60.0576 21.9687C59.9951 21.9922 59.9079 22.0156 59.7959 22.0391C59.6839 22.0651 59.542 22.0781 59.3701 22.0781C59.1097 22.0781 58.8545 22.0221 58.6045 21.9102C58.3571 21.7982 58.1514 21.6276 57.9873 21.3984C57.8258 21.1693 57.7451 20.8802 57.7451 20.5312V14.5625ZM61.335 24.25V16H62.2256V16.9531H62.335C62.4027 16.849 62.4964 16.7161 62.6162 16.5547C62.7386 16.3906 62.9131 16.2448 63.1396 16.1172C63.3688 15.987 63.6787 15.9219 64.0693 15.9219C64.5745 15.9219 65.0199 16.0482 65.4053 16.3008C65.7907 16.5534 66.0915 16.9115 66.3076 17.375C66.5238 17.8385 66.6318 18.3854 66.6318 19.0156C66.6318 19.651 66.5238 20.2018 66.3076 20.668C66.0915 21.1315 65.792 21.4909 65.4092 21.7461C65.0264 21.9987 64.585 22.125 64.085 22.125C63.6995 22.125 63.391 22.0612 63.1592 21.9336C62.9274 21.8034 62.749 21.6562 62.624 21.4922C62.499 21.3255 62.4027 21.1875 62.335 21.0781H62.2568V24.25H61.335ZM62.2412 19C62.2412 19.4531 62.3076 19.8529 62.4404 20.1992C62.5732 20.543 62.7673 20.8125 63.0225 21.0078C63.2777 21.2005 63.5902 21.2969 63.96 21.2969C64.3454 21.2969 64.667 21.1953 64.9248 20.9922C65.1852 20.7865 65.3805 20.5104 65.5107 20.1641C65.6436 19.8151 65.71 19.4271 65.71 19C65.71 18.5781 65.6449 18.1979 65.5146 17.8594C65.387 17.5182 65.193 17.2487 64.9326 17.0508C64.6748 16.8503 64.3506 16.75 63.96 16.75C63.585 16.75 63.2699 16.8451 63.0146 17.0352C62.7594 17.2227 62.5667 17.4857 62.4365 17.8242C62.3063 18.1602 62.2412 18.5521 62.2412 19ZM72.2881 17.3437L71.46 17.5781C71.4079 17.4401 71.3311 17.306 71.2295 17.1758C71.1305 17.043 70.9951 16.9336 70.8232 16.8477C70.6514 16.7617 70.4313 16.7187 70.1631 16.7187C69.7959 16.7187 69.4899 16.8034 69.2451 16.9727C69.0029 17.1393 68.8818 17.3516 68.8818 17.6094C68.8818 17.8385 68.9652 18.0195 69.1318 18.1523C69.2985 18.2852 69.5589 18.3958 69.9131 18.4844L70.8037 18.7031C71.3402 18.8333 71.7399 19.0326 72.0029 19.3008C72.266 19.5664 72.3975 19.9089 72.3975 20.3281C72.3975 20.6719 72.2985 20.9792 72.1006 21.25C71.9053 21.5208 71.6318 21.7344 71.2803 21.8906C70.9287 22.0469 70.5199 22.125 70.0537 22.125C69.4417 22.125 68.9352 21.9922 68.5342 21.7266C68.1331 21.4609 67.8792 21.0729 67.7725 20.5625L68.6475 20.3437C68.7308 20.6667 68.8883 20.9089 69.1201 21.0703C69.3545 21.2318 69.6605 21.3125 70.0381 21.3125C70.4678 21.3125 70.8089 21.2214 71.0615 21.0391C71.3167 20.8542 71.4443 20.6328 71.4443 20.375C71.4443 20.1667 71.3714 19.9922 71.2256 19.8516C71.0798 19.7083 70.8558 19.6016 70.5537 19.5312L69.5537 19.2969C69.0042 19.1667 68.6006 18.9648 68.3428 18.6914C68.0876 18.4154 67.96 18.0703 67.96 17.6562C67.96 17.3177 68.055 17.0182 68.2451 16.7578C68.4378 16.4974 68.6995 16.293 69.0303 16.1445C69.3636 15.9961 69.7412 15.9219 70.1631 15.9219C70.7568 15.9219 71.223 16.0521 71.5615 16.3125C71.9027 16.5729 72.1449 16.9167 72.2881 17.3437ZM74.457 22.0625C74.2643 22.0625 74.099 21.9935 73.9609 21.8555C73.8229 21.7174 73.7539 21.5521 73.7539 21.3594C73.7539 21.1667 73.8229 21.0013 73.9609 20.8633C74.099 20.7253 74.2643 20.6562 74.457 20.6562C74.6497 20.6562 74.8151 20.7253 74.9531 20.8633C75.0911 21.0013 75.1602 21.1667 75.1602 21.3594C75.1602 21.487 75.1276 21.6042 75.0625 21.7109C75 21.8177 74.9154 21.9036 74.8086 21.9687C74.7044 22.0313 74.5872 22.0625 74.457 22.0625ZM74.457 17.6094C74.2643 17.6094 74.099 17.5404 73.9609 17.4023C73.8229 17.2643 73.7539 17.099 73.7539 16.9062C73.7539 16.7135 73.8229 16.5482 73.9609 16.4102C74.099 16.2721 74.2643 16.2031 74.457 16.2031C74.6497 16.2031 74.8151 16.2721 74.9531 16.4102C75.0911 16.5482 75.1602 16.7135 75.1602 16.9062C75.1602 17.0339 75.1276 17.151 75.0625 17.2578C75 17.3646 74.9154 17.4505 74.8086 17.5156C74.7044 17.5781 74.5872 17.6094 74.457 17.6094ZM79.6426 13.625L77.0645 23.2031H76.2207L78.7988 13.625H79.6426ZM83.5635 13.625L80.9854 23.2031H80.1416L82.7197 13.625H83.5635ZM84.6563 24.25V16H85.5469V16.9531H85.6563C85.724 16.849 85.8177 16.7161 85.9375 16.5547C86.0599 16.3906 86.2344 16.2448 86.4609 16.1172C86.6901 15.987 87 15.9219 87.3906 15.9219C87.8958 15.9219 88.3411 16.0482 88.7266 16.3008C89.112 16.5534 89.4128 16.9115 89.6289 17.375C89.8451 17.8385 89.9531 18.3854 89.9531 19.0156C89.9531 19.651 89.8451 20.2018 89.6289 20.668C89.4128 21.1315 89.1133 21.4909 88.7305 21.7461C88.3477 21.9987 87.9063 22.125 87.4063 22.125C87.0208 22.125 86.7122 22.0612 86.4805 21.9336C86.2487 21.8034 86.0703 21.6562 85.9453 21.4922C85.8203 21.3255 85.724 21.1875 85.6563 21.0781H85.5781V24.25H84.6563ZM85.5625 19C85.5625 19.4531 85.6289 19.8529 85.7617 20.1992C85.8945 20.543 86.0885 20.8125 86.3438 21.0078C86.599 21.2005 86.9115 21.2969 87.2812 21.2969C87.6667 21.2969 87.9883 21.1953 88.2461 20.9922C88.5065 20.7865 88.7018 20.5104 88.832 20.1641C88.9648 19.8151 89.0313 19.4271 89.0313 19C89.0313 18.5781 88.9661 18.1979 88.8359 17.8594C88.7083 17.5182 88.5143 17.2487 88.2539 17.0508C87.9961 16.8503 87.6719 16.75 87.2812 16.75C86.9063 16.75 86.5911 16.8451 86.3359 17.0352C86.0807 17.2227 85.888 17.4857 85.7578 17.8242C85.6276 18.1602 85.5625 18.5521 85.5625 19ZM91.3594 22V16H92.25V16.9062H92.3125C92.4219 16.6094 92.6198 16.3685 92.9063 16.1836C93.1927 15.9987 93.5156 15.9062 93.875 15.9062C93.9427 15.9062 94.0273 15.9076 94.1289 15.9102C94.2305 15.9128 94.3073 15.9167 94.3594 15.9219V16.8594C94.3281 16.8516 94.2565 16.8398 94.1445 16.8242C94.0352 16.806 93.9193 16.7969 93.7969 16.7969C93.5052 16.7969 93.2448 16.8581 93.0156 16.9805C92.7891 17.1003 92.6094 17.2669 92.4766 17.4805C92.3464 17.6914 92.2813 17.9323 92.2813 18.2031V22H91.3594ZM97.7852 22.125C97.207 22.125 96.7083 21.9974 96.2891 21.7422C95.8724 21.4844 95.5508 21.125 95.3242 20.6641C95.1003 20.2005 94.9883 19.6615 94.9883 19.0469C94.9883 18.4323 95.1003 17.8906 95.3242 17.4219C95.5508 16.9505 95.8659 16.5833 96.2695 16.3203C96.6758 16.0547 97.1497 15.9219 97.6914 15.9219C98.0039 15.9219 98.3125 15.974 98.6172 16.0781C98.9219 16.1823 99.1992 16.3516 99.4492 16.5859C99.6992 16.8177 99.8984 17.125 100.047 17.5078C100.195 17.8906 100.27 18.362 100.27 18.9219V19.3125H95.6445V18.5156H99.332C99.332 18.1771 99.2643 17.875 99.1289 17.6094C98.9961 17.3437 98.806 17.1341 98.5586 16.9805C98.3138 16.8268 98.0247 16.75 97.6914 16.75C97.3242 16.75 97.0065 16.8411 96.7383 17.0234C96.4727 17.2031 96.2682 17.4375 96.125 17.7266C95.9818 18.0156 95.9102 18.3255 95.9102 18.6562V19.1875C95.9102 19.6406 95.9883 20.0247 96.1445 20.3398C96.3034 20.6523 96.5234 20.8906 96.8047 21.0547C97.0859 21.2161 97.4128 21.2969 97.7852 21.2969C98.0273 21.2969 98.2461 21.263 98.4414 21.1953C98.6393 21.125 98.8099 21.0208 98.9531 20.8828C99.0964 20.7422 99.207 20.5677 99.2852 20.3594L100.176 20.6094C100.082 20.9115 99.9245 21.1771 99.7031 21.4062C99.4818 21.6328 99.2083 21.8099 98.8828 21.9375C98.5573 22.0625 98.1914 22.125 97.7852 22.125ZM106.396 16L104.177 22H103.239L101.021 16H102.021L103.677 20.7812H103.739L105.396 16H106.396ZM107.612 22V16H108.534V22H107.612ZM108.081 15C107.901 15 107.746 14.9388 107.616 14.8164C107.489 14.694 107.425 14.5469 107.425 14.375C107.425 14.2031 107.489 14.056 107.616 13.9336C107.746 13.8112 107.901 13.75 108.081 13.75C108.261 13.75 108.414 13.8112 108.542 13.9336C108.672 14.056 108.737 14.2031 108.737 14.375C108.737 14.5469 108.672 14.694 108.542 14.8164C108.414 14.9388 108.261 15 108.081 15ZM112.738 22.125C112.16 22.125 111.661 21.9974 111.242 21.7422C110.826 21.4844 110.504 21.125 110.277 20.6641C110.053 20.2005 109.941 19.6615 109.941 19.0469C109.941 18.4323 110.053 17.8906 110.277 17.4219C110.504 16.9505 110.819 16.5833 111.223 16.3203C111.629 16.0547 112.103 15.9219 112.645 15.9219C112.957 15.9219 113.266 15.974 113.57 16.0781C113.875 16.1823 114.152 16.3516 114.402 16.5859C114.652 16.8177 114.852 17.125 115 17.5078C115.148 17.8906 115.223 18.362 115.223 18.9219V19.3125H110.598V18.5156H114.285C114.285 18.1771 114.217 17.875 114.082 17.6094C113.949 17.3437 113.759 17.1341 113.512 16.9805C113.267 16.8268 112.978 16.75 112.645 16.75C112.277 16.75 111.96 16.8411 111.691 17.0234C111.426 17.2031 111.221 17.4375 111.078 17.7266C110.935 18.0156 110.863 18.3255 110.863 18.6562V19.1875C110.863 19.6406 110.941 20.0247 111.098 20.3398C111.257 20.6523 111.477 20.8906 111.758 21.0547C112.039 21.2161 112.366 21.2969 112.738 21.2969C112.98 21.2969 113.199 21.263 113.395 21.1953C113.592 21.125 113.763 21.0208 113.906 20.8828C114.049 20.7422 114.16 20.5677 114.238 20.3594L115.129 20.6094C115.035 20.9115 114.878 21.1771 114.656 21.4062C114.435 21.6328 114.161 21.8099 113.836 21.9375C113.51 22.0625 113.145 22.125 112.738 22.125ZM117.984 22L116.156 16H117.125L118.422 20.5938H118.484L119.766 16H120.75L122.016 20.5781H122.078L123.375 16H124.344L122.516 22H121.609L120.297 17.3906H120.203L118.891 22H117.984ZM129 18.1406V19H125.5V18.1406H129ZM134.06 18.1406V19H130.56V18.1406H134.06ZM138.119 22.125C137.557 22.125 137.072 21.9922 136.666 21.7266C136.26 21.4609 135.947 21.0951 135.729 20.6289C135.51 20.1628 135.4 19.6302 135.4 19.0312C135.4 18.4219 135.512 17.8841 135.736 17.418C135.963 16.9492 136.278 16.5833 136.682 16.3203C137.088 16.0547 137.562 15.9219 138.104 15.9219C138.525 15.9219 138.906 16 139.244 16.1562C139.583 16.3125 139.86 16.5312 140.076 16.8125C140.292 17.0937 140.426 17.4219 140.479 17.7969H139.557C139.486 17.5234 139.33 17.2812 139.088 17.0703C138.848 16.8568 138.525 16.75 138.119 16.75C137.76 16.75 137.445 16.8437 137.174 17.0312C136.906 17.2161 136.696 17.4779 136.545 17.8164C136.396 18.1523 136.322 18.5469 136.322 19C136.322 19.4635 136.395 19.8672 136.541 20.2109C136.689 20.5547 136.898 20.8216 137.166 21.0117C137.437 21.2018 137.755 21.2969 138.119 21.2969C138.359 21.2969 138.576 21.2552 138.771 21.1719C138.967 21.0885 139.132 20.9688 139.268 20.8125C139.403 20.6562 139.499 20.4687 139.557 20.25H140.479C140.426 20.6042 140.298 20.9232 140.092 21.207C139.889 21.4883 139.619 21.7122 139.283 21.8789C138.95 22.043 138.562 22.125 138.119 22.125ZM144.264 22.125C143.722 22.125 143.247 21.9961 142.838 21.7383C142.432 21.4805 142.114 21.1198 141.885 20.6562C141.658 20.1927 141.545 19.651 141.545 19.0312C141.545 18.4062 141.658 17.8607 141.885 17.3945C142.114 16.9284 142.432 16.5664 142.838 16.3086C143.247 16.0508 143.722 15.9219 144.264 15.9219C144.805 15.9219 145.279 16.0508 145.686 16.3086C146.094 16.5664 146.412 16.9284 146.639 17.3945C146.868 17.8607 146.982 18.4062 146.982 19.0312C146.982 19.651 146.868 20.1927 146.639 20.6562C146.412 21.1198 146.094 21.4805 145.686 21.7383C145.279 21.9961 144.805 22.125 144.264 22.125ZM144.264 21.2969C144.675 21.2969 145.014 21.1914 145.279 20.9805C145.545 20.7695 145.742 20.4922 145.869 20.1484C145.997 19.8047 146.061 19.4323 146.061 19.0312C146.061 18.6302 145.997 18.2565 145.869 17.9102C145.742 17.5638 145.545 17.2839 145.279 17.0703C145.014 16.8568 144.675 16.75 144.264 16.75C143.852 16.75 143.514 16.8568 143.248 17.0703C142.982 17.2839 142.786 17.5638 142.658 17.9102C142.531 18.2565 142.467 18.6302 142.467 19.0312C142.467 19.4323 142.531 19.8047 142.658 20.1484C142.786 20.4922 142.982 20.7695 143.248 20.9805C143.514 21.1914 143.852 21.2969 144.264 21.2969ZM150.155 22.1406C149.775 22.1406 149.43 22.069 149.12 21.9258C148.81 21.7799 148.564 21.5703 148.382 21.2969C148.2 21.0208 148.108 20.6875 148.108 20.2969C148.108 19.9531 148.176 19.6745 148.312 19.4609C148.447 19.2448 148.628 19.0755 148.854 18.9531C149.081 18.8307 149.331 18.7396 149.604 18.6797C149.881 18.6172 150.158 18.5677 150.437 18.5313C150.801 18.4844 151.097 18.4492 151.323 18.4258C151.552 18.3997 151.719 18.3568 151.823 18.2969C151.93 18.237 151.983 18.1328 151.983 17.9844V17.9531C151.983 17.5677 151.878 17.2682 151.667 17.0547C151.459 16.8411 151.142 16.7344 150.718 16.7344C150.278 16.7344 149.933 16.8307 149.683 17.0234C149.433 17.2161 149.257 17.4219 149.155 17.6406L148.28 17.3281C148.437 16.9635 148.645 16.6797 148.905 16.4766C149.168 16.2708 149.455 16.1276 149.765 16.0469C150.077 15.9635 150.384 15.9219 150.687 15.9219C150.879 15.9219 151.101 15.9453 151.351 15.9922C151.603 16.0365 151.847 16.1289 152.081 16.2695C152.318 16.4102 152.515 16.6224 152.671 16.9062C152.827 17.1901 152.905 17.5703 152.905 18.0469V22H151.983V21.1875H151.937C151.874 21.3177 151.77 21.457 151.624 21.6055C151.478 21.7539 151.284 21.8802 151.042 21.9844C150.8 22.0885 150.504 22.1406 150.155 22.1406ZM150.296 21.3125C150.66 21.3125 150.968 21.2409 151.218 21.0977C151.47 20.9544 151.66 20.7695 151.788 20.543C151.918 20.3164 151.983 20.0781 151.983 19.8281V18.9844C151.944 19.0312 151.858 19.0742 151.726 19.1133C151.595 19.1497 151.444 19.1823 151.272 19.2109C151.103 19.237 150.938 19.2604 150.776 19.2812C150.618 19.2995 150.489 19.3151 150.39 19.3281C150.15 19.3594 149.926 19.4102 149.718 19.4805C149.512 19.5482 149.345 19.651 149.218 19.7891C149.093 19.9245 149.03 20.1094 149.03 20.3437C149.03 20.6641 149.149 20.9062 149.386 21.0703C149.625 21.2318 149.929 21.3125 150.296 21.3125ZM157.025 22.125C156.463 22.125 155.979 21.9922 155.572 21.7266C155.166 21.4609 154.854 21.0951 154.635 20.6289C154.416 20.1628 154.307 19.6302 154.307 19.0312C154.307 18.4219 154.419 17.8841 154.643 17.418C154.869 16.9492 155.184 16.5833 155.588 16.3203C155.994 16.0547 156.468 15.9219 157.01 15.9219C157.432 15.9219 157.812 16 158.15 16.1562C158.489 16.3125 158.766 16.5312 158.982 16.8125C159.199 17.0937 159.333 17.4219 159.385 17.7969H158.463C158.393 17.5234 158.236 17.2812 157.994 17.0703C157.755 16.8568 157.432 16.75 157.025 16.75C156.666 16.75 156.351 16.8437 156.08 17.0312C155.812 17.2161 155.602 17.4779 155.451 17.8164C155.303 18.1523 155.229 18.5469 155.229 19C155.229 19.4635 155.301 19.8672 155.447 20.2109C155.596 20.5547 155.804 20.8216 156.072 21.0117C156.343 21.2018 156.661 21.2969 157.025 21.2969C157.265 21.2969 157.482 21.2552 157.678 21.1719C157.873 21.0885 158.038 20.9688 158.174 20.8125C158.309 20.6562 158.406 20.4687 158.463 20.25H159.385C159.333 20.6042 159.204 20.9232 158.998 21.207C158.795 21.4883 158.525 21.7122 158.189 21.8789C157.856 22.043 157.468 22.125 157.025 22.125ZM161.654 18.3906V22H160.732V14H161.654V16.9375H161.732C161.873 16.6276 162.084 16.3815 162.365 16.1992C162.649 16.0143 163.027 15.9219 163.498 15.9219C163.907 15.9219 164.265 16.0039 164.572 16.168C164.88 16.3294 165.118 16.5781 165.287 16.9141C165.459 17.2474 165.545 17.6719 165.545 18.1875V22H164.623V18.25C164.623 17.7734 164.499 17.4049 164.252 17.1445C164.007 16.8815 163.667 16.75 163.232 16.75C162.93 16.75 162.66 16.8138 162.42 16.9414C162.183 17.069 161.995 17.2552 161.857 17.5C161.722 17.7448 161.654 18.0417 161.654 18.3906ZM169.653 24.375C169.208 24.375 168.825 24.3177 168.505 24.2031C168.185 24.0911 167.918 23.9427 167.704 23.7578C167.493 23.5755 167.325 23.3802 167.2 23.1719L167.935 22.6563C168.018 22.7656 168.123 22.8906 168.251 23.0312C168.379 23.1745 168.553 23.2982 168.774 23.4023C168.998 23.5091 169.291 23.5625 169.653 23.5625C170.138 23.5625 170.537 23.4453 170.853 23.2109C171.168 22.9766 171.325 22.6094 171.325 22.1094V20.8906H171.247C171.179 21 171.083 21.1354 170.958 21.2969C170.836 21.4557 170.659 21.5977 170.427 21.7227C170.198 21.8451 169.888 21.9062 169.497 21.9062C169.013 21.9062 168.578 21.7917 168.192 21.5625C167.81 21.3333 167.506 21 167.282 20.5625C167.061 20.125 166.95 19.5937 166.95 18.9687C166.95 18.3542 167.058 17.819 167.274 17.3633C167.491 16.9049 167.791 16.5508 168.177 16.3008C168.562 16.0482 169.007 15.9219 169.513 15.9219C169.903 15.9219 170.213 15.987 170.442 16.1172C170.674 16.2448 170.851 16.3906 170.974 16.5547C171.099 16.7161 171.195 16.849 171.263 16.9531H171.356V16H172.247V22.1719C172.247 22.6875 172.13 23.1068 171.896 23.4297C171.664 23.7552 171.351 23.9935 170.958 24.1445C170.567 24.2982 170.132 24.375 169.653 24.375ZM169.622 21.0781C169.992 21.0781 170.304 20.9935 170.56 20.8242C170.815 20.6549 171.009 20.4115 171.142 20.0938C171.274 19.776 171.341 19.3958 171.341 18.9531C171.341 18.5208 171.276 18.1393 171.146 17.8086C171.015 17.4779 170.823 17.2187 170.567 17.0312C170.312 16.8437 169.997 16.75 169.622 16.75C169.231 16.75 168.906 16.849 168.646 17.0469C168.388 17.2448 168.194 17.5104 168.063 17.8438C167.936 18.1771 167.872 18.5469 167.872 18.9531C167.872 19.3698 167.937 19.7383 168.067 20.0586C168.2 20.3763 168.396 20.6263 168.653 20.8086C168.914 20.9883 169.237 21.0781 169.622 21.0781ZM176.356 24.375C175.911 24.375 175.528 24.3177 175.208 24.2031C174.888 24.0911 174.621 23.9427 174.407 23.7578C174.196 23.5755 174.028 23.3802 173.903 23.1719L174.638 22.6563C174.721 22.7656 174.826 22.8906 174.954 23.0312C175.082 23.1745 175.256 23.2982 175.478 23.4023C175.701 23.5091 175.994 23.5625 176.356 23.5625C176.841 23.5625 177.241 23.4453 177.556 23.2109C177.871 22.9766 178.028 22.6094 178.028 22.1094V20.8906H177.95C177.882 21 177.786 21.1354 177.661 21.2969C177.539 21.4557 177.362 21.5977 177.13 21.7227C176.901 21.8451 176.591 21.9062 176.2 21.9062C175.716 21.9062 175.281 21.7917 174.896 21.5625C174.513 21.3333 174.209 21 173.985 20.5625C173.764 20.125 173.653 19.5937 173.653 18.9687C173.653 18.3542 173.761 17.819 173.978 17.3633C174.194 16.9049 174.494 16.5508 174.88 16.3008C175.265 16.0482 175.711 15.9219 176.216 15.9219C176.606 15.9219 176.916 15.987 177.146 16.1172C177.377 16.2448 177.554 16.3906 177.677 16.5547C177.802 16.7161 177.898 16.849 177.966 16.9531H178.06V16H178.95V22.1719C178.95 22.6875 178.833 23.1068 178.599 23.4297C178.367 23.7552 178.054 23.9935 177.661 24.1445C177.271 24.2982 176.836 24.375 176.356 24.375ZM176.325 21.0781C176.695 21.0781 177.007 20.9935 177.263 20.8242C177.518 20.6549 177.712 20.4115 177.845 20.0938C177.978 19.776 178.044 19.3958 178.044 18.9531C178.044 18.5208 177.979 18.1393 177.849 17.8086C177.718 17.4779 177.526 17.2187 177.271 17.0312C177.015 16.8437 176.7 16.75 176.325 16.75C175.935 16.75 175.609 16.849 175.349 17.0469C175.091 17.2448 174.897 17.5104 174.767 17.8438C174.639 18.1771 174.575 18.5469 174.575 18.9531C174.575 19.3698 174.64 19.7383 174.771 20.0586C174.903 20.3763 175.099 20.6263 175.356 20.8086C175.617 20.9883 175.94 21.0781 176.325 21.0781ZM184.075 18.1406V19H180.575V18.1406H184.075ZM187.963 22.125C187.463 22.125 187.021 21.9987 186.639 21.7461C186.256 21.4909 185.956 21.1315 185.74 20.668C185.524 20.2018 185.416 19.651 185.416 19.0156C185.416 18.3854 185.524 17.8385 185.74 17.375C185.956 16.9115 186.257 16.5534 186.643 16.3008C187.028 16.0482 187.473 15.9219 187.979 15.9219C188.369 15.9219 188.678 15.987 188.904 16.1172C189.133 16.2448 189.308 16.3906 189.428 16.5547C189.55 16.7161 189.645 16.849 189.713 16.9531H189.791V14H190.713V22H189.822V21.0781H189.713C189.645 21.1875 189.549 21.3255 189.424 21.4922C189.299 21.6562 189.12 21.8034 188.889 21.9336C188.657 22.0612 188.348 22.125 187.963 22.125ZM188.088 21.2969C188.458 21.2969 188.77 21.2005 189.025 21.0078C189.281 20.8125 189.475 20.543 189.607 20.1992C189.74 19.8529 189.807 19.4531 189.807 19C189.807 18.5521 189.742 18.1602 189.611 17.8242C189.481 17.4857 189.288 17.2227 189.033 17.0352C188.778 16.8451 188.463 16.75 188.088 16.75C187.697 16.75 187.372 16.8503 187.111 17.0508C186.854 17.2487 186.66 17.5182 186.529 17.8594C186.402 18.1979 186.338 18.5781 186.338 19C186.338 19.4271 186.403 19.8151 186.533 20.1641C186.666 20.5104 186.861 20.7865 187.119 20.9922C187.38 21.1953 187.702 21.2969 188.088 21.2969ZM194.295 22.1406C193.915 22.1406 193.57 22.069 193.26 21.9258C192.95 21.7799 192.704 21.5703 192.521 21.2969C192.339 21.0208 192.248 20.6875 192.248 20.2969C192.248 19.9531 192.316 19.6745 192.451 19.4609C192.587 19.2448 192.768 19.0755 192.994 18.9531C193.221 18.8307 193.471 18.7396 193.744 18.6797C194.02 18.6172 194.298 18.5677 194.576 18.5313C194.941 18.4844 195.236 18.4492 195.463 18.4258C195.692 18.3997 195.859 18.3568 195.963 18.2969C196.07 18.237 196.123 18.1328 196.123 17.9844V17.9531C196.123 17.5677 196.018 17.2682 195.807 17.0547C195.598 16.8411 195.282 16.7344 194.857 16.7344C194.417 16.7344 194.072 16.8307 193.822 17.0234C193.572 17.2161 193.396 17.4219 193.295 17.6406L192.42 17.3281C192.576 16.9635 192.785 16.6797 193.045 16.4766C193.308 16.2708 193.594 16.1276 193.904 16.0469C194.217 15.9635 194.524 15.9219 194.826 15.9219C195.019 15.9219 195.24 15.9453 195.49 15.9922C195.743 16.0365 195.986 16.1289 196.221 16.2695C196.458 16.4102 196.654 16.6224 196.811 16.9062C196.967 17.1901 197.045 17.5703 197.045 18.0469V22H196.123V21.1875H196.076C196.014 21.3177 195.91 21.457 195.764 21.6055C195.618 21.7539 195.424 21.8802 195.182 21.9844C194.939 22.0885 194.644 22.1406 194.295 22.1406ZM194.436 21.3125C194.8 21.3125 195.107 21.2409 195.357 21.0977C195.61 20.9544 195.8 20.7695 195.928 20.543C196.058 20.3164 196.123 20.0781 196.123 19.8281V18.9844C196.084 19.0312 195.998 19.0742 195.865 19.1133C195.735 19.1497 195.584 19.1823 195.412 19.2109C195.243 19.237 195.077 19.2604 194.916 19.2812C194.757 19.2995 194.628 19.3151 194.529 19.3281C194.29 19.3594 194.066 19.4102 193.857 19.4805C193.652 19.5482 193.485 19.651 193.357 19.7891C193.232 19.9245 193.17 20.1094 193.17 20.3437C193.17 20.6641 193.288 20.9062 193.525 21.0703C193.765 21.2318 194.068 21.3125 194.436 21.3125ZM198.728 22V16H199.618V16.9062H199.681C199.79 16.6094 199.988 16.3685 200.274 16.1836C200.561 15.9987 200.884 15.9062 201.243 15.9062C201.311 15.9062 201.396 15.9076 201.497 15.9102C201.599 15.9128 201.675 15.9167 201.728 15.9219V16.8594C201.696 16.8516 201.625 16.8398 201.513 16.8242C201.403 16.806 201.287 16.7969 201.165 16.7969C200.873 16.7969 200.613 16.8581 200.384 16.9805C200.157 17.1003 199.978 17.2669 199.845 17.4805C199.715 17.6914 199.649 17.9323 199.649 18.2031V22H198.728ZM203.68 19.8125L203.664 18.6719H203.852L206.477 16H207.617L204.82 18.8281H204.742L203.68 19.8125ZM202.82 22V14H203.742V22H202.82ZM206.633 22L204.289 19.0312L204.945 18.3906L207.805 22H206.633ZM211.736 18.1406V19H208.236V18.1406H211.736ZM215.624 22.125C215.124 22.125 214.683 21.9987 214.3 21.7461C213.917 21.4909 213.618 21.1315 213.401 20.668C213.185 20.2018 213.077 19.651 213.077 19.0156C213.077 18.3854 213.185 17.8385 213.401 17.375C213.618 16.9115 213.918 16.5534 214.304 16.3008C214.689 16.0482 215.134 15.9219 215.64 15.9219C216.03 15.9219 216.339 15.987 216.565 16.1172C216.795 16.2448 216.969 16.3906 217.089 16.5547C217.211 16.7161 217.306 16.849 217.374 16.9531H217.452V14H218.374V22H217.483V21.0781H217.374C217.306 21.1875 217.21 21.3255 217.085 21.4922C216.96 21.6562 216.782 21.8034 216.55 21.9336C216.318 22.0612 216.009 22.125 215.624 22.125ZM215.749 21.2969C216.119 21.2969 216.431 21.2005 216.687 21.0078C216.942 20.8125 217.136 20.543 217.269 20.1992C217.401 19.8529 217.468 19.4531 217.468 19C217.468 18.5521 217.403 18.1602 217.272 17.8242C217.142 17.4857 216.95 17.2227 216.694 17.0352C216.439 16.8451 216.124 16.75 215.749 16.75C215.358 16.75 215.033 16.8503 214.772 17.0508C214.515 17.2487 214.321 17.5182 214.19 17.8594C214.063 18.1979 213.999 18.5781 213.999 19C213.999 19.4271 214.064 19.8151 214.194 20.1641C214.327 20.5104 214.522 20.7865 214.78 20.9922C215.041 21.1953 215.364 21.2969 215.749 21.2969ZM221.956 22.1406C221.576 22.1406 221.231 22.069 220.921 21.9258C220.611 21.7799 220.365 21.5703 220.183 21.2969C220 21.0208 219.909 20.6875 219.909 20.2969C219.909 19.9531 219.977 19.6745 220.112 19.4609C220.248 19.2448 220.429 19.0755 220.655 18.9531C220.882 18.8307 221.132 18.7396 221.405 18.6797C221.681 18.6172 221.959 18.5677 222.237 18.5313C222.602 18.4844 222.897 18.4492 223.124 18.4258C223.353 18.3997 223.52 18.3568 223.624 18.2969C223.731 18.237 223.784 18.1328 223.784 17.9844V17.9531C223.784 17.5677 223.679 17.2682 223.468 17.0547C223.259 16.8411 222.943 16.7344 222.519 16.7344C222.078 16.7344 221.733 16.8307 221.483 17.0234C221.233 17.2161 221.058 17.4219 220.956 17.6406L220.081 17.3281C220.237 16.9635 220.446 16.6797 220.706 16.4766C220.969 16.2708 221.256 16.1276 221.565 16.0469C221.878 15.9635 222.185 15.9219 222.487 15.9219C222.68 15.9219 222.901 15.9453 223.151 15.9922C223.404 16.0365 223.647 16.1289 223.882 16.2695C224.119 16.4102 224.315 16.6224 224.472 16.9062C224.628 17.1901 224.706 17.5703 224.706 18.0469V22H223.784V21.1875H223.737C223.675 21.3177 223.571 21.457 223.425 21.6055C223.279 21.7539 223.085 21.8802 222.843 21.9844C222.601 22.0885 222.305 22.1406 221.956 22.1406ZM222.097 21.3125C222.461 21.3125 222.769 21.2409 223.019 21.0977C223.271 20.9544 223.461 20.7695 223.589 20.543C223.719 20.3164 223.784 20.0781 223.784 19.8281V18.9844C223.745 19.0312 223.659 19.0742 223.526 19.1133C223.396 19.1497 223.245 19.1823 223.073 19.2109C222.904 19.237 222.739 19.2604 222.577 19.2812C222.418 19.2995 222.289 19.3151 222.19 19.3281C221.951 19.3594 221.727 19.4102 221.519 19.4805C221.313 19.5482 221.146 19.651 221.019 19.7891C220.894 19.9245 220.831 20.1094 220.831 20.3437C220.831 20.6641 220.95 20.9062 221.187 21.0703C221.426 21.2318 221.729 21.3125 222.097 21.3125ZM230.639 17.3437L229.811 17.5781C229.758 17.4401 229.682 17.306 229.58 17.1758C229.481 17.043 229.346 16.9336 229.174 16.8477C229.002 16.7617 228.782 16.7187 228.514 16.7187C228.146 16.7187 227.84 16.8034 227.596 16.9727C227.354 17.1393 227.232 17.3516 227.232 17.6094C227.232 17.8385 227.316 18.0195 227.482 18.1523C227.649 18.2852 227.91 18.3958 228.264 18.4844L229.154 18.7031C229.691 18.8333 230.09 19.0326 230.354 19.3008C230.617 19.5664 230.748 19.9089 230.748 20.3281C230.748 20.6719 230.649 20.9792 230.451 21.25C230.256 21.5208 229.982 21.7344 229.631 21.8906C229.279 22.0469 228.87 22.125 228.404 22.125C227.792 22.125 227.286 21.9922 226.885 21.7266C226.484 21.4609 226.23 21.0729 226.123 20.5625L226.998 20.3437C227.081 20.6667 227.239 20.9089 227.471 21.0703C227.705 21.2318 228.011 21.3125 228.389 21.3125C228.818 21.3125 229.16 21.2214 229.412 21.0391C229.667 20.8542 229.795 20.6328 229.795 20.375C229.795 20.1667 229.722 19.9922 229.576 19.8516C229.43 19.7083 229.206 19.6016 228.904 19.5312L227.904 19.2969C227.355 19.1667 226.951 18.9648 226.693 18.6914C226.438 18.4154 226.311 18.0703 226.311 17.6562C226.311 17.3177 226.406 17.0182 226.596 16.7578C226.788 16.4974 227.05 16.293 227.381 16.1445C227.714 15.9961 228.092 15.9219 228.514 15.9219C229.107 15.9219 229.574 16.0521 229.912 16.3125C230.253 16.5729 230.495 16.9167 230.639 17.3437ZM233.058 18.3906V22H232.136V14H233.058V16.9375H233.136C233.276 16.6276 233.487 16.3815 233.769 16.1992C234.052 16.0143 234.43 15.9219 234.901 15.9219C235.31 15.9219 235.668 16.0039 235.976 16.168C236.283 16.3294 236.521 16.5781 236.69 16.9141C236.862 17.2474 236.948 17.6719 236.948 18.1875V22H236.026V18.25C236.026 17.7734 235.903 17.4049 235.655 17.1445C235.41 16.8815 235.071 16.75 234.636 16.75C234.334 16.75 234.063 16.8138 233.823 16.9414C233.586 17.069 233.399 17.2552 233.261 17.5C233.125 17.7448 233.058 18.0417 233.058 18.3906ZM238.76 22V14H239.682V16.9531H239.76C239.827 16.849 239.921 16.7161 240.041 16.5547C240.163 16.3906 240.338 16.2448 240.564 16.1172C240.794 15.987 241.104 15.9219 241.494 15.9219C241.999 15.9219 242.445 16.0482 242.83 16.3008C243.215 16.5534 243.516 16.9115 243.732 17.375C243.949 17.8385 244.057 18.3854 244.057 19.0156C244.057 19.651 243.949 20.2018 243.732 20.668C243.516 21.1315 243.217 21.4909 242.834 21.7461C242.451 21.9987 242.01 22.125 241.51 22.125C241.124 22.125 240.816 22.0612 240.584 21.9336C240.352 21.8034 240.174 21.6562 240.049 21.4922C239.924 21.3255 239.827 21.1875 239.76 21.0781H239.65V22H238.76ZM239.666 19C239.666 19.4531 239.732 19.8529 239.865 20.1992C239.998 20.543 240.192 20.8125 240.447 21.0078C240.702 21.2005 241.015 21.2969 241.385 21.2969C241.77 21.2969 242.092 21.1953 242.35 20.9922C242.61 20.7865 242.805 20.5104 242.936 20.1641C243.068 19.8151 243.135 19.4271 243.135 19C243.135 18.5781 243.07 18.1979 242.939 17.8594C242.812 17.5182 242.618 17.2487 242.357 17.0508C242.1 16.8503 241.775 16.75 241.385 16.75C241.01 16.75 240.695 16.8451 240.439 17.0352C240.184 17.2227 239.992 17.4857 239.861 17.8242C239.731 18.1602 239.666 18.5521 239.666 19ZM247.904 22.125C247.363 22.125 246.887 21.9961 246.479 21.7383C246.072 21.4805 245.755 21.1198 245.525 20.6562C245.299 20.1927 245.186 19.651 245.186 19.0312C245.186 18.4062 245.299 17.8607 245.525 17.3945C245.755 16.9284 246.072 16.5664 246.479 16.3086C246.887 16.0508 247.363 15.9219 247.904 15.9219C248.446 15.9219 248.92 16.0508 249.326 16.3086C249.735 16.5664 250.053 16.9284 250.279 17.3945C250.508 17.8607 250.623 18.4062 250.623 19.0312C250.623 19.651 250.508 20.1927 250.279 20.6562C250.053 21.1198 249.735 21.4805 249.326 21.7383C248.92 21.9961 248.446 22.125 247.904 22.125ZM247.904 21.2969C248.316 21.2969 248.654 21.1914 248.92 20.9805C249.186 20.7695 249.382 20.4922 249.51 20.1484C249.637 19.8047 249.701 19.4323 249.701 19.0312C249.701 18.6302 249.637 18.2565 249.51 17.9102C249.382 17.5638 249.186 17.2839 248.92 17.0703C248.654 16.8568 248.316 16.75 247.904 16.75C247.493 16.75 247.154 16.8568 246.889 17.0703C246.623 17.2839 246.426 17.5638 246.299 17.9102C246.171 18.2565 246.107 18.6302 246.107 19.0312C246.107 19.4323 246.171 19.8047 246.299 20.1484C246.426 20.4922 246.623 20.7695 246.889 20.9805C247.154 21.1914 247.493 21.2969 247.904 21.2969ZM253.796 22.1406C253.416 22.1406 253.071 22.069 252.761 21.9258C252.451 21.7799 252.205 21.5703 252.022 21.2969C251.84 21.0208 251.749 20.6875 251.749 20.2969C251.749 19.9531 251.817 19.6745 251.952 19.4609C252.088 19.2448 252.269 19.0755 252.495 18.9531C252.722 18.8307 252.972 18.7396 253.245 18.6797C253.521 18.6172 253.799 18.5677 254.077 18.5313C254.442 18.4844 254.737 18.4492 254.964 18.4258C255.193 18.3997 255.36 18.3568 255.464 18.2969C255.571 18.237 255.624 18.1328 255.624 17.9844V17.9531C255.624 17.5677 255.519 17.2682 255.308 17.0547C255.099 16.8411 254.783 16.7344 254.358 16.7344C253.918 16.7344 253.573 16.8307 253.323 17.0234C253.073 17.2161 252.897 17.4219 252.796 17.6406L251.921 17.3281C252.077 16.9635 252.285 16.6797 252.546 16.4766C252.809 16.2708 253.095 16.1276 253.405 16.0469C253.718 15.9635 254.025 15.9219 254.327 15.9219C254.52 15.9219 254.741 15.9453 254.991 15.9922C255.244 16.0365 255.487 16.1289 255.722 16.2695C255.959 16.4102 256.155 16.6224 256.312 16.9062C256.468 17.1901 256.546 17.5703 256.546 18.0469V22H255.624V21.1875H255.577C255.515 21.3177 255.41 21.457 255.265 21.6055C255.119 21.7539 254.925 21.8802 254.683 21.9844C254.44 22.0885 254.145 22.1406 253.796 22.1406ZM253.937 21.3125C254.301 21.3125 254.608 21.2409 254.858 21.0977C255.111 20.9544 255.301 20.7695 255.429 20.543C255.559 20.3164 255.624 20.0781 255.624 19.8281V18.9844C255.585 19.0312 255.499 19.0742 255.366 19.1133C255.236 19.1497 255.085 19.1823 254.913 19.2109C254.744 19.237 254.578 19.2604 254.417 19.2812C254.258 19.2995 254.129 19.3151 254.03 19.3281C253.791 19.3594 253.567 19.4102 253.358 19.4805C253.153 19.5482 252.986 19.651 252.858 19.7891C252.733 19.9245 252.671 20.1094 252.671 20.3437C252.671 20.6641 252.789 20.9062 253.026 21.0703C253.266 21.2318 253.569 21.3125 253.937 21.3125ZM258.229 22V16H259.119V16.9062H259.182C259.291 16.6094 259.489 16.3685 259.775 16.1836C260.062 15.9987 260.385 15.9062 260.744 15.9062C260.812 15.9062 260.896 15.9076 260.998 15.9102C261.1 15.9128 261.176 15.9167 261.229 15.9219V16.8594C261.197 16.8516 261.126 16.8398 261.014 16.8242C260.904 16.806 260.788 16.7969 260.666 16.7969C260.374 16.7969 260.114 16.8581 259.885 16.9805C259.658 17.1003 259.479 17.2669 259.346 17.4805C259.215 17.6914 259.15 17.9323 259.15 18.2031V22H258.229ZM264.404 22.125C263.904 22.125 263.463 21.9987 263.08 21.7461C262.697 21.4909 262.398 21.1315 262.182 20.668C261.965 20.2018 261.857 19.651 261.857 19.0156C261.857 18.3854 261.965 17.8385 262.182 17.375C262.398 16.9115 262.699 16.5534 263.084 16.3008C263.469 16.0482 263.915 15.9219 264.42 15.9219C264.811 15.9219 265.119 15.987 265.346 16.1172C265.575 16.2448 265.749 16.3906 265.869 16.5547C265.992 16.7161 266.087 16.849 266.154 16.9531H266.232V14H267.154V22H266.264V21.0781H266.154C266.087 21.1875 265.99 21.3255 265.865 21.4922C265.74 21.6562 265.562 21.8034 265.33 21.9336C265.098 22.0612 264.79 22.125 264.404 22.125ZM264.529 21.2969C264.899 21.2969 265.212 21.2005 265.467 21.0078C265.722 20.8125 265.916 20.543 266.049 20.1992C266.182 19.8529 266.248 19.4531 266.248 19C266.248 18.5521 266.183 18.1602 266.053 17.8242C265.923 17.4857 265.73 17.2227 265.475 17.0352C265.219 16.8451 264.904 16.75 264.529 16.75C264.139 16.75 263.813 16.8503 263.553 17.0508C263.295 17.2487 263.101 17.5182 262.971 17.8594C262.843 18.1979 262.779 18.5781 262.779 19C262.779 19.4271 262.844 19.8151 262.975 20.1641C263.107 20.5104 263.303 20.7865 263.561 20.9922C263.821 21.1953 264.144 21.2969 264.529 21.2969ZM272.408 18.1406V19H268.908V18.1406H272.408ZM277.812 19.5469V16H278.733V22H277.812V20.9844H277.749C277.608 21.2891 277.39 21.5482 277.093 21.7617C276.796 21.9727 276.421 22.0781 275.968 22.0781C275.593 22.0781 275.259 21.9961 274.968 21.832C274.676 21.6654 274.447 21.4154 274.28 21.082C274.114 20.7461 274.03 20.3229 274.03 19.8125V16H274.952V19.75C274.952 20.1875 275.075 20.5365 275.319 20.7969C275.567 21.0573 275.882 21.1875 276.265 21.1875C276.494 21.1875 276.727 21.1289 276.964 21.0117C277.203 20.8945 277.404 20.7148 277.565 20.4727C277.729 20.2305 277.812 19.9219 277.812 19.5469ZM280.422 22V16H281.344V22H280.422ZM280.891 15C280.711 15 280.556 14.9388 280.426 14.8164C280.298 14.694 280.234 14.5469 280.234 14.375C280.234 14.2031 280.298 14.056 280.426 13.9336C280.556 13.8112 280.711 13.75 280.891 13.75C281.07 13.75 281.224 13.8112 281.352 13.9336C281.482 14.056 281.547 14.2031 281.547 14.375C281.547 14.5469 281.482 14.694 281.352 14.8164C281.224 14.9388 281.07 15 280.891 15ZM283.704 22.0625C283.511 22.0625 283.346 21.9935 283.208 21.8555C283.07 21.7174 283.001 21.5521 283.001 21.3594C283.001 21.1667 283.07 21.0013 283.208 20.8633C283.346 20.7253 283.511 20.6562 283.704 20.6562C283.897 20.6562 284.062 20.7253 284.2 20.8633C284.338 21.0013 284.407 21.1667 284.407 21.3594C284.407 21.487 284.375 21.6042 284.31 21.7109C284.247 21.8177 284.162 21.9036 284.056 21.9687C283.951 22.0313 283.834 22.0625 283.704 22.0625ZM286.983 14V22H286.062V14H286.983ZM291.109 22.125C290.568 22.125 290.092 21.9961 289.684 21.7383C289.277 21.4805 288.96 21.1198 288.73 20.6562C288.504 20.1927 288.391 19.651 288.391 19.0312C288.391 18.4062 288.504 17.8607 288.73 17.3945C288.96 16.9284 289.277 16.5664 289.684 16.3086C290.092 16.0508 290.568 15.9219 291.109 15.9219C291.651 15.9219 292.125 16.0508 292.531 16.3086C292.94 16.5664 293.258 16.9284 293.484 17.3945C293.714 17.8607 293.828 18.4062 293.828 19.0312C293.828 19.651 293.714 20.1927 293.484 20.6562C293.258 21.1198 292.94 21.4805 292.531 21.7383C292.125 21.9961 291.651 22.125 291.109 22.125ZM291.109 21.2969C291.521 21.2969 291.859 21.1914 292.125 20.9805C292.391 20.7695 292.587 20.4922 292.715 20.1484C292.842 19.8047 292.906 19.4323 292.906 19.0312C292.906 18.6302 292.842 18.2565 292.715 17.9102C292.587 17.5638 292.391 17.2839 292.125 17.0703C291.859 16.8568 291.521 16.75 291.109 16.75C290.698 16.75 290.359 16.8568 290.094 17.0703C289.828 17.2839 289.632 17.5638 289.504 17.9102C289.376 18.2565 289.313 18.6302 289.313 19.0312C289.313 19.4323 289.376 19.8047 289.504 20.1484C289.632 20.4922 289.828 20.7695 290.094 20.9805C290.359 21.1914 290.698 21.2969 291.109 21.2969ZM299.927 16L297.708 22H296.771L294.552 16H295.552L297.208 20.7812H297.271L298.927 16H299.927ZM302.727 22.1406C302.346 22.1406 302.001 22.069 301.691 21.9258C301.382 21.7799 301.135 21.5703 300.953 21.2969C300.771 21.0208 300.68 20.6875 300.68 20.2969C300.68 19.9531 300.747 19.6745 300.883 19.4609C301.018 19.2448 301.199 19.0755 301.426 18.9531C301.652 18.8307 301.902 18.7396 302.176 18.6797C302.452 18.6172 302.729 18.5677 303.008 18.5313C303.372 18.4844 303.668 18.4492 303.895 18.4258C304.124 18.3997 304.29 18.3568 304.395 18.2969C304.501 18.237 304.555 18.1328 304.555 17.9844V17.9531C304.555 17.5677 304.449 17.2682 304.238 17.0547C304.03 16.8411 303.714 16.7344 303.289 16.7344C302.849 16.7344 302.504 16.8307 302.254 17.0234C302.004 17.2161 301.828 17.4219 301.727 17.6406L300.852 17.3281C301.008 16.9635 301.216 16.6797 301.477 16.4766C301.74 16.2708 302.026 16.1276 302.336 16.0469C302.648 15.9635 302.956 15.9219 303.258 15.9219C303.451 15.9219 303.672 15.9453 303.922 15.9922C304.174 16.0365 304.418 16.1289 304.652 16.2695C304.889 16.4102 305.086 16.6224 305.242 16.9062C305.398 17.1901 305.477 17.5703 305.477 18.0469V22H304.555V21.1875H304.508C304.445 21.3177 304.341 21.457 304.195 21.6055C304.049 21.7539 303.855 21.8802 303.613 21.9844C303.371 22.0885 303.076 22.1406 302.727 22.1406ZM302.867 21.3125C303.232 21.3125 303.539 21.2409 303.789 21.0977C304.042 20.9544 304.232 20.7695 304.359 20.543C304.49 20.3164 304.555 20.0781 304.555 19.8281V18.9844C304.516 19.0312 304.43 19.0742 304.297 19.1133C304.167 19.1497 304.016 19.1823 303.844 19.2109C303.674 19.237 303.509 19.2604 303.348 19.2812C303.189 19.2995 303.06 19.3151 302.961 19.3281C302.721 19.3594 302.497 19.4102 302.289 19.4805C302.083 19.5482 301.917 19.651 301.789 19.7891C301.664 19.9245 301.602 20.1094 301.602 20.3437C301.602 20.6641 301.72 20.9062 301.957 21.0703C302.197 21.2318 302.5 21.3125 302.867 21.3125ZM307.284 22V14H308.206V16.9531H308.284C308.352 16.849 308.446 16.7161 308.565 16.5547C308.688 16.3906 308.862 16.2448 309.089 16.1172C309.318 15.987 309.628 15.9219 310.019 15.9219C310.524 15.9219 310.969 16.0482 311.354 16.3008C311.74 16.5534 312.041 16.9115 312.257 17.375C312.473 17.8385 312.581 18.3854 312.581 19.0156C312.581 19.651 312.473 20.2018 312.257 20.668C312.041 21.1315 311.741 21.4909 311.358 21.7461C310.976 21.9987 310.534 22.125 310.034 22.125C309.649 22.125 309.34 22.0612 309.108 21.9336C308.877 21.8034 308.698 21.6562 308.573 21.4922C308.448 21.3255 308.352 21.1875 308.284 21.0781H308.175V22H307.284ZM308.19 19C308.19 19.4531 308.257 19.8529 308.39 20.1992C308.522 20.543 308.716 20.8125 308.972 21.0078C309.227 21.2005 309.539 21.2969 309.909 21.2969C310.295 21.2969 310.616 21.1953 310.874 20.9922C311.134 20.7865 311.33 20.5104 311.46 20.1641C311.593 19.8151 311.659 19.4271 311.659 19C311.659 18.5781 311.594 18.1979 311.464 17.8594C311.336 17.5182 311.142 17.2487 310.882 17.0508C310.624 16.8503 310.3 16.75 309.909 16.75C309.534 16.75 309.219 16.8451 308.964 17.0352C308.709 17.2227 308.516 17.4857 308.386 17.8242C308.256 18.1602 308.19 18.5521 308.19 19ZM314.913 14V22H313.991V14H314.913ZM319.117 22.125C318.539 22.125 318.04 21.9974 317.621 21.7422C317.204 21.4844 316.883 21.125 316.656 20.6641C316.432 20.2005 316.32 19.6615 316.32 19.0469C316.32 18.4323 316.432 17.8906 316.656 17.4219C316.883 16.9505 317.198 16.5833 317.602 16.3203C318.008 16.0547 318.482 15.9219 319.023 15.9219C319.336 15.9219 319.645 15.974 319.949 16.0781C320.254 16.1823 320.531 16.3516 320.781 16.5859C321.031 16.8177 321.23 17.125 321.379 17.5078C321.527 17.8906 321.602 18.362 321.602 18.9219V19.3125H316.977V18.5156H320.664C320.664 18.1771 320.596 17.875 320.461 17.6094C320.328 17.3437 320.138 17.1341 319.891 16.9805C319.646 16.8268 319.357 16.75 319.023 16.75C318.656 16.75 318.339 16.8411 318.07 17.0234C317.805 17.2031 317.6 17.4375 317.457 17.7266C317.314 18.0156 317.242 18.3255 317.242 18.6562V19.1875C317.242 19.6406 317.32 20.0247 317.477 20.3398C317.635 20.6523 317.855 20.8906 318.137 21.0547C318.418 21.2161 318.745 21.2969 319.117 21.2969C319.359 21.2969 319.578 21.263 319.773 21.1953C319.971 21.125 320.142 21.0208 320.285 20.8828C320.428 20.7422 320.539 20.5677 320.617 20.3594L321.508 20.6094C321.414 20.9115 321.257 21.1771 321.035 21.4062C320.814 21.6328 320.54 21.8099 320.215 21.9375C319.889 22.0625 319.523 22.125 319.117 22.125ZM323.676 22.0625C323.483 22.0625 323.318 21.9935 323.18 21.8555C323.042 21.7174 322.973 21.5521 322.973 21.3594C322.973 21.1667 323.042 21.0013 323.18 20.8633C323.318 20.7253 323.483 20.6562 323.676 20.6562C323.868 20.6562 324.034 20.7253 324.172 20.8633C324.31 21.0013 324.379 21.1667 324.379 21.3594C324.379 21.487 324.346 21.6042 324.281 21.7109C324.219 21.8177 324.134 21.9036 324.027 21.9687C323.923 22.0313 323.806 22.0625 323.676 22.0625ZM327.799 22.1406C327.419 22.1406 327.074 22.069 326.764 21.9258C326.454 21.7799 326.208 21.5703 326.025 21.2969C325.843 21.0208 325.752 20.6875 325.752 20.2969C325.752 19.9531 325.82 19.6745 325.955 19.4609C326.09 19.2448 326.271 19.0755 326.498 18.9531C326.725 18.8307 326.975 18.7396 327.248 18.6797C327.524 18.6172 327.801 18.5677 328.08 18.5313C328.445 18.4844 328.74 18.4492 328.967 18.4258C329.196 18.3997 329.363 18.3568 329.467 18.2969C329.574 18.237 329.627 18.1328 329.627 17.9844V17.9531C329.627 17.5677 329.521 17.2682 329.311 17.0547C329.102 16.8411 328.786 16.7344 328.361 16.7344C327.921 16.7344 327.576 16.8307 327.326 17.0234C327.076 17.2161 326.9 17.4219 326.799 17.6406L325.924 17.3281C326.08 16.9635 326.288 16.6797 326.549 16.4766C326.812 16.2708 327.098 16.1276 327.408 16.0469C327.721 15.9635 328.028 15.9219 328.33 15.9219C328.523 15.9219 328.744 15.9453 328.994 15.9922C329.247 16.0365 329.49 16.1289 329.725 16.2695C329.962 16.4102 330.158 16.6224 330.314 16.9062C330.471 17.1901 330.549 17.5703 330.549 18.0469V22H329.627V21.1875H329.58C329.518 21.3177 329.413 21.457 329.268 21.6055C329.122 21.7539 328.928 21.8802 328.686 21.9844C328.443 22.0885 328.148 22.1406 327.799 22.1406ZM327.939 21.3125C328.304 21.3125 328.611 21.2409 328.861 21.0977C329.114 20.9544 329.304 20.7695 329.432 20.543C329.562 20.3164 329.627 20.0781 329.627 19.8281V18.9844C329.588 19.0312 329.502 19.0742 329.369 19.1133C329.239 19.1497 329.088 19.1823 328.916 19.2109C328.747 19.237 328.581 19.2604 328.42 19.2812C328.261 19.2995 328.132 19.3151 328.033 19.3281C327.794 19.3594 327.57 19.4102 327.361 19.4805C327.156 19.5482 326.989 19.651 326.861 19.7891C326.736 19.9245 326.674 20.1094 326.674 20.3437C326.674 20.6641 326.792 20.9062 327.029 21.0703C327.269 21.2318 327.572 21.3125 327.939 21.3125ZM332.231 24.25V16H333.122V16.9531H333.231C333.299 16.849 333.393 16.7161 333.513 16.5547C333.635 16.3906 333.81 16.2448 334.036 16.1172C334.265 15.987 334.575 15.9219 334.966 15.9219C335.471 15.9219 335.916 16.0482 336.302 16.3008C336.687 16.5534 336.988 16.9115 337.204 17.375C337.42 17.8385 337.528 18.3854 337.528 19.0156C337.528 19.651 337.42 20.2018 337.204 20.668C336.988 21.1315 336.688 21.4909 336.306 21.7461C335.923 21.9987 335.481 22.125 334.981 22.125C334.596 22.125 334.287 22.0612 334.056 21.9336C333.824 21.8034 333.646 21.6562 333.521 21.4922C333.396 21.3255 333.299 21.1875 333.231 21.0781H333.153V24.25H332.231ZM333.138 19C333.138 19.4531 333.204 19.8529 333.337 20.1992C333.47 20.543 333.664 20.8125 333.919 21.0078C334.174 21.2005 334.487 21.2969 334.856 21.2969C335.242 21.2969 335.563 21.1953 335.821 20.9922C336.082 20.7865 336.277 20.5104 336.407 20.1641C336.54 19.8151 336.606 19.4271 336.606 19C336.606 18.5781 336.541 18.1979 336.411 17.8594C336.284 17.5182 336.09 17.2487 335.829 17.0508C335.571 16.8503 335.247 16.75 334.856 16.75C334.481 16.75 334.166 16.8451 333.911 17.0352C333.656 17.2227 333.463 17.4857 333.333 17.8242C333.203 18.1602 333.138 18.5521 333.138 19ZM338.935 24.25V16H339.825V16.9531H339.935C340.002 16.849 340.096 16.7161 340.216 16.5547C340.338 16.3906 340.513 16.2448 340.739 16.1172C340.968 15.987 341.278 15.9219 341.669 15.9219C342.174 15.9219 342.619 16.0482 343.005 16.3008C343.39 16.5534 343.691 16.9115 343.907 17.375C344.123 17.8385 344.231 18.3854 344.231 19.0156C344.231 19.651 344.123 20.2018 343.907 20.668C343.691 21.1315 343.392 21.4909 343.009 21.7461C342.626 21.9987 342.185 22.125 341.685 22.125C341.299 22.125 340.991 22.0612 340.759 21.9336C340.527 21.8034 340.349 21.6562 340.224 21.4922C340.099 21.3255 340.002 21.1875 339.935 21.0781H339.856V24.25H338.935ZM339.841 19C339.841 19.4531 339.907 19.8529 340.04 20.1992C340.173 20.543 340.367 20.8125 340.622 21.0078C340.877 21.2005 341.19 21.2969 341.56 21.2969C341.945 21.2969 342.267 21.1953 342.524 20.9922C342.785 20.7865 342.98 20.5104 343.11 20.1641C343.243 19.8151 343.31 19.4271 343.31 19C343.31 18.5781 343.244 18.1979 343.114 17.8594C342.987 17.5182 342.793 17.2487 342.532 17.0508C342.274 16.8503 341.95 16.75 341.56 16.75C341.185 16.75 340.869 16.8451 340.614 17.0352C340.359 17.2227 340.166 17.4857 340.036 17.8242C339.906 18.1602 339.841 18.5521 339.841 19ZM348.466 13.625L345.888 23.2031H345.044L347.622 13.625H348.466ZM352.777 22V14H353.699V16.9531H353.777C353.845 16.849 353.939 16.7161 354.059 16.5547C354.181 16.3906 354.355 16.2448 354.582 16.1172C354.811 15.987 355.121 15.9219 355.512 15.9219C356.017 15.9219 356.462 16.0482 356.848 16.3008C357.233 16.5534 357.534 16.9115 357.75 17.375C357.966 17.8385 358.074 18.3854 358.074 19.0156C358.074 19.651 357.966 20.2018 357.75 20.668C357.534 21.1315 357.234 21.4909 356.852 21.7461C356.469 21.9987 356.027 22.125 355.527 22.125C355.142 22.125 354.833 22.0612 354.602 21.9336C354.37 21.8034 354.191 21.6562 354.066 21.4922C353.941 21.3255 353.845 21.1875 353.777 21.0781H353.668V22H352.777ZM353.684 19C353.684 19.4531 353.75 19.8529 353.883 20.1992C354.016 20.543 354.21 20.8125 354.465 21.0078C354.72 21.2005 355.033 21.2969 355.402 21.2969C355.788 21.2969 356.109 21.1953 356.367 20.9922C356.628 20.7865 356.823 20.5104 356.953 20.1641C357.086 19.8151 357.152 19.4271 357.152 19C357.152 18.5781 357.087 18.1979 356.957 17.8594C356.829 17.5182 356.635 17.2487 356.375 17.0508C356.117 16.8503 355.793 16.75 355.402 16.75C355.027 16.75 354.712 16.8451 354.457 17.0352C354.202 17.2227 354.009 17.4857 353.879 17.8242C353.749 18.1602 353.684 18.5521 353.684 19ZM359.863 24.25C359.707 24.25 359.568 24.237 359.445 24.2109C359.323 24.1875 359.238 24.1641 359.191 24.1406L359.426 23.3281C359.65 23.3854 359.848 23.4063 360.02 23.3906C360.191 23.375 360.344 23.2982 360.477 23.1602C360.612 23.0247 360.736 22.8047 360.848 22.5L361.02 22.0313L358.801 16H359.801L361.457 20.7812H361.52L363.176 16H364.176L361.629 22.875C361.514 23.1849 361.372 23.4414 361.203 23.6445C361.034 23.8503 360.837 24.0026 360.613 24.1016C360.392 24.2005 360.142 24.25 359.863 24.25ZM369.408 18.3906V22H368.486V14H369.408V16.9375H369.486C369.627 16.6276 369.838 16.3815 370.119 16.1992C370.403 16.0143 370.781 15.9219 371.252 15.9219C371.661 15.9219 372.019 16.0039 372.326 16.168C372.633 16.3294 372.872 16.5781 373.041 16.9141C373.213 17.2474 373.299 17.6719 373.299 18.1875V22H372.377V18.25C372.377 17.7734 372.253 17.4049 372.006 17.1445C371.761 16.8815 371.421 16.75 370.986 16.75C370.684 16.75 370.413 16.8138 370.174 16.9414C369.937 17.069 369.749 17.2552 369.611 17.5C369.476 17.7448 369.408 18.0417 369.408 18.3906ZM377.595 16V16.7812H374.485V16H377.595ZM375.392 14.5625H376.313V20.2812C376.313 20.5417 376.351 20.737 376.427 20.8672C376.505 20.9948 376.604 21.0807 376.724 21.125C376.846 21.1667 376.975 21.1875 377.11 21.1875C377.212 21.1875 377.295 21.1823 377.36 21.1719C377.425 21.1589 377.478 21.1484 377.517 21.1406L377.704 21.9687C377.642 21.9922 377.554 22.0156 377.442 22.0391C377.33 22.0651 377.188 22.0781 377.017 22.0781C376.756 22.0781 376.501 22.0221 376.251 21.9102C376.004 21.7982 375.798 21.6276 375.634 21.3984C375.472 21.1693 375.392 20.8802 375.392 20.5312V14.5625ZM378.981 22V16H379.872V16.9375H379.95C380.075 16.6172 380.277 16.3685 380.556 16.1914C380.834 16.0117 381.169 15.9219 381.56 15.9219C381.955 15.9219 382.285 16.0117 382.548 16.1914C382.813 16.3685 383.021 16.6172 383.169 16.9375H383.231C383.385 16.6276 383.616 16.3815 383.923 16.1992C384.23 16.0143 384.599 15.9219 385.028 15.9219C385.565 15.9219 386.004 16.0898 386.345 16.4258C386.686 16.7591 386.856 17.2786 386.856 17.9844V22H385.935V17.9844C385.935 17.5417 385.813 17.2253 385.571 17.0352C385.329 16.8451 385.044 16.75 384.716 16.75C384.294 16.75 383.967 16.8776 383.735 17.1328C383.504 17.3854 383.388 17.7057 383.388 18.0937V22H382.45V17.8906C382.45 17.5495 382.34 17.2747 382.118 17.0664C381.897 16.8555 381.612 16.75 381.263 16.75C381.023 16.75 380.799 16.8138 380.591 16.9414C380.385 17.069 380.218 17.2461 380.091 17.4727C379.966 17.6966 379.903 17.9557 379.903 18.25V22H378.981ZM389.464 14V22H388.542V14H389.464ZM391.824 22.0625C391.632 22.0625 391.466 21.9935 391.328 21.8555C391.19 21.7174 391.121 21.5521 391.121 21.3594C391.121 21.1667 391.19 21.0013 391.328 20.8633C391.466 20.7253 391.632 20.6562 391.824 20.6562C392.017 20.6562 392.182 20.7253 392.32 20.8633C392.458 21.0013 392.527 21.1667 392.527 21.3594C392.527 21.487 392.495 21.6042 392.43 21.7109C392.367 21.8177 392.283 21.9036 392.176 21.9687C392.072 22.0313 391.954 22.0625 391.824 22.0625ZM396.791 16V16.7812H393.682V16H396.791ZM394.588 14.5625H395.51V20.2812C395.51 20.5417 395.548 20.737 395.623 20.8672C395.701 20.9948 395.8 21.0807 395.92 21.125C396.042 21.1667 396.171 21.1875 396.307 21.1875C396.408 21.1875 396.492 21.1823 396.557 21.1719C396.622 21.1589 396.674 21.1484 396.713 21.1406L396.9 21.9687C396.838 21.9922 396.751 22.0156 396.639 22.0391C396.527 22.0651 396.385 22.0781 396.213 22.0781C395.952 22.0781 395.697 22.0221 395.447 21.9102C395.2 21.7982 394.994 21.6276 394.83 21.3984C394.669 21.1693 394.588 20.8802 394.588 20.5312V14.5625ZM400.551 22.125C400.009 22.125 399.534 21.9961 399.125 21.7383C398.719 21.4805 398.401 21.1198 398.172 20.6562C397.945 20.1927 397.832 19.651 397.832 19.0312C397.832 18.4062 397.945 17.8607 398.172 17.3945C398.401 16.9284 398.719 16.5664 399.125 16.3086C399.534 16.0508 400.009 15.9219 400.551 15.9219C401.092 15.9219 401.566 16.0508 401.973 16.3086C402.382 16.5664 402.699 16.9284 402.926 17.3945C403.155 17.8607 403.27 18.4062 403.27 19.0312C403.27 19.651 403.155 20.1927 402.926 20.6562C402.699 21.1198 402.382 21.4805 401.973 21.7383C401.566 21.9961 401.092 22.125 400.551 22.125ZM400.551 21.2969C400.962 21.2969 401.301 21.1914 401.566 20.9805C401.832 20.7695 402.029 20.4922 402.156 20.1484C402.284 19.8047 402.348 19.4323 402.348 19.0312C402.348 18.6302 402.284 18.2565 402.156 17.9102C402.029 17.5638 401.832 17.2839 401.566 17.0703C401.301 16.8568 400.962 16.75 400.551 16.75C400.139 16.75 399.801 16.8568 399.535 17.0703C399.27 17.2839 399.073 17.5638 398.945 17.9102C398.818 18.2565 398.754 18.6302 398.754 19.0312C398.754 19.4323 398.818 19.8047 398.945 20.1484C399.073 20.4922 399.27 20.7695 399.535 20.9805C399.801 21.1914 400.139 21.2969 400.551 21.2969ZM405.349 22.0625C405.156 22.0625 404.991 21.9935 404.853 21.8555C404.715 21.7174 404.646 21.5521 404.646 21.3594C404.646 21.1667 404.715 21.0013 404.853 20.8633C404.991 20.7253 405.156 20.6562 405.349 20.6562C405.541 20.6562 405.707 20.7253 405.845 20.8633C405.983 21.0013 406.052 21.1667 406.052 21.3594C406.052 21.487 406.019 21.6042 405.954 21.7109C405.892 21.8177 405.807 21.9036 405.7 21.9687C405.596 22.0313 405.479 22.0625 405.349 22.0625ZM409.972 22.125C409.472 22.125 409.03 21.9987 408.647 21.7461C408.265 21.4909 407.965 21.1315 407.749 20.668C407.533 20.2018 407.425 19.651 407.425 19.0156C407.425 18.3854 407.533 17.8385 407.749 17.375C407.965 16.9115 408.266 16.5534 408.651 16.3008C409.037 16.0482 409.482 15.9219 409.987 15.9219C410.378 15.9219 410.687 15.987 410.913 16.1172C411.142 16.2448 411.317 16.3906 411.437 16.5547C411.559 16.7161 411.654 16.849 411.722 16.9531H411.8V14H412.722V22H411.831V21.0781H411.722C411.654 21.1875 411.558 21.3255 411.433 21.4922C411.308 21.6562 411.129 21.8034 410.897 21.9336C410.666 22.0612 410.357 22.125 409.972 22.125ZM410.097 21.2969C410.466 21.2969 410.779 21.2005 411.034 21.0078C411.289 20.8125 411.483 20.543 411.616 20.1992C411.749 19.8529 411.815 19.4531 411.815 19C411.815 18.5521 411.75 18.1602 411.62 17.8242C411.49 17.4857 411.297 17.2227 411.042 17.0352C410.787 16.8451 410.472 16.75 410.097 16.75C409.706 16.75 409.381 16.8503 409.12 17.0508C408.862 17.2487 408.668 17.5182 408.538 17.8594C408.41 18.1979 408.347 18.5781 408.347 19C408.347 19.4271 408.412 19.8151 408.542 20.1641C408.675 20.5104 408.87 20.7865 409.128 20.9922C409.388 21.1953 409.711 21.2969 410.097 21.2969ZM417.054 22.125C416.476 22.125 415.977 21.9974 415.558 21.7422C415.141 21.4844 414.819 21.125 414.593 20.6641C414.369 20.2005 414.257 19.6615 414.257 19.0469C414.257 18.4323 414.369 17.8906 414.593 17.4219C414.819 16.9505 415.134 16.5833 415.538 16.3203C415.944 16.0547 416.418 15.9219 416.96 15.9219C417.272 15.9219 417.581 15.974 417.886 16.0781C418.19 16.1823 418.468 16.3516 418.718 16.5859C418.968 16.8177 419.167 17.125 419.315 17.5078C419.464 17.8906 419.538 18.362 419.538 18.9219V19.3125H414.913V18.5156H418.601C418.601 18.1771 418.533 17.875 418.397 17.6094C418.265 17.3437 418.075 17.1341 417.827 16.9805C417.582 16.8268 417.293 16.75 416.96 16.75C416.593 16.75 416.275 16.8411 416.007 17.0234C415.741 17.2031 415.537 17.4375 415.394 17.7266C415.25 18.0156 415.179 18.3255 415.179 18.6562V19.1875C415.179 19.6406 415.257 20.0247 415.413 20.3398C415.572 20.6523 415.792 20.8906 416.073 21.0547C416.354 21.2161 416.681 21.2969 417.054 21.2969C417.296 21.2969 417.515 21.263 417.71 21.1953C417.908 21.125 418.078 21.0208 418.222 20.8828C418.365 20.7422 418.476 20.5677 418.554 20.3594L419.444 20.6094C419.351 20.9115 419.193 21.1771 418.972 21.4062C418.75 21.6328 418.477 21.8099 418.151 21.9375C417.826 22.0625 417.46 22.125 417.054 22.125ZM425.19 17.3437L424.362 17.5781C424.31 17.4401 424.233 17.306 424.132 17.1758C424.033 17.043 423.897 16.9336 423.726 16.8477C423.554 16.7617 423.334 16.7187 423.065 16.7187C422.698 16.7187 422.392 16.8034 422.147 16.9727C421.905 17.1393 421.784 17.3516 421.784 17.6094C421.784 17.8385 421.868 18.0195 422.034 18.1523C422.201 18.2852 422.461 18.3958 422.815 18.4844L423.706 18.7031C424.243 18.8333 424.642 19.0326 424.905 19.3008C425.168 19.5664 425.3 19.9089 425.3 20.3281C425.3 20.6719 425.201 20.9792 425.003 21.25C424.808 21.5208 424.534 21.7344 424.183 21.8906C423.831 22.0469 423.422 22.125 422.956 22.125C422.344 22.125 421.838 21.9922 421.437 21.7266C421.035 21.4609 420.782 21.0729 420.675 20.5625L421.55 20.3437C421.633 20.6667 421.791 20.9089 422.022 21.0703C422.257 21.2318 422.563 21.3125 422.94 21.3125C423.37 21.3125 423.711 21.2214 423.964 21.0391C424.219 20.8542 424.347 20.6328 424.347 20.375C424.347 20.1667 424.274 19.9922 424.128 19.8516C423.982 19.7083 423.758 19.6016 423.456 19.5312L422.456 19.2969C421.907 19.1667 421.503 18.9648 421.245 18.6914C420.99 18.4154 420.862 18.0703 420.862 17.6562C420.862 17.3177 420.957 17.0182 421.147 16.7578C421.34 16.4974 421.602 16.293 421.933 16.1445C422.266 15.9961 422.644 15.9219 423.065 15.9219C423.659 15.9219 424.125 16.0521 424.464 16.3125C424.805 16.5729 425.047 16.9167 425.19 17.3437ZM426.688 22V16H427.609V22H426.688ZM427.156 15C426.977 15 426.822 14.9388 426.691 14.8164C426.564 14.694 426.5 14.5469 426.5 14.375C426.5 14.2031 426.564 14.056 426.691 13.9336C426.822 13.8112 426.977 13.75 427.156 13.75C427.336 13.75 427.49 13.8112 427.617 13.9336C427.747 14.056 427.813 14.2031 427.813 14.375C427.813 14.5469 427.747 14.694 427.617 14.8164C427.49 14.9388 427.336 15 427.156 15ZM431.72 24.375C431.274 24.375 430.892 24.3177 430.571 24.2031C430.251 24.0911 429.984 23.9427 429.771 23.7578C429.56 23.5755 429.392 23.3802 429.267 23.1719L430.001 22.6563C430.084 22.7656 430.19 22.8906 430.317 23.0312C430.445 23.1745 430.619 23.2982 430.841 23.4023C431.065 23.5091 431.358 23.5625 431.72 23.5625C432.204 23.5625 432.604 23.4453 432.919 23.2109C433.234 22.9766 433.392 22.6094 433.392 22.1094V20.8906H433.313C433.246 21 433.149 21.1354 433.024 21.2969C432.902 21.4557 432.725 21.5977 432.493 21.7227C432.264 21.8451 431.954 21.9062 431.563 21.9062C431.079 21.9062 430.644 21.7917 430.259 21.5625C429.876 21.3333 429.573 21 429.349 20.5625C429.127 20.125 429.017 19.5937 429.017 18.9687C429.017 18.3542 429.125 17.819 429.341 17.3633C429.557 16.9049 429.858 16.5508 430.243 16.3008C430.629 16.0482 431.074 15.9219 431.579 15.9219C431.97 15.9219 432.28 15.987 432.509 16.1172C432.741 16.2448 432.918 16.3906 433.04 16.5547C433.165 16.7161 433.261 16.849 433.329 16.9531H433.423V16H434.313V22.1719C434.313 22.6875 434.196 23.1068 433.962 23.4297C433.73 23.7552 433.418 23.9935 433.024 24.1445C432.634 24.2982 432.199 24.375 431.72 24.375ZM431.688 21.0781C432.058 21.0781 432.371 20.9935 432.626 20.8242C432.881 20.6549 433.075 20.4115 433.208 20.0938C433.341 19.776 433.407 19.3958 433.407 18.9531C433.407 18.5208 433.342 18.1393 433.212 17.8086C433.082 17.4779 432.889 17.2187 432.634 17.0312C432.379 16.8437 432.063 16.75 431.688 16.75C431.298 16.75 430.972 16.849 430.712 17.0469C430.454 17.2448 430.26 17.5104 430.13 17.8438C430.002 18.1771 429.938 18.5469 429.938 18.9531C429.938 19.3698 430.004 19.7383 430.134 20.0586C430.267 20.3763 430.462 20.6263 430.72 20.8086C430.98 20.9883 431.303 21.0781 431.688 21.0781ZM436.923 18.3906V22H436.001V16H436.892V16.9375H436.97C437.11 16.6328 437.324 16.388 437.61 16.2031C437.897 16.0156 438.267 15.9219 438.72 15.9219C439.126 15.9219 439.481 16.0052 439.786 16.1719C440.091 16.3359 440.328 16.5859 440.497 16.9219C440.666 17.2552 440.751 17.6771 440.751 18.1875V22H439.829V18.25C439.829 17.7786 439.707 17.4115 439.462 17.1484C439.217 16.8828 438.881 16.75 438.454 16.75C438.16 16.75 437.897 16.8138 437.665 16.9414C437.436 17.069 437.255 17.2552 437.122 17.5C436.989 17.7448 436.923 18.0417 436.923 18.3906ZM450.311 22.125L446.295 18.1094C445.975 17.7891 445.761 17.4167 445.654 16.9922C445.55 16.5677 445.551 16.1458 445.658 15.7266C445.765 15.3047 445.977 14.9375 446.295 14.625C446.62 14.3047 446.992 14.0924 447.408 13.9883C447.827 13.8815 448.245 13.8815 448.662 13.9883C449.081 14.0951 449.454 14.3073 449.779 14.625L450.311 15.1406L450.842 14.625C451.17 14.3073 451.542 14.0951 451.959 13.9883C452.376 13.8815 452.792 13.8815 453.209 13.9883C453.628 14.0924 454.001 14.3047 454.326 14.625C454.644 14.9375 454.856 15.3047 454.963 15.7266C455.07 16.1458 455.07 16.5677 454.963 16.9922C454.859 17.4167 454.646 17.7891 454.326 18.1094L450.311 22.125ZM459.995 22V14H464.792V14.8594H460.964V17.5625H464.433V18.4219H460.964V22H459.995ZM466.451 22V14H469.154C469.779 14 470.292 14.1068 470.693 14.3203C471.094 14.5312 471.391 14.8216 471.584 15.1914C471.777 15.5612 471.873 15.9818 471.873 16.4531C471.873 16.9245 471.777 17.3424 471.584 17.707C471.391 18.0716 471.096 18.3581 470.697 18.5664C470.299 18.7721 469.79 18.875 469.17 18.875H466.982V18H469.139C469.566 18 469.91 17.9375 470.17 17.8125C470.433 17.6875 470.623 17.5104 470.74 17.2812C470.86 17.0495 470.92 16.7734 470.92 16.4531C470.92 16.1328 470.86 15.8529 470.74 15.6133C470.62 15.3737 470.429 15.1888 470.166 15.0586C469.903 14.9258 469.555 14.8594 469.123 14.8594H467.42V22H466.451ZM470.217 18.4062L472.186 22H471.061L469.123 18.4062H470.217ZM473.487 22V14H478.315V14.8594H474.456V17.5625H478.065V18.4219H474.456V21.1406H478.378V22H473.487ZM480.062 22V14H484.89V14.8594H481.03V17.5625H484.64V18.4219H481.03V21.1406H484.952V22H480.062ZM494.511 16L492.292 22H491.354L489.136 16H490.136L491.792 20.7812H491.854L493.511 16H494.511ZM498.028 22.125C497.45 22.125 496.951 21.9974 496.532 21.7422C496.116 21.4844 495.794 21.125 495.567 20.6641C495.343 20.2005 495.231 19.6615 495.231 19.0469C495.231 18.4323 495.343 17.8906 495.567 17.4219C495.794 16.9505 496.109 16.5833 496.513 16.3203C496.919 16.0547 497.393 15.9219 497.935 15.9219C498.247 15.9219 498.556 15.974 498.86 16.0781C499.165 16.1823 499.442 16.3516 499.692 16.5859C499.942 16.8177 500.142 17.125 500.29 17.5078C500.438 17.8906 500.513 18.362 500.513 18.9219V19.3125H495.888V18.5156H499.575C499.575 18.1771 499.507 17.875 499.372 17.6094C499.239 17.3437 499.049 17.1341 498.802 16.9805C498.557 16.8268 498.268 16.75 497.935 16.75C497.567 16.75 497.25 16.8411 496.981 17.0234C496.716 17.2031 496.511 17.4375 496.368 17.7266C496.225 18.0156 496.153 18.3255 496.153 18.6562V19.1875C496.153 19.6406 496.231 20.0247 496.388 20.3398C496.547 20.6523 496.767 20.8906 497.048 21.0547C497.329 21.2161 497.656 21.2969 498.028 21.2969C498.271 21.2969 498.489 21.263 498.685 21.1953C498.882 21.125 499.053 21.0208 499.196 20.8828C499.34 20.7422 499.45 20.5677 499.528 20.3594L500.419 20.6094C500.325 20.9115 500.168 21.1771 499.946 21.4062C499.725 21.6328 499.451 21.8099 499.126 21.9375C498.8 22.0625 498.435 22.125 498.028 22.125ZM501.915 22V16H502.806V16.9062H502.868C502.978 16.6094 503.175 16.3685 503.462 16.1836C503.748 15.9987 504.071 15.9062 504.431 15.9062C504.498 15.9062 504.583 15.9076 504.685 15.9102C504.786 15.9128 504.863 15.9167 504.915 15.9219V16.8594C504.884 16.8516 504.812 16.8398 504.7 16.8242C504.591 16.806 504.475 16.7969 504.353 16.7969C504.061 16.7969 503.8 16.8581 503.571 16.9805C503.345 17.1003 503.165 17.2669 503.032 17.4805C502.902 17.6914 502.837 17.9323 502.837 18.2031V22H501.915ZM510.258 17.3437L509.43 17.5781C509.378 17.4401 509.301 17.306 509.199 17.1758C509.1 17.043 508.965 16.9336 508.793 16.8477C508.621 16.7617 508.401 16.7187 508.133 16.7187C507.766 16.7187 507.46 16.8034 507.215 16.9727C506.973 17.1393 506.852 17.3516 506.852 17.6094C506.852 17.8385 506.935 18.0195 507.102 18.1523C507.268 18.2852 507.529 18.3958 507.883 18.4844L508.773 18.7031C509.31 18.8333 509.71 19.0326 509.973 19.3008C510.236 19.5664 510.367 19.9089 510.367 20.3281C510.367 20.6719 510.268 20.9792 510.07 21.25C509.875 21.5208 509.602 21.7344 509.25 21.8906C508.898 22.0469 508.49 22.125 508.023 22.125C507.411 22.125 506.905 21.9922 506.504 21.7266C506.103 21.4609 505.849 21.0729 505.742 20.5625L506.617 20.3437C506.701 20.6667 506.858 20.9089 507.09 21.0703C507.324 21.2318 507.63 21.3125 508.008 21.3125C508.438 21.3125 508.779 21.2214 509.031 21.0391C509.286 20.8542 509.414 20.6328 509.414 20.375C509.414 20.1667 509.341 19.9922 509.195 19.8516C509.049 19.7083 508.826 19.6016 508.523 19.5312L507.523 19.2969C506.974 19.1667 506.57 18.9648 506.313 18.6914C506.057 18.4154 505.93 18.0703 505.93 17.6562C505.93 17.3177 506.025 17.0182 506.215 16.7578C506.408 16.4974 506.669 16.293 507 16.1445C507.333 15.9961 507.711 15.9219 508.133 15.9219C508.727 15.9219 509.193 16.0521 509.531 16.3125C509.872 16.5729 510.115 16.9167 510.258 17.3437ZM511.755 22V16H512.677V22H511.755ZM512.224 15C512.044 15 511.889 14.9388 511.759 14.8164C511.631 14.694 511.567 14.5469 511.567 14.375C511.567 14.2031 511.631 14.056 511.759 13.9336C511.889 13.8112 512.044 13.75 512.224 13.75C512.403 13.75 512.557 13.8112 512.685 13.9336C512.815 14.056 512.88 14.2031 512.88 14.375C512.88 14.5469 512.815 14.694 512.685 14.8164C512.557 14.9388 512.403 15 512.224 15ZM516.803 22.125C516.261 22.125 515.786 21.9961 515.377 21.7383C514.971 21.4805 514.653 21.1198 514.424 20.6562C514.197 20.1927 514.084 19.651 514.084 19.0312C514.084 18.4062 514.197 17.8607 514.424 17.3945C514.653 16.9284 514.971 16.5664 515.377 16.3086C515.786 16.0508 516.261 15.9219 516.803 15.9219C517.344 15.9219 517.818 16.0508 518.225 16.3086C518.633 16.5664 518.951 16.9284 519.178 17.3945C519.407 17.8607 519.521 18.4062 519.521 19.0312C519.521 19.651 519.407 20.1927 519.178 20.6562C518.951 21.1198 518.633 21.4805 518.225 21.7383C517.818 21.9961 517.344 22.125 516.803 22.125ZM516.803 21.2969C517.214 21.2969 517.553 21.1914 517.818 20.9805C518.084 20.7695 518.281 20.4922 518.408 20.1484C518.536 19.8047 518.6 19.4323 518.6 19.0312C518.6 18.6302 518.536 18.2565 518.408 17.9102C518.281 17.5638 518.084 17.2839 517.818 17.0703C517.553 16.8568 517.214 16.75 516.803 16.75C516.391 16.75 516.053 16.8568 515.787 17.0703C515.521 17.2839 515.325 17.5638 515.197 17.9102C515.07 18.2565 515.006 18.6302 515.006 19.0312C515.006 19.4323 515.07 19.8047 515.197 20.1484C515.325 20.4922 515.521 20.7695 515.787 20.9805C516.053 21.1914 516.391 21.2969 516.803 21.2969ZM521.851 18.3906V22H520.929V16H521.819V16.9375H521.897C522.038 16.6328 522.252 16.388 522.538 16.2031C522.825 16.0156 523.194 15.9219 523.647 15.9219C524.054 15.9219 524.409 16.0052 524.714 16.1719C525.019 16.3359 525.256 16.5859 525.425 16.9219C525.594 17.2552 525.679 17.6771 525.679 18.1875V22H524.757V18.25C524.757 17.7786 524.634 17.4115 524.39 17.1484C524.145 16.8828 523.809 16.75 523.382 16.75C523.088 16.75 522.825 16.8138 522.593 16.9414C522.364 17.069 522.183 17.2552 522.05 17.5C521.917 17.7448 521.851 18.0417 521.851 18.3906ZM533.895 17.5703V18.4297H530.395V17.5703H533.895ZM541.407 14V22H540.438V15.0156H540.392L538.438 16.3125V15.3281L540.438 14H541.407ZM546.364 22.1094C546.036 22.1042 545.708 22.0417 545.38 21.9219C545.052 21.8021 544.752 21.6003 544.481 21.3164C544.211 21.0299 543.993 20.6432 543.829 20.1562C543.665 19.6667 543.583 19.0521 543.583 18.3125C543.583 17.6042 543.649 16.9766 543.782 16.4297C543.915 15.8802 544.108 15.418 544.36 15.043C544.613 14.6654 544.918 14.3789 545.274 14.1836C545.634 13.9883 546.039 13.8906 546.489 13.8906C546.937 13.8906 547.336 13.9805 547.685 14.1602C548.036 14.3372 548.323 14.5846 548.544 14.9023C548.765 15.2201 548.909 15.5859 548.974 16H548.021C547.932 15.6406 547.76 15.3424 547.505 15.1055C547.25 14.8685 546.911 14.75 546.489 14.75C545.869 14.75 545.381 15.0195 545.024 15.5586C544.67 16.0977 544.492 16.8542 544.489 17.8281H544.552C544.698 17.6068 544.871 17.418 545.071 17.2617C545.274 17.1029 545.498 16.9805 545.743 16.8945C545.988 16.8086 546.247 16.7656 546.521 16.7656C546.979 16.7656 547.398 16.8802 547.778 17.1094C548.159 17.3359 548.463 17.6497 548.692 18.0508C548.922 18.4492 549.036 18.9062 549.036 19.4219C549.036 19.9167 548.925 20.3698 548.704 20.7812C548.483 21.1901 548.172 21.5156 547.771 21.7578C547.372 21.9974 546.903 22.1146 546.364 22.1094ZM546.364 21.25C546.692 21.25 546.987 21.168 547.247 21.0039C547.51 20.8398 547.717 20.6198 547.868 20.3437C548.022 20.0677 548.099 19.7604 548.099 19.4219C548.099 19.0911 548.024 18.7904 547.876 18.5195C547.73 18.2461 547.528 18.0286 547.271 17.8672C547.015 17.7057 546.724 17.625 546.396 17.625C546.148 17.625 545.918 17.6745 545.704 17.7734C545.491 17.8698 545.303 18.0026 545.142 18.1719C544.983 18.3411 544.858 18.5352 544.767 18.7539C544.675 18.9701 544.63 19.1979 544.63 19.4375C544.63 19.7552 544.704 20.0521 544.853 20.3281C545.004 20.6042 545.209 20.8268 545.47 20.9961C545.733 21.1654 546.031 21.25 546.364 21.25ZM553.416 13.625L550.838 23.2031H549.994L552.572 13.625H553.416ZM557.103 22.1094C556.514 22.1094 556.013 21.9492 555.599 21.6289C555.185 21.306 554.868 20.8385 554.649 20.2266C554.431 19.612 554.321 18.8698 554.321 18C554.321 17.1354 554.431 16.3971 554.649 15.7852C554.871 15.1706 555.188 14.7018 555.603 14.3789C556.019 14.0534 556.519 13.8906 557.103 13.8906C557.686 13.8906 558.185 14.0534 558.599 14.3789C559.015 14.7018 559.333 15.1706 559.552 15.7852C559.773 16.3971 559.884 17.1354 559.884 18C559.884 18.8698 559.774 19.612 559.556 20.2266C559.337 20.8385 559.021 21.306 558.606 21.6289C558.192 21.9492 557.691 22.1094 557.103 22.1094ZM557.103 21.25C557.686 21.25 558.139 20.9687 558.462 20.4062C558.785 19.8437 558.946 19.0417 558.946 18C558.946 17.3073 558.872 16.7174 558.724 16.2305C558.578 15.7435 558.367 15.3724 558.091 15.1172C557.817 14.862 557.488 14.7344 557.103 14.7344C556.524 14.7344 556.073 15.0195 555.747 15.5898C555.422 16.1576 555.259 16.9609 555.259 18C555.259 18.6927 555.332 19.2812 555.478 19.7656C555.623 20.25 555.833 20.6185 556.106 20.8711C556.382 21.1237 556.715 21.25 557.103 21.25ZM561.403 22L564.981 14.9219V14.8594H560.856V14H565.981V14.9062L562.419 22H561.403ZM570.281 13.625L567.703 23.2031H566.859L569.438 13.625H570.281ZM571.358 22V21.2969L573.999 18.4062C574.309 18.0677 574.564 17.7734 574.765 17.5234C574.965 17.2708 575.114 17.0339 575.21 16.8125C575.309 16.5885 575.358 16.3542 575.358 16.1094C575.358 15.8281 575.291 15.5846 575.155 15.3789C575.022 15.1732 574.84 15.0143 574.608 14.9023C574.377 14.7904 574.116 14.7344 573.827 14.7344C573.52 14.7344 573.252 14.7982 573.022 14.9258C572.796 15.0508 572.62 15.2266 572.495 15.4531C572.373 15.6797 572.312 15.9453 572.312 16.25H571.39C571.39 15.7812 571.498 15.3698 571.714 15.0156C571.93 14.6615 572.224 14.3854 572.597 14.1875C572.972 13.9896 573.392 13.8906 573.858 13.8906C574.327 13.8906 574.743 13.9896 575.104 14.1875C575.466 14.3854 575.75 14.6523 575.956 14.9883C576.162 15.3242 576.265 15.6979 576.265 16.1094C576.265 16.4036 576.211 16.6914 576.104 16.9727C576 17.2513 575.818 17.5625 575.558 17.9062C575.3 18.2474 574.942 18.6641 574.483 19.1562L572.687 21.0781V21.1406H576.405V22H571.358ZM580.628 22.1094C580.039 22.1094 579.538 21.9492 579.124 21.6289C578.71 21.306 578.394 20.8385 578.175 20.2266C577.956 19.612 577.847 18.8698 577.847 18C577.847 17.1354 577.956 16.3971 578.175 15.7852C578.396 15.1706 578.714 14.7018 579.128 14.3789C579.545 14.0534 580.045 13.8906 580.628 13.8906C581.211 13.8906 581.71 14.0534 582.124 14.3789C582.541 14.7018 582.858 15.1706 583.077 15.7852C583.299 16.3971 583.409 17.1354 583.409 18C583.409 18.8698 583.3 19.612 583.081 20.2266C582.862 20.8385 582.546 21.306 582.132 21.6289C581.718 21.9492 581.216 22.1094 580.628 22.1094ZM580.628 21.25C581.211 21.25 581.664 20.9687 581.987 20.4062C582.31 19.8437 582.472 19.0417 582.472 18C582.472 17.3073 582.397 16.7174 582.249 16.2305C582.103 15.7435 581.892 15.3724 581.616 15.1172C581.343 14.862 581.013 14.7344 580.628 14.7344C580.05 14.7344 579.598 15.0195 579.272 15.5898C578.947 16.1576 578.784 16.9609 578.784 18C578.784 18.6927 578.857 19.2812 579.003 19.7656C579.149 20.25 579.358 20.6185 579.632 20.8711C579.908 21.1237 580.24 21.25 580.628 21.25ZM584.894 22V21.2969L587.534 18.4062C587.844 18.0677 588.099 17.7734 588.3 17.5234C588.5 17.2708 588.649 17.0339 588.745 16.8125C588.844 16.5885 588.894 16.3542 588.894 16.1094C588.894 15.8281 588.826 15.5846 588.69 15.3789C588.558 15.1732 588.375 15.0143 588.144 14.9023C587.912 14.7904 587.651 14.7344 587.362 14.7344C587.055 14.7344 586.787 14.7982 586.558 14.9258C586.331 15.0508 586.155 15.2266 586.03 15.4531C585.908 15.6797 585.847 15.9453 585.847 16.25H584.925C584.925 15.7812 585.033 15.3698 585.249 15.0156C585.465 14.6615 585.759 14.3854 586.132 14.1875C586.507 13.9896 586.927 13.8906 587.394 13.8906C587.862 13.8906 588.278 13.9896 588.64 14.1875C589.002 14.3854 589.285 14.6523 589.491 14.9883C589.697 15.3242 589.8 15.6979 589.8 16.1094C589.8 16.4036 589.746 16.6914 589.64 16.9727C589.535 17.2513 589.353 17.5625 589.093 17.9062C588.835 18.2474 588.477 18.6641 588.019 19.1562L586.222 21.0781V21.1406H589.94V22H584.894ZM594.054 22.1094C593.595 22.1094 593.183 22.0182 592.815 21.8359C592.448 21.6536 592.154 21.4036 591.933 21.0859C591.711 20.7682 591.59 20.4062 591.569 20H592.507C592.543 20.362 592.707 20.6615 592.999 20.8984C593.293 21.1328 593.645 21.25 594.054 21.25C594.382 21.25 594.674 21.1732 594.929 21.0195C595.187 20.8659 595.388 20.6549 595.534 20.3867C595.683 20.1159 595.757 19.8099 595.757 19.4687C595.757 19.1198 595.68 18.8086 595.526 18.5352C595.375 18.2591 595.167 18.0417 594.901 17.8828C594.636 17.724 594.332 17.6432 593.991 17.6406C593.746 17.638 593.495 17.6758 593.237 17.7539C592.979 17.8294 592.767 17.9271 592.601 18.0469L591.694 17.9375L592.179 14H596.335V14.8594H592.991L592.71 17.2187H592.757C592.921 17.0885 593.127 16.9805 593.374 16.8945C593.621 16.8086 593.879 16.7656 594.147 16.7656C594.637 16.7656 595.073 16.8828 595.456 17.1172C595.841 17.349 596.144 17.6667 596.362 18.0703C596.584 18.474 596.694 18.9349 596.694 19.4531C596.694 19.9635 596.58 20.4193 596.351 20.8203C596.124 21.2187 595.812 21.5339 595.413 21.7656C595.015 21.9948 594.562 22.1094 594.054 22.1094ZM599.336 20.9062L599.273 21.3281C599.229 21.625 599.161 21.9427 599.07 22.2813C598.982 22.6198 598.889 22.9388 598.793 23.2383C598.697 23.5378 598.617 23.776 598.555 23.9531H597.852C597.885 23.7865 597.93 23.5664 597.984 23.293C598.039 23.0195 598.094 22.7135 598.148 22.375C598.206 22.0391 598.253 21.6953 598.289 21.3437L598.336 20.9062H599.336ZM606.669 13.8906C606.997 13.8932 607.325 13.9557 607.653 14.0781C607.981 14.2005 608.281 14.4036 608.552 14.6875C608.823 14.9687 609.04 15.3529 609.204 15.8398C609.368 16.3268 609.45 16.9375 609.45 17.6719C609.45 18.3828 609.382 19.0143 609.247 19.5664C609.114 20.1159 608.922 20.5794 608.669 20.957C608.419 21.3346 608.114 21.6211 607.755 21.8164C607.398 22.0117 606.994 22.1094 606.544 22.1094C606.096 22.1094 605.696 22.0208 605.345 21.8437C604.996 21.6641 604.709 21.4154 604.485 21.0977C604.264 20.7773 604.122 20.4062 604.06 19.9844H605.013C605.099 20.3516 605.269 20.6549 605.524 20.8945C605.782 21.1315 606.122 21.25 606.544 21.25C607.161 21.25 607.648 20.9805 608.005 20.4414C608.364 19.9023 608.544 19.1406 608.544 18.1562H608.481C608.336 18.375 608.162 18.5638 607.962 18.7227C607.761 18.8815 607.539 19.0039 607.294 19.0898C607.049 19.1758 606.789 19.2188 606.513 19.2188C606.054 19.2188 605.634 19.1055 605.251 18.8789C604.871 18.6497 604.566 18.3359 604.337 17.9375C604.11 17.5365 603.997 17.0781 603.997 16.5625C603.997 16.0729 604.106 15.625 604.325 15.2187C604.547 14.8099 604.856 14.4844 605.255 14.2422C605.656 14 606.127 13.8828 606.669 13.8906ZM606.669 14.75C606.341 14.75 606.045 14.832 605.782 14.9961C605.522 15.1576 605.315 15.3763 605.161 15.6523C605.01 15.9258 604.935 16.2292 604.935 16.5625C604.935 16.8958 605.007 17.1992 605.153 17.4727C605.302 17.7435 605.504 17.9596 605.759 18.1211C606.017 18.2799 606.31 18.3594 606.638 18.3594C606.885 18.3594 607.116 18.3112 607.329 18.2148C607.543 18.1159 607.729 17.9818 607.888 17.8125C608.049 17.6406 608.175 17.4466 608.267 17.2305C608.358 17.0117 608.403 16.7839 608.403 16.5469C608.403 16.2344 608.328 15.9414 608.177 15.668C608.028 15.3945 607.823 15.1732 607.56 15.0039C607.299 14.8346 607.002 14.75 606.669 14.75ZM611.674 20.9766C611.481 20.9766 611.316 20.9076 611.178 20.7695C611.04 20.6315 610.971 20.4661 610.971 20.2734C610.971 20.0807 611.04 19.9154 611.178 19.7773C611.316 19.6393 611.481 19.5703 611.674 19.5703C611.867 19.5703 612.032 19.6393 612.17 19.7773C612.308 19.9154 612.377 20.0807 612.377 20.2734C612.377 20.401 612.344 20.5182 612.279 20.625C612.217 20.7318 612.132 20.8177 612.025 20.8828C611.921 20.9453 611.804 20.9766 611.674 20.9766ZM611.674 16.9297C611.481 16.9297 611.316 16.8607 611.178 16.7227C611.04 16.5846 610.971 16.4193 610.971 16.2266C610.971 16.0339 611.04 15.8685 611.178 15.7305C611.316 15.5924 611.481 15.5234 611.674 15.5234C611.867 15.5234 612.032 15.5924 612.17 15.7305C612.308 15.8685 612.377 16.0339 612.377 16.2266C612.377 16.3542 612.344 16.4714 612.279 16.5781C612.217 16.6849 612.132 16.7708 612.025 16.8359C611.921 16.8984 611.804 16.9297 611.674 16.9297ZM616.719 22.1094C616.203 22.1094 615.743 22.0208 615.34 21.8437C614.939 21.6667 614.62 21.4206 614.383 21.1055C614.148 20.7878 614.021 20.4193 614 20H614.984C615.005 20.2578 615.094 20.4805 615.25 20.668C615.406 20.8529 615.611 20.9961 615.863 21.0977C616.116 21.1992 616.396 21.25 616.703 21.25C617.047 21.25 617.352 21.1901 617.617 21.0703C617.883 20.9505 618.091 20.7839 618.242 20.5703C618.393 20.3568 618.469 20.1094 618.469 19.8281C618.469 19.5339 618.396 19.2747 618.25 19.0508C618.104 18.8242 617.891 18.6471 617.609 18.5195C617.328 18.3919 616.984 18.3281 616.578 18.3281H615.938V17.4687H616.578C616.896 17.4687 617.174 17.4115 617.414 17.2969C617.656 17.1823 617.845 17.0208 617.98 16.8125C618.118 16.6042 618.188 16.3594 618.188 16.0781C618.188 15.8073 618.128 15.5716 618.008 15.3711C617.888 15.1706 617.719 15.0143 617.5 14.9023C617.284 14.7904 617.029 14.7344 616.734 14.7344C616.458 14.7344 616.198 14.7852 615.953 14.8867C615.711 14.9857 615.513 15.1302 615.359 15.3203C615.206 15.5078 615.122 15.7344 615.109 16H614.172C614.188 15.5807 614.314 15.2135 614.551 14.8984C614.788 14.5807 615.098 14.3333 615.48 14.1562C615.866 13.9792 616.289 13.8906 616.75 13.8906C617.245 13.8906 617.669 13.9909 618.023 14.1914C618.378 14.3893 618.65 14.651 618.84 14.9766C619.03 15.3021 619.125 15.6536 619.125 16.0313C619.125 16.4818 619.007 16.8659 618.77 17.1836C618.535 17.5013 618.216 17.7214 617.813 17.8438V17.9062C618.318 17.9896 618.712 18.2044 618.996 18.5508C619.28 18.8945 619.422 19.3203 619.422 19.8281C619.422 20.263 619.303 20.6536 619.066 21C618.832 21.3437 618.512 21.6146 618.105 21.8125C617.699 22.0104 617.237 22.1094 616.719 22.1094ZM623.832 14V22H622.863V15.0156H622.816L620.863 16.3125V15.3281L622.863 14H623.832ZM626.82 20.9766C626.628 20.9766 626.462 20.9076 626.324 20.7695C626.186 20.6315 626.117 20.4661 626.117 20.2734C626.117 20.0807 626.186 19.9154 626.324 19.7773C626.462 19.6393 626.628 19.5703 626.82 19.5703C627.013 19.5703 627.178 19.6393 627.316 19.7773C627.454 19.9154 627.523 20.0807 627.523 20.2734C627.523 20.401 627.491 20.5182 627.426 20.625C627.363 20.7318 627.279 20.8177 627.172 20.8828C627.068 20.9453 626.951 20.9766 626.82 20.9766ZM626.82 16.9297C626.628 16.9297 626.462 16.8607 626.324 16.7227C626.186 16.5846 626.117 16.4193 626.117 16.2266C626.117 16.0339 626.186 15.8685 626.324 15.7305C626.462 15.5924 626.628 15.5234 626.82 15.5234C627.013 15.5234 627.178 15.5924 627.316 15.7305C627.454 15.8685 627.523 16.0339 627.523 16.2266C627.523 16.3542 627.491 16.4714 627.426 16.5781C627.363 16.6849 627.279 16.7708 627.172 16.8359C627.068 16.8984 626.951 16.9297 626.82 16.9297ZM631.662 22.1094C631.204 22.1094 630.791 22.0182 630.424 21.8359C630.057 21.6536 629.762 21.4036 629.541 21.0859C629.32 20.7682 629.199 20.4062 629.178 20H630.115C630.152 20.362 630.316 20.6615 630.607 20.8984C630.902 21.1328 631.253 21.25 631.662 21.25C631.99 21.25 632.282 21.1732 632.537 21.0195C632.795 20.8659 632.997 20.6549 633.143 20.3867C633.291 20.1159 633.365 19.8099 633.365 19.4687C633.365 19.1198 633.288 18.8086 633.135 18.5352C632.984 18.2591 632.775 18.0417 632.51 17.8828C632.244 17.724 631.941 17.6432 631.6 17.6406C631.355 17.638 631.104 17.6758 630.846 17.7539C630.588 17.8294 630.376 17.9271 630.209 18.0469L629.303 17.9375L629.787 14H633.943V14.8594H630.6L630.318 17.2187H630.365C630.529 17.0885 630.735 16.9805 630.982 16.8945C631.23 16.8086 631.488 16.7656 631.756 16.7656C632.245 16.7656 632.682 16.8828 633.064 17.1172C633.45 17.349 633.752 17.6667 633.971 18.0703C634.192 18.474 634.303 18.9349 634.303 19.4531C634.303 19.9635 634.188 20.4193 633.959 20.8203C633.732 21.2187 633.42 21.5339 633.021 21.7656C632.623 21.9948 632.17 22.1094 631.662 22.1094ZM638.667 14V22H637.698V15.0156H637.651L635.698 16.3125V15.3281L637.698 14H638.667ZM649.671 16.5C649.585 16.237 649.472 16.0013 649.331 15.793C649.193 15.582 649.028 15.4023 648.835 15.2539C648.645 15.1055 648.429 14.9922 648.187 14.9141C647.944 14.8359 647.679 14.7969 647.39 14.7969C646.916 14.7969 646.485 14.9193 646.097 15.1641C645.709 15.4089 645.4 15.7695 645.171 16.2461C644.942 16.7227 644.827 17.3073 644.827 18C644.827 18.6927 644.943 19.2773 645.175 19.7539C645.407 20.2305 645.72 20.5911 646.116 20.8359C646.512 21.0807 646.957 21.2031 647.452 21.2031C647.91 21.2031 648.314 21.1055 648.663 20.9102C649.015 20.7122 649.288 20.4336 649.483 20.0742C649.681 19.7122 649.78 19.2865 649.78 18.7969L650.077 18.8594H647.671V18H650.718V18.8594C650.718 19.5182 650.577 20.0911 650.296 20.5781C650.017 21.0651 649.632 21.4427 649.14 21.7109C648.65 21.9766 648.088 22.1094 647.452 22.1094C646.744 22.1094 646.121 21.9427 645.585 21.6094C645.051 21.276 644.634 20.8021 644.335 20.1875C644.038 19.5729 643.89 18.8437 643.89 18C643.89 17.3672 643.974 16.7982 644.144 16.293C644.315 15.7852 644.558 15.3529 644.87 14.9961C645.183 14.6393 645.552 14.3659 645.979 14.1758C646.407 13.9857 646.877 13.8906 647.39 13.8906C647.812 13.8906 648.205 13.9544 648.569 14.082C648.937 14.207 649.263 14.3854 649.55 14.6172C649.839 14.8464 650.08 15.1211 650.272 15.4414C650.465 15.7591 650.598 16.112 650.671 16.5H649.671ZM652.377 14H653.533L656.252 20.6406H656.346L659.064 14H660.221V22H659.314V15.9219H659.236L656.736 22H655.861L653.361 15.9219H653.283V22H652.377V14ZM661.726 14.8594V14H667.726V14.8594H665.21V22H664.241V14.8594H661.726ZM671.717 17.5703V18.4297H668.217V17.5703H671.717ZM675.979 22.1094C675.651 22.1042 675.323 22.0417 674.995 21.9219C674.667 21.8021 674.368 21.6003 674.097 21.3164C673.826 21.0299 673.608 20.6432 673.444 20.1562C673.28 19.6667 673.198 19.0521 673.198 18.3125C673.198 17.6042 673.265 16.9766 673.397 16.4297C673.53 15.8802 673.723 15.418 673.976 15.043C674.228 14.6654 674.533 14.3789 674.89 14.1836C675.249 13.9883 675.654 13.8906 676.104 13.8906C676.552 13.8906 676.951 13.9805 677.3 14.1602C677.651 14.3372 677.938 14.5846 678.159 14.9023C678.381 15.2201 678.524 15.5859 678.589 16H677.636C677.547 15.6406 677.375 15.3424 677.12 15.1055C676.865 14.8685 676.526 14.75 676.104 14.75C675.485 14.75 674.996 15.0195 674.64 15.5586C674.285 16.0977 674.107 16.8542 674.104 17.8281H674.167C674.313 17.6068 674.486 17.418 674.687 17.2617C674.89 17.1029 675.114 16.9805 675.358 16.8945C675.603 16.8086 675.862 16.7656 676.136 16.7656C676.594 16.7656 677.013 16.8802 677.394 17.1094C677.774 17.3359 678.078 17.6497 678.308 18.0508C678.537 18.4492 678.651 18.9062 678.651 19.4219C678.651 19.9167 678.541 20.3698 678.319 20.7812C678.098 21.1901 677.787 21.5156 677.386 21.7578C676.987 21.9974 676.519 22.1146 675.979 22.1094ZM675.979 21.25C676.308 21.25 676.602 21.168 676.862 21.0039C677.125 20.8398 677.332 20.6198 677.483 20.3437C677.637 20.0677 677.714 19.7604 677.714 19.4219C677.714 19.0911 677.64 18.7904 677.491 18.5195C677.345 18.2461 677.144 18.0286 676.886 17.8672C676.631 17.7057 676.339 17.625 676.011 17.625C675.763 17.625 675.533 17.6745 675.319 17.7734C675.106 17.8698 674.918 18.0026 674.757 18.1719C674.598 18.3411 674.473 18.5352 674.382 18.7539C674.291 18.9701 674.245 19.1979 674.245 19.4375C674.245 19.7552 674.319 20.0521 674.468 20.3281C674.619 20.6042 674.825 20.8268 675.085 20.9961C675.348 21.1654 675.646 21.25 675.979 21.25Z" fill="white"/>
</svg>
