<svg width="883" height="781" viewBox="0 0 883 781" fill="none" xmlns="http://www.w3.org/2000/svg">
<rect width="883" height="781" fill="#1E1E1E"/>
<g filter="url(#filter0_d_126_2514)">
<circle cx="389.279" cy="272.698" r="48.6394" fill="#99FF33"/>
</g>
<g filter="url(#filter1_d_126_2514)">
<path d="M448.341 242.125L435.139 224.059H555.348C570.356 230.173 567.16 242.356 563.686 247.683L545.62 267.139L563.686 295.628C571.468 312.86 554.884 324.58 545.62 328.286V310.915C553.958 299.797 533.112 275.477 529.638 267.139C526.859 260.469 539.134 247.683 545.62 242.125H448.341Z" fill="#99FF33"/>
</g>
<path d="M545.526 370.943V311.186L531.629 319.524C530.934 334.811 529.961 366.496 531.629 370.943C533.296 375.391 526.765 383.451 523.291 386.924H475.346C465.896 384.145 458.438 396.884 455.89 403.601L446.857 448.071L351.663 401.516C352.126 397.81 354.303 386.508 359.306 370.943C364.309 355.379 354.442 342.223 348.883 337.59C316.086 310.907 309.277 271.348 309.972 254.903C311.593 218.076 335.681 144.561 419.063 145.117C502.445 145.673 523.291 197.231 523.291 222.941H540.662C535.797 127.746 450.331 118.018 396.133 126.357C341.935 134.695 301.634 183.334 293.296 245.871C284.957 308.407 319.005 333.422 334.292 347.319C346.521 358.436 345.873 367.701 344.02 370.943L334.292 409.855L459.365 467.527L475.346 403.601H523.291C542.746 399.71 546.221 380.208 545.526 370.943Z" fill="#BB33FF" stroke="#BB33FF"/>
<g filter="url(#filter2_d_126_2514)">
<path d="M424.549 303.271L409.314 314.097L464.157 354.69H506.813C519 348.737 511.891 342.287 506.813 339.806H468.727L424.549 303.271Z" fill="#99FF33"/>
</g>
<circle cx="388.584" cy="272.003" r="31.2682" fill="#99FF33"/>
<path d="M211.184 561C203.856 561 198.432 559.256 194.912 555.768C191.424 552.248 189.68 546.824 189.68 539.496V517.416C189.68 510.024 191.424 504.584 194.912 501.096C198.4 497.576 203.792 495.848 211.088 495.912H222.704C228.72 495.912 233.312 497.16 236.48 499.656C239.648 502.12 241.488 506.024 242 511.368C242.192 512.712 241.936 513.736 241.232 514.44C240.528 515.144 239.504 515.496 238.16 515.496C235.728 515.496 234.32 514.152 233.936 511.464C233.616 508.52 232.592 506.536 230.864 505.512C229.168 504.488 226.448 503.976 222.704 503.976H211.088C207.696 503.944 205.024 504.328 203.072 505.128C201.152 505.928 199.776 507.32 198.944 509.304C198.144 511.256 197.744 513.96 197.744 517.416V539.496C197.744 542.92 198.144 545.608 198.944 547.56C199.776 549.512 201.168 550.904 203.12 551.736C205.072 552.536 207.76 552.936 211.184 552.936H222.704C226.448 552.936 229.168 552.424 230.864 551.4C232.592 550.344 233.616 548.36 233.936 545.448C234.32 542.76 235.728 541.416 238.16 541.416C239.504 541.416 240.528 541.768 241.232 542.472C241.936 543.176 242.192 544.2 242 545.544C241.488 550.92 239.648 554.84 236.48 557.304C233.312 559.768 228.72 561 222.704 561H211.184ZM271.496 561C265.128 561 260.392 559.464 257.288 556.392C254.216 553.32 252.68 548.616 252.68 542.28V531.144C252.68 524.712 254.216 519.976 257.288 516.936C260.392 513.864 265.128 512.328 271.496 512.328H279.368C285.768 512.328 290.504 513.864 293.576 516.936C296.648 520.008 298.184 524.744 298.184 531.144V542.184C298.184 548.552 296.648 553.288 293.576 556.392C290.504 559.464 285.768 561 279.368 561H271.496ZM260.744 542.28C260.744 546.408 261.496 549.224 263 550.728C264.504 552.2 267.336 552.936 271.496 552.936H279.368C283.56 552.936 286.392 552.184 287.864 550.68C289.368 549.176 290.12 546.344 290.12 542.184V531.144C290.12 526.952 289.368 524.12 287.864 522.648C286.392 521.144 283.56 520.392 279.368 520.392H271.496C268.712 520.392 266.536 520.712 264.968 521.352C263.432 521.96 262.344 523.048 261.704 524.616C261.064 526.152 260.744 528.328 260.744 531.144V542.28ZM330.804 561C325.428 561 321.428 559.688 318.804 557.064C316.18 554.44 314.868 550.44 314.868 545.064C314.868 539.688 316.164 535.688 318.756 533.064C321.38 530.44 325.396 529.128 330.804 529.128H351.108C350.916 525.768 350.036 523.48 348.468 522.264C346.9 521.016 344.212 520.392 340.404 520.392H334.836C331.636 520.392 329.252 520.616 327.684 521.064C326.116 521.48 325.012 522.248 324.372 523.368C323.796 524.712 323.204 525.64 322.596 526.152C321.988 526.664 321.076 526.92 319.86 526.92C318.516 526.92 317.46 526.552 316.692 525.816C315.924 525.048 315.7 524.04 316.02 522.792C316.98 519.176 318.98 516.536 322.02 514.872C325.092 513.176 329.364 512.328 334.836 512.328H340.404C346.804 512.328 351.54 513.864 354.612 516.936C357.684 520.008 359.22 524.744 359.22 531.144V556.968C359.22 559.656 357.876 561 355.188 561C352.5 561 351.156 559.656 351.156 556.968V554.808C347.732 558.936 342.74 561 336.18 561H330.804ZM330.804 552.936H336.18C338.548 552.936 340.772 552.728 342.852 552.312C344.932 551.864 346.708 551.064 348.18 549.912C349.684 548.76 350.676 547.112 351.156 544.968V537.192H330.804C327.636 537.192 325.524 537.72 324.468 538.776C323.444 539.832 322.932 541.928 322.932 545.064C322.932 548.232 323.444 550.344 324.468 551.4C325.524 552.424 327.636 552.936 330.804 552.936ZM394.777 561C388.409 561 383.673 559.464 380.569 556.392C377.497 553.288 375.961 548.552 375.961 542.184V531.048C375.961 524.648 377.481 519.912 380.521 516.84C383.593 513.768 388.345 512.264 394.777 512.328H402.649C407.417 512.328 411.161 513.128 413.881 514.728C416.633 516.328 418.393 518.792 419.161 522.12C419.449 523.464 419.209 524.504 418.441 525.24C417.705 525.976 416.633 526.344 415.225 526.344C413.977 526.344 413.065 526.024 412.489 525.384C411.913 524.744 411.385 523.848 410.905 522.696C410.425 521.832 409.545 521.24 408.265 520.92C406.985 520.568 405.113 520.392 402.649 520.392H394.777C390.649 520.328 387.817 521.048 386.281 522.552C384.777 524.024 384.025 526.856 384.025 531.048V542.184C384.025 546.344 384.777 549.176 386.281 550.68C387.817 552.184 390.649 552.936 394.777 552.936H402.649C405.113 552.936 406.985 552.776 408.265 552.456C409.545 552.104 410.425 551.496 410.905 550.632C411.385 549.416 411.913 548.504 412.489 547.896C413.097 547.288 414.041 546.984 415.321 546.984C416.665 546.984 417.705 547.352 418.441 548.088C419.209 548.824 419.449 549.864 419.161 551.208C418.393 554.504 416.633 556.968 413.881 558.6C411.161 560.2 407.417 561 402.649 561H394.777ZM439.954 561C437.266 561 435.922 559.656 435.922 556.968V497.448C435.922 494.76 437.266 493.416 439.954 493.416C442.642 493.416 443.986 494.76 443.986 497.448V517.944C447.378 514.2 452.37 512.328 458.962 512.328H461.65C468.05 512.328 472.786 513.864 475.858 516.936C478.93 520.008 480.466 524.744 480.466 531.144V556.968C480.466 559.656 479.122 561 476.434 561C473.746 561 472.402 559.656 472.402 556.968V531.144C472.402 526.952 471.634 524.12 470.098 522.648C468.594 521.144 465.778 520.392 461.65 520.392H458.962C455.122 520.392 451.778 520.84 448.93 521.736C446.082 522.6 444.434 523.976 443.986 525.864V556.968C443.986 559.656 442.642 561 439.954 561Z" fill="#99FF33"/>
<path d="M518.684 561C511.356 561 505.932 559.256 502.412 555.768C498.924 552.248 497.18 546.824 497.18 539.496V517.416C497.18 510.024 498.924 504.584 502.412 501.096C505.9 497.576 511.292 495.848 518.588 495.912H530.204C536.22 495.912 540.812 497.16 543.98 499.656C547.148 502.12 548.988 506.024 549.5 511.368C549.692 512.712 549.436 513.736 548.732 514.44C548.028 515.144 547.004 515.496 545.66 515.496C543.228 515.496 541.82 514.152 541.436 511.464C541.116 508.52 540.092 506.536 538.364 505.512C536.668 504.488 533.948 503.976 530.204 503.976H518.588C515.196 503.944 512.524 504.328 510.572 505.128C508.652 505.928 507.276 507.32 506.444 509.304C505.644 511.256 505.244 513.96 505.244 517.416V539.496C505.244 542.92 505.644 545.608 506.444 547.56C507.276 549.512 508.668 550.904 510.62 551.736C512.572 552.536 515.26 552.936 518.684 552.936H530.204C533.18 552.936 535.5 552.616 537.164 551.976C538.86 551.304 540.044 550.136 540.716 548.472C541.388 546.808 541.724 544.456 541.724 541.416V536.904L534.236 536.808C531.548 536.808 530.204 535.464 530.204 532.776C530.204 530.088 531.548 528.744 534.236 528.744L545.756 528.84C548.444 528.84 549.788 530.184 549.788 532.872V541.416C549.788 548.232 548.204 553.208 545.036 556.344C541.868 559.448 536.924 561 530.204 561H518.684ZM585.715 561C578.387 561 572.963 559.256 569.443 555.768C565.955 552.248 564.211 546.824 564.211 539.496V517.416C564.211 510.024 565.955 504.584 569.443 501.096C572.931 497.576 578.323 495.848 585.619 495.912H597.235C603.251 495.912 607.843 497.16 611.011 499.656C614.179 502.12 616.019 506.024 616.531 511.368C616.723 512.712 616.467 513.736 615.763 514.44C615.059 515.144 614.035 515.496 612.691 515.496C610.259 515.496 608.851 514.152 608.467 511.464C608.147 508.52 607.123 506.536 605.395 505.512C603.699 504.488 600.979 503.976 597.235 503.976H585.619C582.227 503.944 579.555 504.328 577.603 505.128C575.683 505.928 574.307 507.32 573.475 509.304C572.675 511.256 572.275 513.96 572.275 517.416V539.496C572.275 542.92 572.675 545.608 573.475 547.56C574.307 549.512 575.699 550.904 577.651 551.736C579.603 552.536 582.291 552.936 585.715 552.936H597.235C600.211 552.936 602.531 552.616 604.195 551.976C605.891 551.304 607.075 550.136 607.747 548.472C608.419 546.808 608.755 544.456 608.755 541.416V536.904L601.267 536.808C598.579 536.808 597.235 535.464 597.235 532.776C597.235 530.088 598.579 528.744 601.267 528.744L612.787 528.84C615.475 528.84 616.819 530.184 616.819 532.872V541.416C616.819 548.232 615.235 553.208 612.067 556.344C608.899 559.448 603.955 561 597.235 561H585.715Z" fill="white"/>
<defs>
<filter id="filter0_d_126_2514" x="336.64" y="224.059" width="105.279" height="105.279" filterUnits="userSpaceOnUse" color-interpolation-filters="sRGB">
<feFlood flood-opacity="0" result="BackgroundImageFix"/>
<feColorMatrix in="SourceAlpha" type="matrix" values="0 0 0 0 0 0 0 0 0 0 0 0 0 0 0 0 0 0 127 0" result="hardAlpha"/>
<feOffset dy="4"/>
<feGaussianBlur stdDeviation="2"/>
<feComposite in2="hardAlpha" operator="out"/>
<feColorMatrix type="matrix" values="0 0 0 0 1 0 0 0 0 1 0 0 0 0 1 0 0 0 1 0"/>
<feBlend mode="normal" in2="BackgroundImageFix" result="effect1_dropShadow_126_2514"/>
<feBlend mode="normal" in="SourceGraphic" in2="effect1_dropShadow_126_2514" result="shape"/>
</filter>
<filter id="filter1_d_126_2514" x="431.139" y="224.059" width="139.45" height="112.227" filterUnits="userSpaceOnUse" color-interpolation-filters="sRGB">
<feFlood flood-opacity="0" result="BackgroundImageFix"/>
<feColorMatrix in="SourceAlpha" type="matrix" values="0 0 0 0 0 0 0 0 0 0 0 0 0 0 0 0 0 0 127 0" result="hardAlpha"/>
<feOffset dy="4"/>
<feGaussianBlur stdDeviation="2"/>
<feComposite in2="hardAlpha" operator="out"/>
<feColorMatrix type="matrix" values="0 0 0 0 1 0 0 0 0 1 0 0 0 0 1 0 0 0 1 0"/>
<feBlend mode="normal" in2="BackgroundImageFix" result="effect1_dropShadow_126_2514"/>
<feBlend mode="normal" in="SourceGraphic" in2="effect1_dropShadow_126_2514" result="shape"/>
</filter>
<filter id="filter2_d_126_2514" x="405.314" y="303.271" width="112.228" height="59.418" filterUnits="userSpaceOnUse" color-interpolation-filters="sRGB">
<feFlood flood-opacity="0" result="BackgroundImageFix"/>
<feColorMatrix in="SourceAlpha" type="matrix" values="0 0 0 0 0 0 0 0 0 0 0 0 0 0 0 0 0 0 127 0" result="hardAlpha"/>
<feOffset dy="4"/>
<feGaussianBlur stdDeviation="2"/>
<feComposite in2="hardAlpha" operator="out"/>
<feColorMatrix type="matrix" values="0 0 0 0 1 0 0 0 0 1 0 0 0 0 1 0 0 0 1 0"/>
<feBlend mode="normal" in2="BackgroundImageFix" result="effect1_dropShadow_126_2514"/>
<feBlend mode="normal" in="SourceGraphic" in2="effect1_dropShadow_126_2514" result="shape"/>
</filter>
</defs>
</svg>
