<svg width="1161" height="208" viewBox="0 0 1161 208" fill="none" xmlns="http://www.w3.org/2000/svg">
<rect x="0.25" y="30.25" width="1159.9" height="177.1" rx="4.75" fill="#1E1E1E" fill-opacity="0.7"/>
<rect x="0.25" y="30.25" width="1159.9" height="177.1" rx="4.75" stroke="white" stroke-width="0.5" stroke-dasharray="10 5"/>
<g filter="url(#filter0_d_70_4921)">
<mask id="path-2-inside-1_70_4921" fill="white">
<path d="M595.199 70C595.199 64.4771 599.676 60 605.199 60H1104.4C1109.92 60 1114.4 64.4772 1114.4 70V151.6C1114.4 157.123 1109.92 161.6 1104.4 161.6H605.199C599.676 161.6 595.199 157.123 595.199 151.6V70Z"/>
</mask>
<path d="M595.199 70C595.199 64.4771 599.676 60 605.199 60H1104.4C1109.92 60 1114.4 64.4772 1114.4 70V151.6C1114.4 157.123 1109.92 161.6 1104.4 161.6H605.199C599.676 161.6 595.199 157.123 595.199 151.6V70Z" fill="#272727" shape-rendering="crispEdges"/>
<path d="M605.199 60V61H1104.4V60V59H605.199V60ZM1114.4 70H1113.4V151.6H1114.4H1115.4V70H1114.4ZM1104.4 161.6V160.6H605.199V161.6V162.6H1104.4V161.6ZM595.199 151.6H596.199V70H595.199H594.199V151.6H595.199ZM605.199 161.6V160.6C600.229 160.6 596.199 156.571 596.199 151.6H595.199H594.199C594.199 157.675 599.124 162.6 605.199 162.6V161.6ZM1114.4 151.6H1113.4C1113.4 156.571 1109.37 160.6 1104.4 160.6V161.6V162.6C1110.47 162.6 1115.4 157.675 1115.4 151.6H1114.4ZM1104.4 60V61C1109.37 61 1113.4 65.0294 1113.4 70H1114.4H1115.4C1115.4 63.9249 1110.47 59 1104.4 59V60ZM605.199 60V59C599.124 59 594.199 63.9249 594.199 70H595.199H596.199C596.199 65.0294 600.229 61 605.199 61V60Z" fill="#67FF15" mask="url(#path-2-inside-1_70_4921)"/>
<g opacity="0.5">
<rect x="616" y="80.7998" width="60" height="60" rx="10" fill="#D83EFF"/>
<path d="M640.673 104.61L640.003 104.237L638.256 103.27C637.897 103.072 637.67 102.798 637.575 102.446C637.487 102.094 637.517 101.754 637.663 101.424C637.817 101.095 638.077 100.868 638.443 100.743H638.454L638.465 100.732H638.476C638.505 100.725 638.52 100.721 638.52 100.721L640.673 104.61ZM640.673 104.61L640.585 103.852C640.563 103.655 640.552 103.464 640.552 103.281V101.721V101.611L640.498 101.523C640.307 101.186 640.029 100.941 639.663 100.787C639.296 100.633 638.919 100.611 638.531 100.721H638.52L640.673 104.61ZM641.739 98.469H641.344V98.8645V103.281C641.344 104.072 641.538 104.797 641.926 105.456C642.321 106.108 642.845 106.632 643.497 107.027C644.156 107.416 644.885 107.61 645.683 107.61C646.481 107.61 647.207 107.416 647.858 107.027C648.518 106.632 649.041 106.108 649.429 105.456C649.825 104.797 650.023 104.072 650.023 103.281V98.8645V98.469H649.616H641.739ZM641.113 105.599L641.058 105.489L640.948 105.423L637.971 103.786C637.604 103.581 637.337 103.307 637.169 102.962C637 102.618 636.927 102.259 636.949 101.886C636.978 101.505 637.103 101.161 637.323 100.853C637.55 100.545 637.865 100.326 638.267 100.194C638.282 100.187 638.315 100.176 638.366 100.161H638.377C638.934 100.007 639.472 100.055 639.992 100.304L640.552 100.567V99.9412V97.8428C640.552 97.7329 640.607 97.678 640.717 97.678H650.638C650.755 97.678 650.814 97.7329 650.814 97.8428V99.9412V100.567L651.374 100.293C651.887 100.051 652.421 100.007 652.978 100.161H652.989C653.04 100.176 653.073 100.187 653.088 100.194C653.491 100.326 653.802 100.545 654.022 100.853C654.249 101.161 654.377 101.505 654.406 101.886C654.436 102.259 654.366 102.618 654.198 102.962C654.029 103.307 653.758 103.581 653.385 103.786L650.418 105.423L650.308 105.478L650.264 105.588C649.927 106.247 649.466 106.811 648.88 107.28C648.302 107.749 647.642 108.071 646.903 108.247L646.606 108.324V108.642V109.565C646.606 110.298 646.892 110.906 647.463 111.389L648.979 112.652L649.089 112.751H649.232H651.33C651.55 112.751 651.737 112.813 651.89 112.938C652.052 113.062 652.154 113.216 652.198 113.399L653.472 119.013C653.472 119.013 653.472 119.017 653.472 119.024C653.458 119.039 653.443 119.046 653.428 119.046H637.685C637.663 119.046 637.648 119.039 637.641 119.024C637.641 119.024 637.637 119.024 637.63 119.024C637.63 119.017 637.63 119.013 637.63 119.013L638.916 113.399C638.952 113.216 639.047 113.062 639.201 112.938C639.362 112.813 639.553 112.751 639.772 112.751H642.124H642.266L642.376 112.652L643.892 111.389C644.464 110.92 644.749 110.312 644.749 109.565V108.631V108.324L644.453 108.247C643.72 108.071 643.061 107.749 642.475 107.28C641.896 106.811 641.442 106.251 641.113 105.599ZM650.869 101.501L650.814 101.6V101.71V103.281C650.814 103.471 650.803 103.658 650.781 103.841L650.693 104.61L651.363 104.237L653.099 103.27C653.458 103.072 653.681 102.798 653.769 102.446C653.864 102.094 653.835 101.754 653.681 101.424C653.535 101.095 653.278 100.868 652.912 100.743H652.901L652.89 100.732H652.879H652.857L652.835 100.721H652.824L652.725 101.106L652.824 100.721C652.443 100.611 652.07 100.633 651.704 100.787C651.345 100.934 651.066 101.172 650.869 101.501ZM647.836 114.278H643.266C643.024 114.278 642.816 114.366 642.64 114.542C642.471 114.718 642.387 114.93 642.387 115.179V116.607C642.387 116.849 642.468 117.058 642.629 117.234C642.797 117.417 643.01 117.508 643.266 117.508H647.836C648.085 117.508 648.294 117.42 648.463 117.245C648.631 117.069 648.715 116.856 648.715 116.607V115.179C648.715 114.938 648.631 114.729 648.463 114.553C648.302 114.37 648.093 114.278 647.836 114.278ZM640.75 105.775L637.762 104.116C636.883 103.618 636.484 102.864 636.564 101.853C636.645 100.82 637.172 100.139 638.146 99.8093C638.176 99.802 638.22 99.791 638.278 99.7764C638.322 99.7617 638.37 99.7507 638.421 99.7434L638.652 99.6885V99.6995C639.172 99.6262 639.674 99.7068 640.157 99.9412V97.8428C640.157 97.4692 640.344 97.2825 640.717 97.2825H650.638C651.019 97.2825 651.209 97.4692 651.209 97.8428V99.9412C651.81 99.6555 652.432 99.6006 653.077 99.7764H653.088C653.132 99.791 653.168 99.802 653.198 99.8093L653.604 99.9192L653.582 99.9631C654.322 100.329 654.725 100.959 654.791 101.853C654.871 102.878 654.465 103.636 653.571 104.127L653.483 104.182L650.616 105.764C649.847 107.28 648.642 108.24 647.001 108.642V109.565C647.001 110.18 647.24 110.686 647.716 111.081L649.232 112.356H651.33C652.019 112.356 652.436 112.674 652.583 113.312L653.835 118.816V118.827L653.857 118.926C653.857 118.918 653.853 118.911 653.846 118.904L653.857 118.937V118.948C653.864 118.962 653.868 118.973 653.868 118.98C653.868 118.973 653.864 118.962 653.857 118.948L653.868 118.969V119.002C653.868 119.01 653.868 119.017 653.868 119.024V119.112L653.824 119.189C653.809 119.226 653.791 119.255 653.769 119.277C653.681 119.387 653.568 119.442 653.428 119.442H637.685C637.539 119.442 637.421 119.387 637.333 119.277C637.297 119.233 637.271 119.182 637.257 119.123L637.235 119.068V119.002C637.242 118.98 637.246 118.958 637.246 118.937L637.257 118.915L638.531 113.323V113.312L638.542 113.246L638.597 113.004H638.619C638.809 112.572 639.194 112.356 639.772 112.356H642.124L643.651 111.081C644.119 110.686 644.354 110.18 644.354 109.565V108.631C642.72 108.236 641.519 107.284 640.75 105.775ZM639.223 113.806L638.125 118.651H652.978L651.802 113.487C651.751 113.26 651.594 113.147 651.33 113.147H648.946L648.726 112.96L647.199 111.686C646.54 111.129 646.21 110.422 646.21 109.565V108.016L646.573 107.928C646.287 107.979 645.991 108.005 645.683 108.005C645.375 108.005 645.079 107.979 644.793 107.928L645.145 108.016V109.565C645.145 110.437 644.812 111.147 644.145 111.697L642.629 112.96L642.409 113.147H639.772C639.501 113.147 639.344 113.257 639.3 113.476L639.234 113.806H639.223ZM641.739 98.8645V103.281C641.739 104.365 642.124 105.292 642.893 106.061C643.662 106.83 644.592 107.214 645.683 107.214C646.767 107.214 647.697 106.83 648.474 106.061C649.235 105.292 649.616 104.365 649.616 103.281V98.8645H641.739ZM647.836 113.883C648.686 113.883 649.111 114.315 649.111 115.179V116.607C649.111 116.966 648.99 117.27 648.748 117.519C648.499 117.783 648.195 117.915 647.836 117.915H643.266C642.417 117.915 641.992 117.479 641.992 116.607V115.179C641.992 114.315 642.417 113.883 643.266 113.883H647.836ZM647.836 114.674H643.266C642.944 114.674 642.783 114.842 642.783 115.179V116.607C642.783 116.944 642.944 117.113 643.266 117.113H647.836C647.968 117.113 648.082 117.065 648.177 116.97C648.272 116.875 648.32 116.754 648.32 116.607V115.179C648.32 114.842 648.159 114.674 647.836 114.674ZM651.209 101.71V103.281C651.209 103.486 651.198 103.688 651.176 103.885L652.703 103.039L652.846 102.962L652.89 102.94L652.846 102.962C652.868 102.948 652.897 102.933 652.934 102.918C652.927 102.918 652.919 102.922 652.912 102.929L652.934 102.918C653.3 102.706 653.465 102.387 653.428 101.963C653.392 101.538 653.183 101.26 652.802 101.128L652.725 101.106L652.802 101.128L652.714 101.095C652.055 100.919 651.553 101.124 651.209 101.71ZM639.663 103.6L638.344 101.227C638.095 101.38 637.956 101.626 637.927 101.963C637.89 102.395 638.062 102.717 638.443 102.929L638.465 102.94L639.663 103.6ZM640.157 102.864V101.721C639.908 101.289 639.571 101.062 639.146 101.04L640.157 102.864ZM650.023 105.182L650.231 105.072H650.242L650.363 104.017C650.305 104.427 650.191 104.815 650.023 105.182ZM640.673 101.062C640.732 101.142 640.787 101.23 640.838 101.325L640.948 101.512V101.194L640.673 101.062ZM650.528 101.303C650.579 101.216 650.631 101.135 650.682 101.062L650.418 101.183V101.49L650.528 101.303ZM647.792 107.522C648.518 107.177 649.111 106.665 649.572 105.984C649.411 106.203 649.228 106.416 649.023 106.621C648.649 106.994 648.239 107.295 647.792 107.522ZM643.563 107.522C643.123 107.295 642.713 106.994 642.332 106.621C642.135 106.416 641.955 106.207 641.794 105.995C642.255 106.668 642.845 107.177 643.563 107.522ZM641.135 104.632C641.076 104.435 641.032 104.233 641.003 104.028L641.058 104.49L641.135 104.632ZM653.857 118.948C653.857 118.94 653.857 118.933 653.857 118.926V118.937V118.948Z" fill="#E0E0E0"/>
</g>
<path d="M699.89 104.8L696.36 92.0725H698.38L700.86 101.929H700.978L703.557 92.0725H705.558L708.137 101.935H708.255L710.728 92.0725H712.754L709.218 104.8H707.286L704.607 95.2668H704.508L701.829 104.8H699.89ZM714.356 104.8V95.2543H716.214V104.8H714.356ZM715.294 93.7815C714.971 93.7815 714.694 93.6738 714.462 93.4584C714.234 93.2388 714.12 92.9778 714.12 92.6753C714.12 92.3688 714.234 92.1077 714.462 91.8923C714.694 91.6727 714.971 91.5629 715.294 91.5629C715.618 91.5629 715.893 91.6727 716.121 91.8923C716.353 92.1077 716.469 92.3688 716.469 92.6753C716.469 92.9778 716.353 93.2388 716.121 93.4584C715.893 93.6738 715.618 93.7815 715.294 93.7815ZM720.572 99.1322V104.8H718.714V95.2543H720.498V96.808H720.616C720.835 96.3025 721.179 95.8965 721.647 95.5899C722.119 95.2834 722.714 95.1301 723.431 95.1301C724.081 95.1301 724.651 95.2668 725.14 95.5402C725.629 95.8095 726.008 96.2114 726.277 96.7458C726.546 97.2803 726.681 97.9411 726.681 98.7282V104.8H724.823V98.952C724.823 98.2601 724.643 97.7194 724.282 97.33C723.922 96.9364 723.427 96.7396 722.797 96.7396C722.366 96.7396 721.983 96.8328 721.647 97.0193C721.316 97.2057 721.053 97.4791 720.858 97.8396C720.667 98.1959 720.572 98.6267 720.572 99.1322ZM733.326 93.7256V92.0725H743.176V93.7256H739.205V104.8H737.291V93.7256H733.326ZM747.84 104.992C746.945 104.992 746.164 104.787 745.497 104.377C744.83 103.967 744.312 103.393 743.943 102.656C743.574 101.918 743.39 101.057 743.39 100.071C743.39 99.0804 743.574 98.2145 743.943 97.4729C744.312 96.7313 744.83 96.1555 745.497 95.7453C746.164 95.3351 746.945 95.1301 747.84 95.1301C748.735 95.1301 749.516 95.3351 750.183 95.7453C750.85 96.1555 751.367 96.7313 751.736 97.4729C752.105 98.2145 752.289 99.0804 752.289 100.071C752.289 101.057 752.105 101.918 751.736 102.656C751.367 103.393 750.85 103.967 750.183 104.377C749.516 104.787 748.735 104.992 747.84 104.992ZM747.846 103.433C748.426 103.433 748.907 103.279 749.288 102.973C749.669 102.666 749.951 102.258 750.133 101.748C750.319 101.239 750.413 100.678 750.413 100.064C750.413 99.4553 750.319 98.896 750.133 98.3865C749.951 97.8727 749.669 97.4605 749.288 97.1498C748.907 96.839 748.426 96.6837 747.846 96.6837C747.262 96.6837 746.777 96.839 746.392 97.1498C746.011 97.4605 745.727 97.8727 745.54 98.3865C745.358 98.896 745.267 99.4553 745.267 100.064C745.267 100.678 745.358 101.239 745.54 101.748C745.727 102.258 746.011 102.666 746.392 102.973C746.777 103.279 747.262 103.433 747.846 103.433ZM760.41 100.841V95.2543H762.274V104.8H760.447V103.147H760.348C760.128 103.656 759.776 104.081 759.291 104.421C758.811 104.756 758.212 104.924 757.495 104.924C756.882 104.924 756.34 104.789 755.867 104.52C755.399 104.247 755.03 103.843 754.761 103.308C754.496 102.774 754.363 102.113 754.363 101.326V95.2543H756.222V101.102C756.222 101.753 756.402 102.271 756.762 102.656C757.123 103.041 757.591 103.234 758.167 103.234C758.515 103.234 758.861 103.147 759.204 102.973C759.552 102.799 759.84 102.536 760.068 102.184C760.3 101.831 760.414 101.384 760.41 100.841ZM764.771 104.8V95.2543H766.567V96.7707H766.667C766.841 96.257 767.147 95.853 767.586 95.5589C768.03 95.2606 768.531 95.1114 769.09 95.1114C769.206 95.1114 769.343 95.1156 769.5 95.1238C769.662 95.1321 769.788 95.1425 769.879 95.1549V96.9323C769.805 96.9115 769.672 96.8888 769.482 96.8639C769.291 96.8349 769.101 96.8204 768.91 96.8204C768.471 96.8204 768.079 96.9136 767.735 97.1001C767.396 97.2823 767.126 97.5371 766.928 97.8644C766.729 98.1876 766.629 98.5563 766.629 98.9706V104.8H764.771ZM773.346 99.1322V104.8H771.487V95.2543H773.271V96.808H773.389C773.609 96.3025 773.952 95.8965 774.421 95.5899C774.893 95.2834 775.487 95.1301 776.204 95.1301C776.855 95.1301 777.424 95.2668 777.913 95.5402C778.402 95.8095 778.781 96.2114 779.05 96.7458C779.32 97.2803 779.454 97.9411 779.454 98.7282V104.8H777.596V98.952C777.596 98.2601 777.416 97.7194 777.056 97.33C776.695 96.9364 776.2 96.7396 775.57 96.7396C775.139 96.7396 774.756 96.8328 774.421 97.0193C774.089 97.2057 773.826 97.4791 773.631 97.8396C773.441 98.1959 773.346 98.6267 773.346 99.1322ZM784.724 105.011C784.119 105.011 783.573 104.899 783.084 104.676C782.595 104.448 782.207 104.118 781.922 103.687C781.64 103.257 781.499 102.728 781.499 102.103C781.499 101.564 781.603 101.121 781.81 100.773C782.017 100.425 782.296 100.149 782.649 99.9463C783.001 99.7433 783.394 99.59 783.829 99.4864C784.264 99.3828 784.708 99.3041 785.159 99.2503C785.731 99.184 786.195 99.1301 786.551 99.0887C786.908 99.0431 787.167 98.9706 787.328 98.8712C787.49 98.7718 787.57 98.6102 787.57 98.3865V98.343C787.57 97.8002 787.417 97.3797 787.111 97.0814C786.808 96.7831 786.357 96.634 785.756 96.634C785.13 96.634 784.637 96.7728 784.277 97.0503C783.921 97.3238 783.674 97.6283 783.537 97.9639L781.791 97.5661C781.998 96.9861 782.301 96.518 782.698 96.1617C783.1 95.8012 783.562 95.5402 784.084 95.3786C784.606 95.2129 785.155 95.1301 785.731 95.1301C786.112 95.1301 786.516 95.1756 786.943 95.2668C787.374 95.3538 787.776 95.5154 788.148 95.7515C788.525 95.9877 788.834 96.3253 789.074 96.7645C789.315 97.1995 789.435 97.765 789.435 98.461V104.8H787.62V103.495H787.546C787.425 103.735 787.245 103.971 787.005 104.203C786.765 104.435 786.456 104.628 786.079 104.781C785.702 104.934 785.25 105.011 784.724 105.011ZM785.128 103.52C785.642 103.52 786.081 103.418 786.446 103.215C786.814 103.012 787.094 102.747 787.285 102.42C787.479 102.088 787.577 101.734 787.577 101.357V100.127C787.51 100.193 787.382 100.255 787.191 100.313C787.005 100.367 786.792 100.414 786.551 100.456C786.311 100.493 786.077 100.528 785.849 100.562C785.621 100.591 785.431 100.615 785.277 100.636C784.917 100.682 784.588 100.758 784.289 100.866C783.995 100.974 783.759 101.129 783.581 101.332C783.407 101.531 783.32 101.796 783.32 102.128C783.32 102.587 783.49 102.935 783.829 103.172C784.169 103.404 784.602 103.52 785.128 103.52ZM791.91 104.8V95.2543H793.693V96.808H793.811C794.01 96.2818 794.335 95.8717 794.787 95.5775C795.239 95.2792 795.779 95.1301 796.409 95.1301C797.047 95.1301 797.582 95.2792 798.012 95.5775C798.447 95.8758 798.768 96.286 798.976 96.808H799.075C799.303 96.2984 799.665 95.8924 800.163 95.5899C800.66 95.2834 801.252 95.1301 801.94 95.1301C802.806 95.1301 803.512 95.4014 804.059 95.9442C804.61 96.4869 804.886 97.3051 804.886 98.3989V104.8H803.027V98.5729C803.027 97.9266 802.851 97.4584 802.499 97.1684C802.147 96.8784 801.727 96.7334 801.238 96.7334C800.633 96.7334 800.163 96.9198 799.827 97.2927C799.491 97.6614 799.324 98.1358 799.324 98.7158V104.8H797.472V98.4548C797.472 97.9369 797.31 97.5206 796.987 97.2057C796.664 96.8908 796.243 96.7334 795.725 96.7334C795.373 96.7334 795.048 96.8266 794.75 97.0131C794.456 97.1953 794.217 97.4501 794.035 97.7774C793.857 98.1047 793.768 98.4838 793.768 98.9147V104.8H791.91ZM811.49 104.992C810.55 104.992 809.74 104.792 809.06 104.39C808.385 103.984 807.863 103.414 807.494 102.681C807.13 101.943 806.947 101.079 806.947 100.089C806.947 99.1115 807.13 98.2497 807.494 97.504C807.863 96.7583 808.377 96.1762 809.035 95.7577C809.698 95.3393 810.473 95.1301 811.36 95.1301C811.898 95.1301 812.42 95.2191 812.926 95.3973C813.431 95.5754 813.885 95.8551 814.287 96.2362C814.688 96.6174 815.005 97.1125 815.237 97.7215C815.469 98.3264 815.585 99.0618 815.585 99.9276V100.586H807.998V99.1943H813.765C813.765 98.7055 813.665 98.2725 813.466 97.8955C813.267 97.5144 812.988 97.214 812.627 96.9944C812.271 96.7748 811.853 96.665 811.372 96.665C810.85 96.665 810.394 96.7935 810.005 97.0503C809.619 97.3031 809.321 97.6345 809.11 98.0447C808.903 98.4507 808.799 98.8919 808.799 99.3683V100.456C808.799 101.094 808.911 101.637 809.135 102.084C809.363 102.532 809.68 102.873 810.086 103.109C810.492 103.341 810.966 103.457 811.509 103.457C811.861 103.457 812.182 103.408 812.472 103.308C812.762 103.205 813.013 103.051 813.224 102.848C813.435 102.645 813.597 102.395 813.709 102.097L815.467 102.413C815.326 102.931 815.074 103.385 814.709 103.774C814.349 104.16 813.895 104.46 813.348 104.676C812.805 104.887 812.186 104.992 811.49 104.992ZM819.505 99.1322V104.8H817.647V95.2543H819.431V96.808H819.549C819.768 96.3025 820.112 95.8965 820.58 95.5899C821.053 95.2834 821.647 95.1301 822.364 95.1301C823.014 95.1301 823.584 95.2668 824.073 95.5402C824.562 95.8095 824.941 96.2114 825.21 96.7458C825.479 97.2803 825.614 97.9411 825.614 98.7282V104.8H823.756V98.952C823.756 98.2601 823.576 97.7194 823.215 97.33C822.855 96.9364 822.36 96.7396 821.73 96.7396C821.299 96.7396 820.916 96.8328 820.58 97.0193C820.249 97.2057 819.986 97.4791 819.791 97.8396C819.6 98.1959 819.505 98.6267 819.505 99.1322ZM832.562 95.2543V96.7458H827.348V95.2543H832.562ZM828.746 92.9674H830.604V101.997C830.604 102.358 830.658 102.629 830.766 102.811C830.874 102.989 831.012 103.112 831.182 103.178C831.356 103.24 831.545 103.271 831.748 103.271C831.897 103.271 832.027 103.261 832.139 103.24C832.251 103.219 832.338 103.203 832.4 103.19L832.736 104.725C832.628 104.767 832.475 104.808 832.276 104.85C832.077 104.895 831.829 104.92 831.53 104.924C831.041 104.932 830.586 104.845 830.163 104.663C829.74 104.481 829.399 104.199 829.138 103.818C828.877 103.437 828.746 102.958 828.746 102.382V92.9674ZM839.398 92.0725H841.728L845.78 101.966H845.929L849.981 92.0725H852.311V104.8H850.484V95.5899H850.366L846.613 104.781H845.096L841.343 95.5837H841.225V104.8H839.398V92.0725ZM857.732 105.011C857.127 105.011 856.58 104.899 856.091 104.676C855.603 104.448 855.215 104.118 854.929 103.687C854.648 103.257 854.507 102.728 854.507 102.103C854.507 101.564 854.61 101.121 854.817 100.773C855.025 100.425 855.304 100.149 855.656 99.9463C856.009 99.7433 856.402 99.59 856.837 99.4864C857.272 99.3828 857.715 99.3041 858.167 99.2503C858.739 99.184 859.203 99.1301 859.559 99.0887C859.915 99.0431 860.174 98.9706 860.336 98.8712C860.498 98.7718 860.578 98.6102 860.578 98.3865V98.343C860.578 97.8002 860.425 97.3797 860.118 97.0814C859.816 96.7831 859.364 96.634 858.764 96.634C858.138 96.634 857.645 96.7728 857.285 97.0503C856.928 97.3238 856.682 97.6283 856.545 97.9639L854.799 97.5661C855.006 96.9861 855.308 96.518 855.706 96.1617C856.108 95.8012 856.57 95.5402 857.092 95.3786C857.614 95.2129 858.163 95.1301 858.739 95.1301C859.12 95.1301 859.524 95.1756 859.951 95.2668C860.382 95.3538 860.783 95.5154 861.156 95.7515C861.533 95.9877 861.842 96.3253 862.082 96.7645C862.323 97.1995 862.443 97.765 862.443 98.461V104.8H860.628V103.495H860.553C860.433 103.735 860.253 103.971 860.013 104.203C859.772 104.435 859.464 104.628 859.087 104.781C858.71 104.934 858.258 105.011 857.732 105.011ZM858.136 103.52C858.65 103.52 859.089 103.418 859.453 103.215C859.822 103.012 860.102 102.747 860.292 102.42C860.487 102.088 860.585 101.734 860.585 101.357V100.127C860.518 100.193 860.39 100.255 860.199 100.313C860.013 100.367 859.799 100.414 859.559 100.456C859.319 100.493 859.085 100.528 858.857 100.562C858.629 100.591 858.438 100.615 858.285 100.636C857.925 100.682 857.595 100.758 857.297 100.866C857.003 100.974 856.767 101.129 856.589 101.332C856.415 101.531 856.328 101.796 856.328 102.128C856.328 102.587 856.497 102.935 856.837 103.172C857.177 103.404 857.61 103.52 858.136 103.52ZM869.373 95.2543V96.7458H864.159V95.2543H869.373ZM865.558 92.9674H867.416V101.997C867.416 102.358 867.47 102.629 867.577 102.811C867.685 102.989 867.824 103.112 867.994 103.178C868.168 103.24 868.356 103.271 868.559 103.271C868.708 103.271 868.839 103.261 868.951 103.24C869.063 103.219 869.15 103.203 869.212 103.19L869.547 104.725C869.44 104.767 869.286 104.808 869.087 104.85C868.889 104.895 868.64 104.92 868.342 104.924C867.853 104.932 867.397 104.845 866.975 104.663C866.552 104.481 866.21 104.199 865.949 103.818C865.688 103.437 865.558 102.958 865.558 102.382V92.9674ZM875.347 104.992C874.423 104.992 873.628 104.783 872.961 104.365C872.298 103.942 871.788 103.36 871.432 102.619C871.076 101.877 870.897 101.028 870.897 100.071C870.897 99.1011 871.08 98.2456 871.444 97.504C871.809 96.7583 872.323 96.1762 872.986 95.7577C873.648 95.3393 874.429 95.1301 875.328 95.1301C876.053 95.1301 876.7 95.2647 877.267 95.534C877.835 95.7992 878.293 96.172 878.641 96.6526C878.993 97.1332 879.202 97.6946 879.268 98.3367H877.46C877.361 97.8893 877.133 97.504 876.776 97.1808C876.424 96.8577 875.952 96.6961 875.359 96.6961C874.842 96.6961 874.388 96.8328 873.998 97.1063C873.613 97.3756 873.313 97.7609 873.097 98.2622C872.882 98.7593 872.774 99.3476 872.774 100.027C872.774 100.723 872.88 101.324 873.091 101.829C873.302 102.335 873.601 102.726 873.986 103.004C874.376 103.281 874.833 103.42 875.359 103.42C875.712 103.42 876.031 103.356 876.316 103.228C876.607 103.095 876.849 102.906 877.044 102.662C877.242 102.418 877.381 102.123 877.46 101.78H879.268C879.202 102.397 879.001 102.948 878.666 103.433C878.33 103.917 877.88 104.299 877.317 104.576C876.758 104.854 876.101 104.992 875.347 104.992ZM883.114 99.1322V104.8H881.255V92.0725H883.089V96.808H883.207C883.431 96.2942 883.772 95.8862 884.232 95.5837C884.692 95.2813 885.293 95.1301 886.034 95.1301C886.689 95.1301 887.261 95.2647 887.75 95.534C888.243 95.8033 888.624 96.2052 888.893 96.7396C889.167 97.2699 889.303 97.9328 889.303 98.7282V104.8H887.445V98.952C887.445 98.2518 887.265 97.7091 886.904 97.3238C886.544 96.9343 886.043 96.7396 885.401 96.7396C884.961 96.7396 884.568 96.8328 884.22 97.0193C883.876 97.2057 883.605 97.4791 883.406 97.8396C883.211 98.1959 883.114 98.6267 883.114 99.1322Z" fill="#E0E0E0"/>
<path d="M705.844 131.8H704.335L698.93 123.428C698.793 123.218 698.681 122.999 698.593 122.769H698.549C698.588 122.994 698.607 123.475 698.607 124.212V131.8H697.377V121.297H698.974L704.232 129.537C704.452 129.878 704.594 130.113 704.657 130.24H704.687C704.638 129.937 704.613 129.422 704.613 128.694V121.297H705.844V131.8ZM711.571 131.976C710.463 131.976 709.577 131.626 708.913 130.928C708.253 130.225 707.924 129.295 707.924 128.138C707.924 126.878 708.268 125.894 708.957 125.186C709.645 124.478 710.575 124.124 711.747 124.124C712.865 124.124 713.737 124.468 714.362 125.157C714.992 125.845 715.307 126.8 715.307 128.021C715.307 129.217 714.967 130.176 714.289 130.899C713.615 131.617 712.709 131.976 711.571 131.976ZM711.659 125.135C710.888 125.135 710.277 125.398 709.828 125.926C709.379 126.448 709.154 127.171 709.154 128.094C709.154 128.982 709.381 129.683 709.835 130.196C710.29 130.708 710.897 130.965 711.659 130.965C712.436 130.965 713.031 130.713 713.446 130.21C713.866 129.708 714.076 128.992 714.076 128.064C714.076 127.127 713.866 126.404 713.446 125.896C713.031 125.389 712.436 125.135 711.659 125.135ZM720.705 131.727C720.421 131.883 720.048 131.961 719.584 131.961C718.271 131.961 717.614 131.229 717.614 129.764V125.325H716.325V124.3H717.614V122.469L718.815 122.081V124.3H720.705V125.325H718.815V129.551C718.815 130.054 718.9 130.413 719.071 130.628C719.242 130.843 719.525 130.95 719.921 130.95C720.224 130.95 720.485 130.867 720.705 130.701V131.727ZM725.971 131.529V130.24C726.625 130.723 727.345 130.965 728.131 130.965C729.186 130.965 729.713 130.613 729.713 129.91C729.713 129.71 729.667 129.542 729.574 129.405C729.486 129.263 729.364 129.139 729.208 129.031C729.057 128.924 728.876 128.829 728.666 128.746C728.461 128.658 728.239 128.567 728 128.475C727.667 128.343 727.375 128.211 727.121 128.079C726.872 127.942 726.662 127.791 726.491 127.625C726.325 127.454 726.198 127.261 726.11 127.046C726.027 126.832 725.985 126.58 725.985 126.292C725.985 125.94 726.066 125.63 726.227 125.362C726.388 125.088 726.603 124.861 726.872 124.681C727.14 124.495 727.445 124.356 727.787 124.263C728.134 124.17 728.49 124.124 728.856 124.124C729.506 124.124 730.087 124.236 730.6 124.461V125.677C730.048 125.315 729.413 125.135 728.695 125.135C728.471 125.135 728.268 125.162 728.087 125.215C727.907 125.264 727.75 125.335 727.619 125.428C727.492 125.521 727.392 125.633 727.318 125.765C727.25 125.892 727.216 126.033 727.216 126.189C727.216 126.385 727.25 126.548 727.318 126.68C727.392 126.812 727.497 126.929 727.633 127.032C727.77 127.134 727.936 127.227 728.131 127.31C728.327 127.393 728.549 127.483 728.798 127.581C729.13 127.708 729.428 127.84 729.691 127.977C729.955 128.108 730.18 128.26 730.365 128.431C730.551 128.597 730.692 128.79 730.79 129.009C730.893 129.229 730.944 129.49 730.944 129.793C730.944 130.164 730.861 130.486 730.695 130.76C730.534 131.033 730.316 131.26 730.043 131.441C729.77 131.622 729.455 131.756 729.098 131.844C728.742 131.932 728.368 131.976 727.978 131.976C727.206 131.976 726.537 131.827 725.971 131.529ZM736.276 131.727C735.993 131.883 735.619 131.961 735.155 131.961C733.842 131.961 733.185 131.229 733.185 129.764V125.325H731.896V124.3H733.185V122.469L734.386 122.081V124.3H736.276V125.325H734.386V129.551C734.386 130.054 734.472 130.413 734.643 130.628C734.813 130.843 735.097 130.95 735.492 130.95C735.795 130.95 736.056 130.867 736.276 130.701V131.727ZM743.249 131.8H742.047V130.628H742.018C741.496 131.526 740.727 131.976 739.711 131.976C738.964 131.976 738.378 131.778 737.953 131.382C737.533 130.987 737.323 130.462 737.323 129.808C737.323 128.406 738.148 127.591 739.799 127.361L742.047 127.046C742.047 125.772 741.532 125.135 740.502 125.135C739.599 125.135 738.783 125.442 738.056 126.058V124.827C738.793 124.358 739.643 124.124 740.604 124.124C742.367 124.124 743.249 125.057 743.249 126.922V131.8ZM742.047 128.006L740.238 128.255C739.682 128.333 739.262 128.472 738.979 128.672C738.695 128.868 738.554 129.217 738.554 129.72C738.554 130.086 738.683 130.386 738.942 130.621C739.206 130.85 739.555 130.965 739.989 130.965C740.585 130.965 741.076 130.757 741.461 130.342C741.852 129.922 742.047 129.393 742.047 128.753V128.006ZM749.423 125.516C749.213 125.354 748.91 125.274 748.515 125.274C748.002 125.274 747.572 125.516 747.226 125.999C746.884 126.482 746.713 127.142 746.713 127.977V131.8H745.512V124.3H746.713V125.845H746.742C746.913 125.318 747.174 124.908 747.526 124.615C747.877 124.317 748.271 124.168 748.705 124.168C749.018 124.168 749.257 124.202 749.423 124.271V125.516ZM754.206 131.727C753.922 131.883 753.549 131.961 753.085 131.961C751.771 131.961 751.115 131.229 751.115 129.764V125.325H749.826V124.3H751.115V122.469L752.316 122.081V124.3H754.206V125.325H752.316V129.551C752.316 130.054 752.401 130.413 752.572 130.628C752.743 130.843 753.026 130.95 753.422 130.95C753.725 130.95 753.986 130.867 754.206 130.701V131.727ZM761.837 128.35H756.542C756.562 129.185 756.786 129.83 757.216 130.284C757.646 130.738 758.236 130.965 758.988 130.965C759.833 130.965 760.609 130.687 761.317 130.13V131.258C760.658 131.736 759.787 131.976 758.703 131.976C757.643 131.976 756.811 131.636 756.205 130.958C755.6 130.274 755.297 129.314 755.297 128.079C755.297 126.912 755.626 125.962 756.286 125.23C756.95 124.493 757.772 124.124 758.754 124.124C759.735 124.124 760.495 124.441 761.032 125.076C761.569 125.711 761.837 126.592 761.837 127.72V128.35ZM760.607 127.332C760.602 126.639 760.434 126.099 760.102 125.713C759.774 125.328 759.318 125.135 758.732 125.135C758.166 125.135 757.685 125.337 757.289 125.743C756.894 126.148 756.649 126.678 756.557 127.332H760.607ZM770.062 131.8H768.861V130.525H768.832C768.275 131.492 767.416 131.976 766.254 131.976C765.312 131.976 764.557 131.641 763.991 130.972C763.429 130.298 763.148 129.383 763.148 128.226C763.148 126.985 763.461 125.992 764.086 125.245C764.711 124.498 765.543 124.124 766.583 124.124C767.614 124.124 768.363 124.529 768.832 125.34H768.861V120.696H770.062V131.8ZM768.861 128.409V127.303C768.861 126.697 768.661 126.185 768.261 125.765C767.86 125.345 767.353 125.135 766.737 125.135C766.005 125.135 765.429 125.403 765.009 125.94C764.589 126.478 764.379 127.22 764.379 128.167C764.379 129.031 764.579 129.715 764.979 130.218C765.385 130.716 765.927 130.965 766.605 130.965C767.274 130.965 767.816 130.723 768.231 130.24C768.651 129.756 768.861 129.146 768.861 128.409Z" fill="#9E9E9E"/>
</g>
<mask id="path-8-inside-2_70_4921" fill="white">
<path d="M30 70C30 64.4771 34.4772 60 40 60H539.2C544.723 60 549.2 64.4772 549.2 70V151.6C549.2 157.123 544.723 161.6 539.2 161.6H40C34.4772 161.6 30 157.123 30 151.6V70Z"/>
</mask>
<path d="M30 70C30 64.4771 34.4772 60 40 60H539.2C544.723 60 549.2 64.4772 549.2 70V151.6C549.2 157.123 544.723 161.6 539.2 161.6H40C34.4772 161.6 30 157.123 30 151.6V70Z" fill="#272727"/>
<path d="M40 60V61H539.2V60V59H40V60ZM549.2 70H548.2V151.6H549.2H550.2V70H549.2ZM539.2 161.6V160.6H40V161.6V162.6H539.2V161.6ZM30 151.6H31V70H30H29V151.6H30ZM40 161.6V160.6C35.0294 160.6 31 156.571 31 151.6H30H29C29 157.675 33.9249 162.6 40 162.6V161.6ZM549.2 151.6H548.2C548.2 156.571 544.171 160.6 539.2 160.6V161.6V162.6C545.275 162.6 550.2 157.675 550.2 151.6H549.2ZM539.2 60V61C544.171 61 548.2 65.0294 548.2 70H549.2H550.2C550.2 63.9249 545.275 59 539.2 59V60ZM40 60V59C33.9249 59 29 63.9249 29 70H30H31C31 65.0294 35.0294 61 40 61V60Z" fill="#67FF15" mask="url(#path-8-inside-2_70_4921)"/>
<g opacity="0.5">
<rect x="50.8008" y="80.7998" width="60" height="60" rx="10" fill="#D83EFF"/>
<path d="M75.4741 104.61L74.804 104.237L73.0571 103.27C72.6982 103.072 72.4712 102.798 72.376 102.446C72.2881 102.094 72.3174 101.754 72.4639 101.424C72.6177 101.095 72.8777 100.868 73.2439 100.743H73.2549L73.2659 100.732H73.2769C73.3062 100.725 73.3208 100.721 73.3208 100.721L75.4741 104.61ZM75.4741 104.61L75.3862 103.852C75.3643 103.655 75.3533 103.464 75.3533 103.281V101.721V101.611L75.2983 101.523C75.1079 101.186 74.8296 100.941 74.4634 100.787C74.0972 100.633 73.72 100.611 73.3318 100.721H73.3208L75.4741 104.61ZM76.5398 98.469H76.1443V98.8645V103.281C76.1443 104.072 76.3384 104.797 76.7266 105.456C77.1221 106.108 77.6458 106.632 78.2976 107.027C78.9568 107.416 79.6855 107.61 80.4839 107.61C81.2822 107.61 82.0073 107.416 82.6592 107.027C83.3184 106.632 83.842 106.108 84.2302 105.456C84.6257 104.797 84.8235 104.072 84.8235 103.281V98.8645V98.469H84.417H76.5398ZM75.9136 105.599L75.8586 105.489L75.7488 105.423L72.7715 103.786C72.4053 103.581 72.1379 103.307 71.9695 102.962C71.801 102.618 71.7278 102.259 71.7498 101.886C71.7791 101.505 71.9036 101.161 72.1233 100.853C72.3503 100.545 72.6653 100.326 73.0681 100.194C73.0828 100.187 73.1157 100.176 73.167 100.161H73.178C73.7346 100.007 74.2729 100.055 74.793 100.304L75.3533 100.567V99.9412V97.8428C75.3533 97.7329 75.4082 97.678 75.5181 97.678H85.4387C85.5559 97.678 85.6145 97.7329 85.6145 97.8428V99.9412V100.567L86.1748 100.293C86.6875 100.051 87.2222 100.007 87.7788 100.161H87.7898C87.8411 100.176 87.874 100.187 87.8887 100.194C88.2915 100.326 88.6028 100.545 88.8225 100.853C89.0496 101.161 89.1777 101.505 89.207 101.886C89.2363 102.259 89.1667 102.618 88.9983 102.962C88.8298 103.307 88.5588 103.581 88.1853 103.786L85.219 105.423L85.1091 105.478L85.0652 105.588C84.7283 106.247 84.2668 106.811 83.6809 107.28C83.1023 107.749 82.4431 108.071 81.7034 108.247L81.4067 108.324V108.642V109.565C81.4067 110.298 81.6924 110.906 82.2637 111.389L83.7798 112.652L83.8896 112.751H84.0325H86.1309C86.3506 112.751 86.5374 112.813 86.6912 112.938C86.8523 113.062 86.9548 113.216 86.9988 113.399L88.2732 119.013C88.2732 119.013 88.2732 119.017 88.2732 119.024C88.2585 119.039 88.2439 119.046 88.2292 119.046H72.4858C72.4639 119.046 72.4492 119.039 72.4419 119.024C72.4419 119.024 72.4382 119.024 72.4309 119.024C72.4309 119.017 72.4309 119.013 72.4309 119.013L73.7163 113.399C73.7529 113.216 73.8481 113.062 74.002 112.938C74.1631 112.813 74.3535 112.751 74.5732 112.751H76.9243H77.0671L77.177 112.652L78.6931 111.389C79.2644 110.92 79.55 110.312 79.55 109.565V108.631V108.324L79.2534 108.247C78.521 108.071 77.8618 107.749 77.2759 107.28C76.6973 106.811 76.2432 106.251 75.9136 105.599ZM85.6694 101.501L85.6145 101.6V101.71V103.281C85.6145 103.471 85.6035 103.658 85.5815 103.841L85.4937 104.61L86.1638 104.237L87.8997 103.27C88.2585 103.072 88.4819 102.798 88.5698 102.446C88.665 102.094 88.6357 101.754 88.4819 101.424C88.3354 101.095 88.0791 100.868 87.7129 100.743H87.7019L87.6909 100.732H87.6799H87.658L87.636 100.721H87.625L87.5261 101.106L87.625 100.721C87.2441 100.611 86.8706 100.633 86.5044 100.787C86.1455 100.934 85.8672 101.172 85.6694 101.501ZM82.6372 114.278H78.0669C77.8252 114.278 77.6165 114.366 77.4407 114.542C77.2722 114.718 77.188 114.93 77.188 115.179V116.607C77.188 116.849 77.2686 117.058 77.4297 117.234C77.5981 117.417 77.8105 117.508 78.0669 117.508H82.6372C82.8862 117.508 83.095 117.42 83.2634 117.245C83.4319 117.069 83.5161 116.856 83.5161 116.607V115.179C83.5161 114.938 83.4319 114.729 83.2634 114.553C83.1023 114.37 82.8936 114.278 82.6372 114.278ZM75.551 105.775L72.5627 104.116C71.6838 103.618 71.2847 102.864 71.3652 101.853C71.4458 100.82 71.9731 100.139 72.9473 99.8093C72.9766 99.802 73.0205 99.791 73.0791 99.7764C73.123 99.7617 73.1707 99.7507 73.2219 99.7434L73.4526 99.6885V99.6995C73.9727 99.6262 74.4744 99.7068 74.9578 99.9412V97.8428C74.9578 97.4692 75.1445 97.2825 75.5181 97.2825H85.4387C85.8196 97.2825 86.01 97.4692 86.01 97.8428V99.9412C86.6106 99.6555 87.2332 99.6006 87.8777 99.7764H87.8887C87.9326 99.791 87.9692 99.802 87.9985 99.8093L88.405 99.9192L88.3831 99.9631C89.1228 100.329 89.5256 100.959 89.5916 101.853C89.6721 102.878 89.2656 103.636 88.3721 104.127L88.2842 104.182L85.4167 105.764C84.6477 107.28 83.4429 108.24 81.8022 108.642V109.565C81.8022 110.18 82.0403 110.686 82.5164 111.081L84.0325 112.356H86.1309C86.8193 112.356 87.2368 112.674 87.3833 113.312L88.6357 118.816V118.827L88.6577 118.926C88.6577 118.918 88.6541 118.911 88.6467 118.904L88.6577 118.937V118.948C88.665 118.962 88.6687 118.973 88.6687 118.98C88.6687 118.973 88.665 118.962 88.6577 118.948L88.6687 118.969V119.002C88.6687 119.01 88.6687 119.017 88.6687 119.024V119.112L88.6248 119.189C88.6101 119.226 88.5918 119.255 88.5698 119.277C88.4819 119.387 88.3684 119.442 88.2292 119.442H72.4858C72.3394 119.442 72.2222 119.387 72.1343 119.277C72.0977 119.233 72.072 119.182 72.0574 119.123L72.0354 119.068V119.002C72.0427 118.98 72.0464 118.958 72.0464 118.937L72.0574 118.915L73.3318 113.323V113.312L73.3428 113.246L73.3977 113.004H73.4197C73.6101 112.572 73.9946 112.356 74.5732 112.356H76.9243L78.4514 111.081C78.9202 110.686 79.1545 110.18 79.1545 109.565V108.631C77.5212 108.236 76.3201 107.284 75.551 105.775ZM74.0239 113.806L72.9253 118.651H87.7788L86.6033 113.487C86.552 113.26 86.3945 113.147 86.1309 113.147H83.7468L83.5271 112.96L82 111.686C81.3408 111.129 81.0112 110.422 81.0112 109.565V108.016L81.3738 107.928C81.0881 107.979 80.7915 108.005 80.4839 108.005C80.1763 108.005 79.8796 107.979 79.594 107.928L79.9456 108.016V109.565C79.9456 110.437 79.6123 111.147 78.9458 111.697L77.4297 112.96L77.21 113.147H74.5732C74.3022 113.147 74.1448 113.257 74.1008 113.476L74.0349 113.806H74.0239ZM76.5398 98.8645V103.281C76.5398 104.365 76.9243 105.292 77.6934 106.061C78.4624 106.83 79.3926 107.214 80.4839 107.214C81.5679 107.214 82.498 106.83 83.2744 106.061C84.0361 105.292 84.417 104.365 84.417 103.281V98.8645H76.5398ZM82.6372 113.883C83.4868 113.883 83.9116 114.315 83.9116 115.179V116.607C83.9116 116.966 83.7908 117.27 83.5491 117.519C83.3 117.783 82.9961 117.915 82.6372 117.915H78.0669C77.2173 117.915 76.7925 117.479 76.7925 116.607V115.179C76.7925 114.315 77.2173 113.883 78.0669 113.883H82.6372ZM82.6372 114.674H78.0669C77.7446 114.674 77.5835 114.842 77.5835 115.179V116.607C77.5835 116.944 77.7446 117.113 78.0669 117.113H82.6372C82.769 117.113 82.8826 117.065 82.9778 116.97C83.073 116.875 83.1206 116.754 83.1206 116.607V115.179C83.1206 114.842 82.9595 114.674 82.6372 114.674ZM86.01 101.71V103.281C86.01 103.486 85.999 103.688 85.9771 103.885L87.5042 103.039L87.647 102.962L87.6909 102.94L87.647 102.962C87.6689 102.948 87.6982 102.933 87.7349 102.918C87.7275 102.918 87.7202 102.922 87.7129 102.929L87.7349 102.918C88.1011 102.706 88.2659 102.387 88.2292 101.963C88.1926 101.538 87.9839 101.26 87.603 101.128L87.5261 101.106L87.603 101.128L87.5151 101.095C86.856 100.919 86.3542 101.124 86.01 101.71ZM74.4634 103.6L73.145 101.227C72.896 101.38 72.7568 101.626 72.7275 101.963C72.6909 102.395 72.863 102.717 73.2439 102.929L73.2659 102.94L74.4634 103.6ZM74.9578 102.864V101.721C74.7087 101.289 74.3718 101.062 73.947 101.04L74.9578 102.864ZM84.8235 105.182L85.0322 105.072H85.0432L85.1641 104.017C85.1055 104.427 84.9919 104.815 84.8235 105.182ZM75.4741 101.062C75.5327 101.142 75.5876 101.23 75.6389 101.325L75.7488 101.512V101.194L75.4741 101.062ZM85.3289 101.303C85.3801 101.216 85.4314 101.135 85.4827 101.062L85.219 101.183V101.49L85.3289 101.303ZM82.5933 107.522C83.3184 107.177 83.9116 106.665 84.373 105.984C84.2119 106.203 84.0288 106.416 83.8237 106.621C83.4502 106.994 83.04 107.295 82.5933 107.522ZM78.3635 107.522C77.9241 107.295 77.5139 106.994 77.1331 106.621C76.9353 106.416 76.7559 106.207 76.5947 105.995C77.0562 106.668 77.6458 107.177 78.3635 107.522ZM75.9355 104.632C75.877 104.435 75.833 104.233 75.8037 104.028L75.8586 104.49L75.9355 104.632ZM88.6577 118.948C88.6577 118.94 88.6577 118.933 88.6577 118.926V118.937V118.948Z" fill="#E0E0E0"/>
</g>
<path d="M134.691 104.8L131.161 92.0725H133.181L135.661 101.929H135.779L138.358 92.0725H140.359L142.938 101.935H143.056L145.529 92.0725H147.555L144.019 104.8H142.086L139.408 95.2668H139.308L136.63 104.8H134.691ZM149.157 104.8V95.2543H151.015V104.8H149.157ZM150.095 93.7815C149.772 93.7815 149.494 93.6738 149.262 93.4584C149.035 93.2388 148.921 92.9778 148.921 92.6753C148.921 92.3688 149.035 92.1077 149.262 91.8923C149.494 91.6727 149.772 91.5629 150.095 91.5629C150.418 91.5629 150.694 91.6727 150.922 91.8923C151.154 92.1077 151.27 92.3688 151.27 92.6753C151.27 92.9778 151.154 93.2388 150.922 93.4584C150.694 93.6738 150.418 93.7815 150.095 93.7815ZM155.373 99.1322V104.8H153.515V95.2543H155.298V96.808H155.416C155.636 96.3025 155.98 95.8965 156.448 95.5899C156.92 95.2834 157.515 95.1301 158.232 95.1301C158.882 95.1301 159.452 95.2668 159.941 95.5402C160.429 95.8095 160.808 96.2114 161.078 96.7458C161.347 97.2803 161.482 97.9411 161.482 98.7282V104.8H159.624V98.952C159.624 98.2601 159.443 97.7194 159.083 97.33C158.722 96.9364 158.227 96.7396 157.598 96.7396C157.167 96.7396 156.784 96.8328 156.448 97.0193C156.117 97.2057 155.853 97.4791 155.659 97.8396C155.468 98.1959 155.373 98.6267 155.373 99.1322ZM168.127 93.7256V92.0725H177.977V93.7256H174.005V104.8H172.091V93.7256H168.127ZM182.64 104.992C181.746 104.992 180.965 104.787 180.298 104.377C179.631 103.967 179.113 103.393 178.744 102.656C178.375 101.918 178.191 101.057 178.191 100.071C178.191 99.0804 178.375 98.2145 178.744 97.4729C179.113 96.7313 179.631 96.1555 180.298 95.7453C180.965 95.3351 181.746 95.1301 182.64 95.1301C183.535 95.1301 184.316 95.3351 184.983 95.7453C185.65 96.1555 186.168 96.7313 186.537 97.4729C186.906 98.2145 187.09 99.0804 187.09 100.071C187.09 101.057 186.906 101.918 186.537 102.656C186.168 103.393 185.65 103.967 184.983 104.377C184.316 104.787 183.535 104.992 182.64 104.992ZM182.647 103.433C183.227 103.433 183.707 103.279 184.088 102.973C184.47 102.666 184.751 102.258 184.934 101.748C185.12 101.239 185.213 100.678 185.213 100.064C185.213 99.4553 185.12 98.896 184.934 98.3865C184.751 97.8727 184.47 97.4605 184.088 97.1498C183.707 96.839 183.227 96.6837 182.647 96.6837C182.063 96.6837 181.578 96.839 181.193 97.1498C180.811 97.4605 180.528 97.8727 180.341 98.3865C180.159 98.896 180.068 99.4553 180.068 100.064C180.068 100.678 180.159 101.239 180.341 101.748C180.528 102.258 180.811 102.666 181.193 102.973C181.578 103.279 182.063 103.433 182.647 103.433ZM195.211 100.841V95.2543H197.075V104.8H195.248V103.147H195.149C194.929 103.656 194.577 104.081 194.092 104.421C193.612 104.756 193.013 104.924 192.296 104.924C191.683 104.924 191.14 104.789 190.668 104.52C190.2 104.247 189.831 103.843 189.562 103.308C189.297 102.774 189.164 102.113 189.164 101.326V95.2543H191.022V101.102C191.022 101.753 191.203 102.271 191.563 102.656C191.923 103.041 192.392 103.234 192.967 103.234C193.315 103.234 193.661 103.147 194.005 102.973C194.353 102.799 194.641 102.536 194.869 102.184C195.101 101.831 195.215 101.384 195.211 100.841ZM199.572 104.8V95.2543H201.368V96.7707H201.467C201.641 96.257 201.948 95.853 202.387 95.5589C202.83 95.2606 203.332 95.1114 203.891 95.1114C204.007 95.1114 204.144 95.1156 204.301 95.1238C204.463 95.1321 204.589 95.1425 204.68 95.1549V96.9323C204.606 96.9115 204.473 96.8888 204.282 96.8639C204.092 96.8349 203.901 96.8204 203.711 96.8204C203.272 96.8204 202.88 96.9136 202.536 97.1001C202.196 97.2823 201.927 97.5371 201.728 97.8644C201.529 98.1876 201.43 98.5563 201.43 98.9706V104.8H199.572ZM208.146 99.1322V104.8H206.288V95.2543H208.072V96.808H208.19C208.409 96.3025 208.753 95.8965 209.221 95.5899C209.694 95.2834 210.288 95.1301 211.005 95.1301C211.655 95.1301 212.225 95.2668 212.714 95.5402C213.203 95.8095 213.582 96.2114 213.851 96.7458C214.121 97.2803 214.255 97.9411 214.255 98.7282V104.8H212.397V98.952C212.397 98.2601 212.217 97.7194 211.856 97.33C211.496 96.9364 211.001 96.7396 210.371 96.7396C209.94 96.7396 209.557 96.8328 209.221 97.0193C208.89 97.2057 208.627 97.4791 208.432 97.8396C208.242 98.1959 208.146 98.6267 208.146 99.1322ZM219.525 105.011C218.92 105.011 218.373 104.899 217.884 104.676C217.396 104.448 217.008 104.118 216.722 103.687C216.441 103.257 216.3 102.728 216.3 102.103C216.3 101.564 216.403 101.121 216.61 100.773C216.818 100.425 217.097 100.149 217.449 99.9463C217.802 99.7433 218.195 99.59 218.63 99.4864C219.065 99.3828 219.508 99.3041 219.96 99.2503C220.532 99.184 220.996 99.1301 221.352 99.0887C221.708 99.0431 221.967 98.9706 222.129 98.8712C222.29 98.7718 222.371 98.6102 222.371 98.3865V98.343C222.371 97.8002 222.218 97.3797 221.911 97.0814C221.609 96.7831 221.157 96.634 220.557 96.634C219.931 96.634 219.438 96.7728 219.078 97.0503C218.721 97.3238 218.475 97.6283 218.338 97.9639L216.592 97.5661C216.799 96.9861 217.101 96.518 217.499 96.1617C217.901 95.8012 218.363 95.5402 218.885 95.3786C219.407 95.2129 219.956 95.1301 220.532 95.1301C220.913 95.1301 221.317 95.1756 221.744 95.2668C222.174 95.3538 222.576 95.5154 222.949 95.7515C223.326 95.9877 223.635 96.3253 223.875 96.7645C224.115 97.1995 224.236 97.765 224.236 98.461V104.8H222.421V103.495H222.346C222.226 103.735 222.046 103.971 221.806 104.203C221.565 104.435 221.257 104.628 220.88 104.781C220.503 104.934 220.051 105.011 219.525 105.011ZM219.929 103.52C220.443 103.52 220.882 103.418 221.246 103.215C221.615 103.012 221.895 102.747 222.085 102.42C222.28 102.088 222.377 101.734 222.377 101.357V100.127C222.311 100.193 222.183 100.255 221.992 100.313C221.806 100.367 221.592 100.414 221.352 100.456C221.112 100.493 220.878 100.528 220.65 100.562C220.422 100.591 220.231 100.615 220.078 100.636C219.718 100.682 219.388 100.758 219.09 100.866C218.796 100.974 218.56 101.129 218.382 101.332C218.208 101.531 218.121 101.796 218.121 102.128C218.121 102.587 218.29 102.935 218.63 103.172C218.97 103.404 219.403 103.52 219.929 103.52ZM226.711 104.8V95.2543H228.494V96.808H228.612C228.811 96.2818 229.136 95.8717 229.588 95.5775C230.039 95.2792 230.58 95.1301 231.21 95.1301C231.848 95.1301 232.382 95.2792 232.813 95.5775C233.248 95.8758 233.569 96.286 233.776 96.808H233.876C234.104 96.2984 234.466 95.8924 234.963 95.5899C235.461 95.2834 236.053 95.1301 236.741 95.1301C237.607 95.1301 238.313 95.4014 238.86 95.9442C239.411 96.4869 239.686 97.3051 239.686 98.3989V104.8H237.828V98.5729C237.828 97.9266 237.652 97.4584 237.3 97.1684C236.948 96.8784 236.527 96.7334 236.038 96.7334C235.434 96.7334 234.963 96.9198 234.628 97.2927C234.292 97.6614 234.124 98.1358 234.124 98.7158V104.8H232.273V98.4548C232.273 97.9369 232.111 97.5206 231.788 97.2057C231.465 96.8908 231.044 96.7334 230.526 96.7334C230.174 96.7334 229.849 96.8266 229.551 97.0131C229.256 97.1953 229.018 97.4501 228.836 97.7774C228.658 98.1047 228.569 98.4838 228.569 98.9147V104.8H226.711ZM246.291 104.992C245.35 104.992 244.54 104.792 243.861 104.39C243.186 103.984 242.664 103.414 242.295 102.681C241.93 101.943 241.748 101.079 241.748 100.089C241.748 99.1115 241.93 98.2497 242.295 97.504C242.664 96.7583 243.177 96.1762 243.836 95.7577C244.499 95.3393 245.274 95.1301 246.16 95.1301C246.699 95.1301 247.221 95.2191 247.726 95.3973C248.232 95.5754 248.685 95.8551 249.087 96.2362C249.489 96.6174 249.806 97.1125 250.038 97.7215C250.27 98.3264 250.386 99.0618 250.386 99.9276V100.586H242.798V99.1943H248.565C248.565 98.7055 248.466 98.2725 248.267 97.8955C248.068 97.5144 247.789 97.214 247.428 96.9944C247.072 96.7748 246.653 96.665 246.173 96.665C245.651 96.665 245.195 96.7935 244.806 97.0503C244.42 97.3031 244.122 97.6345 243.911 98.0447C243.704 98.4507 243.6 98.8919 243.6 99.3683V100.456C243.6 101.094 243.712 101.637 243.936 102.084C244.163 102.532 244.48 102.873 244.886 103.109C245.292 103.341 245.767 103.457 246.309 103.457C246.662 103.457 246.983 103.408 247.273 103.308C247.563 103.205 247.813 103.051 248.025 102.848C248.236 102.645 248.398 102.395 248.509 102.097L250.268 102.413C250.127 102.931 249.875 103.385 249.51 103.774C249.15 104.16 248.696 104.46 248.149 104.676C247.606 104.887 246.987 104.992 246.291 104.992ZM254.306 99.1322V104.8H252.448V95.2543H254.231V96.808H254.349C254.569 96.3025 254.913 95.8965 255.381 95.5899C255.853 95.2834 256.448 95.1301 257.165 95.1301C257.815 95.1301 258.385 95.2668 258.874 95.5402C259.362 95.8095 259.742 96.2114 260.011 96.7458C260.28 97.2803 260.415 97.9411 260.415 98.7282V104.8H258.557V98.952C258.557 98.2601 258.376 97.7194 258.016 97.33C257.656 96.9364 257.16 96.7396 256.531 96.7396C256.1 96.7396 255.717 96.8328 255.381 97.0193C255.05 97.2057 254.787 97.4791 254.592 97.8396C254.401 98.1959 254.306 98.6267 254.306 99.1322ZM267.363 95.2543V96.7458H262.149V95.2543H267.363ZM263.547 92.9674H265.405V101.997C265.405 102.358 265.459 102.629 265.567 102.811C265.674 102.989 265.813 103.112 265.983 103.178C266.157 103.24 266.346 103.271 266.549 103.271C266.698 103.271 266.828 103.261 266.94 103.24C267.052 103.219 267.139 103.203 267.201 103.19L267.537 104.725C267.429 104.767 267.276 104.808 267.077 104.85C266.878 104.895 266.629 104.92 266.331 104.924C265.842 104.932 265.386 104.845 264.964 104.663C264.541 104.481 264.199 104.199 263.938 103.818C263.677 103.437 263.547 102.958 263.547 102.382V92.9674ZM274.199 92.0725H276.529L280.581 101.966H280.73L284.782 92.0725H287.112V104.8H285.285V95.5899H285.167L281.414 104.781H279.897L276.144 95.5837H276.026V104.8H274.199V92.0725ZM292.533 105.011C291.928 105.011 291.381 104.899 290.892 104.676C290.403 104.448 290.016 104.118 289.73 103.687C289.448 103.257 289.308 102.728 289.308 102.103C289.308 101.564 289.411 101.121 289.618 100.773C289.825 100.425 290.105 100.149 290.457 99.9463C290.809 99.7433 291.203 99.59 291.638 99.4864C292.073 99.3828 292.516 99.3041 292.968 99.2503C293.54 99.184 294.004 99.1301 294.36 99.0887C294.716 99.0431 294.975 98.9706 295.137 98.8712C295.298 98.7718 295.379 98.6102 295.379 98.3865V98.343C295.379 97.8002 295.226 97.3797 294.919 97.0814C294.617 96.7831 294.165 96.634 293.564 96.634C292.939 96.634 292.446 96.7728 292.085 97.0503C291.729 97.3238 291.483 97.6283 291.346 97.9639L289.6 97.5661C289.807 96.9861 290.109 96.518 290.507 96.1617C290.909 95.8012 291.371 95.5402 291.893 95.3786C292.415 95.2129 292.964 95.1301 293.54 95.1301C293.921 95.1301 294.325 95.1756 294.751 95.2668C295.182 95.3538 295.584 95.5154 295.957 95.7515C296.334 95.9877 296.643 96.3253 296.883 96.7645C297.123 97.1995 297.243 97.765 297.243 98.461V104.8H295.429V103.495H295.354C295.234 103.735 295.054 103.971 294.814 104.203C294.573 104.435 294.265 104.628 293.888 104.781C293.511 104.934 293.059 105.011 292.533 105.011ZM292.937 103.52C293.451 103.52 293.89 103.418 294.254 103.215C294.623 103.012 294.903 102.747 295.093 102.42C295.288 102.088 295.385 101.734 295.385 101.357V100.127C295.319 100.193 295.191 100.255 295 100.313C294.814 100.367 294.6 100.414 294.36 100.456C294.12 100.493 293.886 100.528 293.658 100.562C293.43 100.591 293.239 100.615 293.086 100.636C292.725 100.682 292.396 100.758 292.098 100.866C291.804 100.974 291.568 101.129 291.389 101.332C291.215 101.531 291.128 101.796 291.128 102.128C291.128 102.587 291.298 102.935 291.638 103.172C291.978 103.404 292.411 103.52 292.937 103.52ZM304.174 95.2543V96.7458H298.96V95.2543H304.174ZM300.358 92.9674H302.217V101.997C302.217 102.358 302.27 102.629 302.378 102.811C302.486 102.989 302.625 103.112 302.795 103.178C302.969 103.24 303.157 103.271 303.36 103.271C303.509 103.271 303.64 103.261 303.752 103.24C303.863 103.219 303.95 103.203 304.013 103.19L304.348 104.725C304.24 104.767 304.087 104.808 303.888 104.85C303.689 104.895 303.441 104.92 303.143 104.924C302.654 104.932 302.198 104.845 301.775 104.663C301.353 104.481 301.011 104.199 300.75 103.818C300.489 103.437 300.358 102.958 300.358 102.382V92.9674ZM310.148 104.992C309.224 104.992 308.428 104.783 307.761 104.365C307.099 103.942 306.589 103.36 306.233 102.619C305.876 101.877 305.698 101.028 305.698 100.071C305.698 99.1011 305.881 98.2456 306.245 97.504C306.61 96.7583 307.123 96.1762 307.786 95.7577C308.449 95.3393 309.23 95.1301 310.129 95.1301C310.854 95.1301 311.501 95.2647 312.068 95.534C312.636 95.7992 313.093 96.172 313.441 96.6526C313.794 97.1332 314.003 97.6946 314.069 98.3367H312.261C312.161 97.8893 311.933 97.504 311.577 97.1808C311.225 96.8577 310.753 96.6961 310.16 96.6961C309.642 96.6961 309.189 96.8328 308.799 97.1063C308.414 97.3756 308.114 97.7609 307.898 98.2622C307.683 98.7593 307.575 99.3476 307.575 100.027C307.575 100.723 307.681 101.324 307.892 101.829C308.103 102.335 308.402 102.726 308.787 103.004C309.176 103.281 309.634 103.42 310.16 103.42C310.512 103.42 310.831 103.356 311.117 103.228C311.407 103.095 311.65 102.906 311.844 102.662C312.043 102.418 312.182 102.123 312.261 101.78H314.069C314.003 102.397 313.802 102.948 313.466 103.433C313.131 103.917 312.681 104.299 312.118 104.576C311.559 104.854 310.902 104.992 310.148 104.992ZM317.914 99.1322V104.8H316.056V92.0725H317.89V96.808H318.008C318.231 96.2942 318.573 95.8862 319.033 95.5837C319.493 95.2813 320.094 95.1301 320.835 95.1301C321.49 95.1301 322.062 95.2647 322.55 95.534C323.043 95.8033 323.425 96.2052 323.694 96.7396C323.967 97.2699 324.104 97.9328 324.104 98.7282V104.8H322.246V98.952C322.246 98.2518 322.066 97.7091 321.705 97.3238C321.345 96.9343 320.843 96.7396 320.201 96.7396C319.762 96.7396 319.369 96.8328 319.021 97.0193C318.677 97.2057 318.405 97.4791 318.206 97.8396C318.012 98.1959 317.914 98.6267 317.914 99.1322Z" fill="#E0E0E0"/>
<path d="M140.645 131.8H139.136L133.73 123.428C133.594 123.218 133.481 122.999 133.394 122.769H133.35C133.389 122.994 133.408 123.475 133.408 124.212V131.8H132.178V121.297H133.774L139.033 129.537C139.253 129.878 139.395 130.113 139.458 130.24H139.487C139.438 129.937 139.414 129.422 139.414 128.694V121.297H140.645V131.8ZM146.372 131.976C145.264 131.976 144.377 131.626 143.713 130.928C143.054 130.225 142.725 129.295 142.725 128.138C142.725 126.878 143.069 125.894 143.757 125.186C144.446 124.478 145.376 124.124 146.548 124.124C147.666 124.124 148.538 124.468 149.163 125.157C149.792 125.845 150.107 126.8 150.107 128.021C150.107 129.217 149.768 130.176 149.089 130.899C148.416 131.617 147.51 131.976 146.372 131.976ZM146.46 125.135C145.688 125.135 145.078 125.398 144.629 125.926C144.18 126.448 143.955 127.171 143.955 128.094C143.955 128.982 144.182 129.683 144.636 130.196C145.09 130.708 145.698 130.965 146.46 130.965C147.236 130.965 147.832 130.713 148.247 130.21C148.667 129.708 148.877 128.992 148.877 128.064C148.877 127.127 148.667 126.404 148.247 125.896C147.832 125.389 147.236 125.135 146.46 125.135ZM155.505 131.727C155.222 131.883 154.849 131.961 154.385 131.961C153.071 131.961 152.415 131.229 152.415 129.764V125.325H151.125V124.3H152.415V122.469L153.616 122.081V124.3H155.505V125.325H153.616V129.551C153.616 130.054 153.701 130.413 153.872 130.628C154.043 130.843 154.326 130.95 154.722 130.95C155.024 130.95 155.286 130.867 155.505 130.701V131.727ZM160.771 131.529V130.24C161.426 130.723 162.146 130.965 162.932 130.965C163.987 130.965 164.514 130.613 164.514 129.91C164.514 129.71 164.468 129.542 164.375 129.405C164.287 129.263 164.165 129.139 164.009 129.031C163.857 128.924 163.677 128.829 163.467 128.746C163.262 128.658 163.04 128.567 162.8 128.475C162.468 128.343 162.175 128.211 161.921 128.079C161.672 127.942 161.462 127.791 161.292 127.625C161.125 127.454 160.999 127.261 160.911 127.046C160.828 126.832 160.786 126.58 160.786 126.292C160.786 125.94 160.867 125.63 161.028 125.362C161.189 125.088 161.404 124.861 161.672 124.681C161.941 124.495 162.246 124.356 162.588 124.263C162.935 124.17 163.291 124.124 163.657 124.124C164.307 124.124 164.888 124.236 165.4 124.461V125.677C164.849 125.315 164.214 125.135 163.496 125.135C163.271 125.135 163.069 125.162 162.888 125.215C162.708 125.264 162.551 125.335 162.419 125.428C162.292 125.521 162.192 125.633 162.119 125.765C162.051 125.892 162.017 126.033 162.017 126.189C162.017 126.385 162.051 126.548 162.119 126.68C162.192 126.812 162.297 126.929 162.434 127.032C162.571 127.134 162.737 127.227 162.932 127.31C163.127 127.393 163.35 127.483 163.599 127.581C163.931 127.708 164.229 127.84 164.492 127.977C164.756 128.108 164.98 128.26 165.166 128.431C165.352 128.597 165.493 128.79 165.591 129.009C165.693 129.229 165.745 129.49 165.745 129.793C165.745 130.164 165.662 130.486 165.496 130.76C165.334 131.033 165.117 131.26 164.844 131.441C164.57 131.622 164.255 131.756 163.899 131.844C163.542 131.932 163.169 131.976 162.778 131.976C162.007 131.976 161.338 131.827 160.771 131.529ZM171.077 131.727C170.793 131.883 170.42 131.961 169.956 131.961C168.643 131.961 167.986 131.229 167.986 129.764V125.325H166.697V124.3H167.986V122.469L169.187 122.081V124.3H171.077V125.325H169.187V129.551C169.187 130.054 169.272 130.413 169.443 130.628C169.614 130.843 169.897 130.95 170.293 130.95C170.596 130.95 170.857 130.867 171.077 130.701V131.727ZM178.049 131.8H176.848V130.628H176.819C176.296 131.526 175.527 131.976 174.512 131.976C173.765 131.976 173.179 131.778 172.754 131.382C172.334 130.987 172.124 130.462 172.124 129.808C172.124 128.406 172.949 127.591 174.6 127.361L176.848 127.046C176.848 125.772 176.333 125.135 175.303 125.135C174.399 125.135 173.584 125.442 172.856 126.058V124.827C173.594 124.358 174.443 124.124 175.405 124.124C177.168 124.124 178.049 125.057 178.049 126.922V131.8ZM176.848 128.006L175.039 128.255C174.482 128.333 174.062 128.472 173.779 128.672C173.496 128.868 173.354 129.217 173.354 129.72C173.354 130.086 173.484 130.386 173.743 130.621C174.006 130.85 174.355 130.965 174.79 130.965C175.386 130.965 175.876 130.757 176.262 130.342C176.653 129.922 176.848 129.393 176.848 128.753V128.006ZM184.224 125.516C184.014 125.354 183.711 125.274 183.315 125.274C182.803 125.274 182.373 125.516 182.026 125.999C181.685 126.482 181.514 127.142 181.514 127.977V131.8H180.312V124.3H181.514V125.845H181.543C181.714 125.318 181.975 124.908 182.327 124.615C182.678 124.317 183.071 124.168 183.506 124.168C183.818 124.168 184.058 124.202 184.224 124.271V125.516ZM189.006 131.727C188.723 131.883 188.35 131.961 187.886 131.961C186.572 131.961 185.916 131.229 185.916 129.764V125.325H184.626V124.3H185.916V122.469L187.117 122.081V124.3H189.006V125.325H187.117V129.551C187.117 130.054 187.202 130.413 187.373 130.628C187.544 130.843 187.827 130.95 188.223 130.95C188.525 130.95 188.787 130.867 189.006 130.701V131.727ZM196.638 128.35H191.343C191.362 129.185 191.587 129.83 192.017 130.284C192.446 130.738 193.037 130.965 193.789 130.965C194.634 130.965 195.41 130.687 196.118 130.13V131.258C195.459 131.736 194.587 131.976 193.503 131.976C192.444 131.976 191.611 131.636 191.006 130.958C190.4 130.274 190.098 129.314 190.098 128.079C190.098 126.912 190.427 125.962 191.086 125.23C191.75 124.493 192.573 124.124 193.555 124.124C194.536 124.124 195.295 124.441 195.833 125.076C196.37 125.711 196.638 126.592 196.638 127.72V128.35ZM195.408 127.332C195.403 126.639 195.234 126.099 194.902 125.713C194.575 125.328 194.119 125.135 193.533 125.135C192.966 125.135 192.485 125.337 192.09 125.743C191.694 126.148 191.45 126.678 191.357 127.332H195.408ZM204.863 131.8H203.662V130.525H203.633C203.076 131.492 202.217 131.976 201.055 131.976C200.112 131.976 199.358 131.641 198.792 130.972C198.23 130.298 197.949 129.383 197.949 128.226C197.949 126.985 198.262 125.992 198.887 125.245C199.512 124.498 200.344 124.124 201.384 124.124C202.415 124.124 203.164 124.529 203.633 125.34H203.662V120.696H204.863V131.8ZM203.662 128.409V127.303C203.662 126.697 203.462 126.185 203.062 125.765C202.661 125.345 202.153 125.135 201.538 125.135C200.806 125.135 200.229 125.403 199.81 125.94C199.39 126.478 199.18 127.22 199.18 128.167C199.18 129.031 199.38 129.715 199.78 130.218C200.186 130.716 200.728 130.965 201.406 130.965C202.075 130.965 202.617 130.723 203.032 130.24C203.452 129.756 203.662 129.146 203.662 128.409Z" fill="#9E9E9E"/>
<path d="M250.958 12.1364C250.421 12.1364 249.95 11.9943 249.547 11.7102C249.144 11.4261 248.828 11.0298 248.601 10.5213C248.377 10.0128 248.264 9.42045 248.264 8.74432C248.264 8.07102 248.377 7.48153 248.601 6.97585C248.828 6.46733 249.145 6.07244 249.551 5.79119C249.958 5.5071 250.431 5.36506 250.97 5.36506C251.368 5.36506 251.699 5.43608 251.963 5.57812C252.227 5.71733 252.439 5.89062 252.598 6.09801C252.757 6.3054 252.881 6.5071 252.969 6.70312H253.037V3.27273H253.8V12H253.058V10.7855H252.969C252.881 10.9844 252.756 11.1889 252.594 11.3991C252.432 11.6065 252.218 11.7812 251.95 11.9233C251.686 12.0653 251.355 12.1364 250.958 12.1364ZM251.047 11.4418C251.47 11.4418 251.831 11.3267 252.129 11.0966C252.428 10.8636 252.655 10.544 252.811 10.1378C252.97 9.72869 253.05 9.25994 253.05 8.73153C253.05 8.20881 252.972 7.74716 252.816 7.34659C252.659 6.94318 252.432 6.62784 252.134 6.40057C251.835 6.17045 251.473 6.0554 251.047 6.0554C250.61 6.0554 250.24 6.17472 249.939 6.41335C249.641 6.64915 249.414 6.96875 249.257 7.37216C249.104 7.77557 249.027 8.22869 249.027 8.73153C249.027 9.24006 249.105 9.69886 249.262 10.108C249.418 10.517 249.645 10.8423 249.943 11.0838C250.244 11.3224 250.612 11.4418 251.047 11.4418ZM258.607 12.1364C257.996 12.1364 257.468 11.9943 257.021 11.7102C256.575 11.4233 256.23 11.027 255.986 10.5213C255.744 10.0128 255.624 9.42756 255.624 8.76562C255.624 8.10653 255.744 7.52131 255.986 7.00994C256.23 6.49574 256.567 6.09375 256.996 5.80398C257.428 5.51136 257.926 5.36506 258.492 5.36506C258.847 5.36506 259.189 5.4304 259.519 5.56108C259.848 5.68892 260.144 5.88636 260.405 6.15341C260.669 6.41761 260.878 6.75142 261.031 7.15483C261.185 7.5554 261.262 8.02983 261.262 8.57812V8.95312H256.148V8.28409H260.486C260.486 7.86364 260.401 7.4858 260.23 7.15057C260.063 6.8125 259.828 6.54545 259.527 6.34943C259.229 6.15341 258.884 6.0554 258.492 6.0554C258.077 6.0554 257.712 6.16619 257.396 6.38778C257.081 6.60937 256.834 6.90199 256.655 7.26562C256.479 7.62926 256.389 8.02699 256.387 8.45881V8.85938C256.387 9.37926 256.476 9.83381 256.655 10.223C256.837 10.6094 257.094 10.9091 257.426 11.1222C257.759 11.3352 258.152 11.4418 258.607 11.4418C258.916 11.4418 259.188 11.3935 259.421 11.2969C259.656 11.2003 259.854 11.071 260.013 10.9091C260.175 10.7443 260.297 10.5639 260.379 10.3679L261.1 10.6023C261 10.8778 260.837 11.1321 260.61 11.3651C260.385 11.598 260.104 11.7855 259.766 11.9276C259.431 12.0668 259.044 12.1364 258.607 12.1364ZM265.626 5.45455V6.11506H262.409V5.45455H265.626ZM263.415 12V4.49574C263.415 4.14347 263.496 3.84659 263.657 3.60511C263.822 3.36364 264.037 3.1804 264.301 3.0554C264.565 2.9304 264.845 2.8679 265.14 2.8679C265.339 2.8679 265.504 2.88494 265.635 2.91903C265.768 2.95028 265.873 2.98153 265.95 3.01278L265.729 3.67756C265.672 3.66051 265.602 3.64062 265.52 3.6179C265.437 3.59517 265.334 3.58381 265.209 3.58381C264.879 3.58381 264.625 3.67614 264.446 3.8608C264.267 4.04545 264.177 4.30966 264.177 4.65341L264.173 12H263.415ZM268.792 12.1491C268.398 12.1491 268.037 12.0724 267.71 11.919C267.383 11.7628 267.123 11.5384 266.93 11.2457C266.737 10.9503 266.64 10.5923 266.64 10.1719C266.64 9.84801 266.702 9.57528 266.824 9.35369C266.946 9.1321 267.119 8.95028 267.344 8.80824C267.568 8.66619 267.834 8.55398 268.14 8.47159C268.447 8.3892 268.785 8.32528 269.155 8.27983C269.521 8.23437 269.831 8.1946 270.084 8.16051C270.339 8.12642 270.534 8.07244 270.667 7.99858C270.801 7.92472 270.868 7.8054 270.868 7.64062V7.48722C270.868 7.04119 270.734 6.69034 270.467 6.43466C270.203 6.17614 269.822 6.04688 269.325 6.04688C268.854 6.04688 268.469 6.15057 268.17 6.35795C267.875 6.56534 267.667 6.80966 267.548 7.09091L266.828 6.83097C266.976 6.47301 267.18 6.1875 267.442 5.97443C267.703 5.75852 267.996 5.60369 268.319 5.50994C268.643 5.41335 268.971 5.36506 269.304 5.36506C269.554 5.36506 269.814 5.39773 270.084 5.46307C270.356 5.52841 270.609 5.64205 270.842 5.80398C271.075 5.96307 271.264 6.18608 271.409 6.47301C271.554 6.7571 271.626 7.1179 271.626 7.5554V12H270.868V10.9645H270.821C270.73 11.1577 270.595 11.3452 270.416 11.527C270.237 11.7088 270.013 11.858 269.743 11.9744C269.473 12.0909 269.156 12.1491 268.792 12.1491ZM268.895 11.4545C269.298 11.4545 269.648 11.3651 269.943 11.1861C270.238 11.0071 270.466 10.7699 270.625 10.4744C270.787 10.1761 270.868 9.84801 270.868 9.49006V8.54403C270.811 8.59801 270.716 8.64631 270.582 8.68892C270.452 8.73153 270.3 8.76989 270.126 8.80398C269.956 8.83523 269.785 8.86222 269.615 8.88494C269.444 8.90767 269.291 8.92756 269.155 8.9446C268.785 8.99006 268.47 9.06108 268.209 9.15767C267.947 9.25426 267.747 9.38778 267.608 9.55824C267.469 9.72585 267.399 9.94176 267.399 10.206C267.399 10.6037 267.541 10.9119 267.825 11.1307C268.109 11.3466 268.466 11.4545 268.895 11.4545ZM277.803 9.49858V5.45455H278.562V12H277.803V10.9134H277.743C277.59 11.2486 277.347 11.5284 277.015 11.7528C276.682 11.9744 276.276 12.0852 275.796 12.0852C275.378 12.0852 275.008 11.9943 274.684 11.8125C274.36 11.6278 274.106 11.358 273.921 11.0028C273.736 10.6477 273.644 10.2116 273.644 9.6946V5.45455H274.403V9.64773C274.403 10.1591 274.553 10.571 274.854 10.8835C275.155 11.1932 275.542 11.348 276.013 11.348C276.309 11.348 276.593 11.277 276.866 11.1349C277.138 10.9929 277.363 10.7855 277.539 10.5128C277.715 10.2372 277.803 9.89915 277.803 9.49858ZM281.328 3.27273V12H280.57V3.27273H281.328ZM285.914 5.45455V6.11506H282.79V5.45455H285.914ZM283.766 3.88636H284.529V10.2912C284.529 10.5639 284.575 10.7784 284.669 10.9347C284.763 11.0881 284.885 11.1974 285.036 11.2628C285.186 11.3253 285.347 11.3565 285.517 11.3565C285.617 11.3565 285.702 11.3509 285.773 11.3395C285.844 11.3253 285.906 11.3111 285.96 11.2969L286.122 11.983C286.048 12.0114 285.958 12.0369 285.85 12.0597C285.742 12.0852 285.608 12.098 285.449 12.098C285.171 12.098 284.902 12.0369 284.644 11.9148C284.388 11.7926 284.178 11.6108 284.013 11.3693C283.848 11.1278 283.766 10.8281 283.766 10.4702V3.88636Z" fill="white"/>
<path d="M818.561 7.90909V12H817.802V3.27273H818.561V6.48153H818.629C818.782 6.14347 819.02 5.87358 819.341 5.67188C819.664 5.47017 820.074 5.36932 820.568 5.36932C821.011 5.36932 821.4 5.46023 821.735 5.64205C822.071 5.82386 822.332 6.09233 822.52 6.44744C822.707 6.80256 822.801 7.24006 822.801 7.75994V12H822.038V7.80682C822.038 7.26705 821.887 6.84233 821.586 6.53267C821.288 6.22017 820.885 6.06392 820.376 6.06392C820.027 6.06392 819.716 6.13778 819.443 6.28551C819.17 6.43324 818.954 6.64631 818.795 6.92472C818.639 7.20028 818.561 7.52841 818.561 7.90909ZM827.342 12.1364C826.777 12.1364 826.277 11.9929 825.842 11.706C825.411 11.419 825.072 11.0227 824.828 10.517C824.584 10.0085 824.462 9.42187 824.462 8.7571C824.462 8.08665 824.584 7.49716 824.828 6.98864C825.072 6.47727 825.411 6.07955 825.842 5.79545C826.277 5.50852 826.777 5.36506 827.342 5.36506C827.908 5.36506 828.406 5.50852 828.838 5.79545C829.27 6.08239 829.608 6.48011 829.852 6.98864C830.099 7.49716 830.223 8.08665 830.223 8.7571C830.223 9.42187 830.101 10.0085 829.857 10.517C829.612 11.0227 829.273 11.419 828.838 11.706C828.406 11.9929 827.908 12.1364 827.342 12.1364ZM827.342 11.4418C827.797 11.4418 828.182 11.3196 828.497 11.0753C828.813 10.831 829.051 10.5057 829.213 10.0994C829.378 9.69318 829.46 9.24574 829.46 8.7571C829.46 8.26847 829.378 7.8196 829.213 7.41051C829.051 7.00142 828.813 6.6733 828.497 6.42614C828.182 6.17898 827.797 6.0554 827.342 6.0554C826.891 6.0554 826.506 6.17898 826.188 6.42614C825.872 6.6733 825.632 7.00142 825.467 7.41051C825.305 7.8196 825.224 8.26847 825.224 8.7571C825.224 9.24574 825.305 9.69318 825.467 10.0994C825.632 10.5057 825.872 10.831 826.188 11.0753C826.503 11.3196 826.888 11.4418 827.342 11.4418ZM836.721 5.45455L834.33 12H833.52L831.13 5.45455H831.952L833.895 10.9986H833.955L835.898 5.45455H836.721ZM840.616 12.1364C840.006 12.1364 839.477 11.9943 839.031 11.7102C838.585 11.4233 838.24 11.027 837.996 10.5213C837.754 10.0128 837.634 9.42756 837.634 8.76562C837.634 8.10653 837.754 7.52131 837.996 7.00994C838.24 6.49574 838.577 6.09375 839.006 5.80398C839.438 5.51136 839.936 5.36506 840.501 5.36506C840.857 5.36506 841.199 5.4304 841.528 5.56108C841.858 5.68892 842.153 5.88636 842.415 6.15341C842.679 6.41761 842.888 6.75142 843.041 7.15483C843.195 7.5554 843.271 8.02983 843.271 8.57812V8.95312H838.158V8.28409H842.496C842.496 7.86364 842.411 7.4858 842.24 7.15057C842.072 6.8125 841.838 6.54545 841.537 6.34943C841.239 6.15341 840.893 6.0554 840.501 6.0554C840.087 6.0554 839.722 6.16619 839.406 6.38778C839.091 6.60937 838.844 6.90199 838.665 7.26562C838.489 7.62926 838.399 8.02699 838.396 8.45881V8.85938C838.396 9.37926 838.486 9.83381 838.665 10.223C838.847 10.6094 839.104 10.9091 839.436 11.1222C839.768 11.3352 840.162 11.4418 840.616 11.4418C840.926 11.4418 841.197 11.3935 841.43 11.2969C841.666 11.2003 841.864 11.071 842.023 10.9091C842.185 10.7443 842.307 10.5639 842.389 10.3679L843.109 10.6023C843.01 10.8778 842.847 11.1321 842.619 11.3651C842.395 11.598 842.114 11.7855 841.776 11.9276C841.44 12.0668 841.054 12.1364 840.616 12.1364ZM844.943 12V5.45455H845.68V6.46023H845.735C845.866 6.13068 846.093 5.86506 846.417 5.66335C846.744 5.45881 847.113 5.35653 847.525 5.35653C847.588 5.35653 847.657 5.35795 847.734 5.3608C847.811 5.36364 847.875 5.36648 847.926 5.36932V6.14062C847.892 6.13494 847.832 6.12642 847.747 6.11506C847.662 6.10369 847.569 6.09801 847.47 6.09801C847.129 6.09801 846.825 6.17045 846.558 6.31534C846.294 6.45739 846.085 6.65483 845.931 6.90767C845.778 7.16051 845.701 7.44886 845.701 7.77273V12H844.943Z" fill="white"/>
<defs>
<filter id="filter0_d_70_4921" x="587.199" y="56" width="535.199" height="117.6" filterUnits="userSpaceOnUse" color-interpolation-filters="sRGB">
<feFlood flood-opacity="0" result="BackgroundImageFix"/>
<feColorMatrix in="SourceAlpha" type="matrix" values="0 0 0 0 0 0 0 0 0 0 0 0 0 0 0 0 0 0 127 0" result="hardAlpha"/>
<feOffset dy="4"/>
<feGaussianBlur stdDeviation="4"/>
<feComposite in2="hardAlpha" operator="out"/>
<feColorMatrix type="matrix" values="0 0 0 0 0 0 0 0 0 0 0 0 0 0 0 0 0 0 0.4 0"/>
<feBlend mode="normal" in2="BackgroundImageFix" result="effect1_dropShadow_70_4921"/>
<feBlend mode="normal" in="SourceGraphic" in2="effect1_dropShadow_70_4921" result="shape"/>
</filter>
</defs>
</svg>
