<svg width="330" height="111" viewBox="0 0 330 111" fill="none" xmlns="http://www.w3.org/2000/svg">
<rect x="0.25" y="30.8516" width="329.5" height="79.5" rx="4.75" fill="#1E1E1E" fill-opacity="0.7"/>
<rect x="0.25" y="30.8516" width="329.5" height="79.5" rx="4.75" stroke="white" stroke-width="0.5" stroke-dasharray="10 5"/>
<path d="M195 65.6016L185 75.6016" stroke="#E0E0E0" stroke-width="1.66667" stroke-linecap="round" stroke-linejoin="round"/>
<path d="M185 65.6016L195 75.6016" stroke="#E0E0E0" stroke-width="1.66667" stroke-linecap="round" stroke-linejoin="round"/>
<g opacity="0.7">
<path d="M45 65.6016L35 75.6016" stroke="#E0E0E0" stroke-width="1.66667" stroke-linecap="round" stroke-linejoin="round"/>
<path d="M35 65.6016L45 75.6016" stroke="#E0E0E0" stroke-width="1.66667" stroke-linecap="round" stroke-linejoin="round"/>
</g>
<path d="M43.358 12.7379C42.821 12.7379 42.3509 12.5959 41.9474 12.3118C41.544 12.0277 41.2287 11.6314 41.0014 11.1229C40.777 10.6143 40.6648 10.022 40.6648 9.34588C40.6648 8.67259 40.777 8.0831 41.0014 7.57741C41.2287 7.06889 41.5455 6.67401 41.9517 6.39276C42.358 6.10866 42.831 5.96662 43.3707 5.96662C43.7685 5.96662 44.0994 6.03764 44.3636 6.17969C44.6278 6.31889 44.8395 6.49219 44.9986 6.69957C45.1577 6.90696 45.2813 7.10866 45.3693 7.30469H45.4375V3.87429H46.2003V12.6016H45.4588V11.3871H45.3693C45.2813 11.5859 45.1563 11.7905 44.9943 12.0007C44.8324 12.2081 44.6179 12.3828 44.3509 12.5249C44.0866 12.6669 43.7557 12.7379 43.358 12.7379ZM43.4474 12.0433C43.8707 12.0433 44.2315 11.9283 44.5298 11.6982C44.8281 11.4652 45.0554 11.1456 45.2116 10.7393C45.3707 10.3303 45.4503 9.86151 45.4503 9.3331C45.4503 8.81037 45.3722 8.34872 45.2159 7.94815C45.0597 7.54474 44.8324 7.2294 44.5341 7.00213C44.2358 6.77202 43.8736 6.65696 43.4474 6.65696C43.0099 6.65696 42.6406 6.77628 42.3395 7.01491C42.0412 7.25071 41.8139 7.57031 41.6577 7.97372C41.5043 8.37713 41.4276 8.83026 41.4276 9.3331C41.4276 9.84162 41.5057 10.3004 41.6619 10.7095C41.8182 11.1186 42.0455 11.4439 42.3438 11.6854C42.6449 11.924 43.0128 12.0433 43.4474 12.0433ZM51.0071 12.7379C50.3963 12.7379 49.8679 12.5959 49.4219 12.3118C48.9759 12.0249 48.6307 11.6286 48.3864 11.1229C48.1449 10.6143 48.0241 10.0291 48.0241 9.36719C48.0241 8.7081 48.1449 8.12287 48.3864 7.61151C48.6307 7.0973 48.9673 6.69531 49.3963 6.40554C49.8281 6.11293 50.3267 5.96662 50.892 5.96662C51.2472 5.96662 51.5895 6.03196 51.919 6.16264C52.2486 6.29048 52.544 6.48793 52.8054 6.75497C53.0696 7.01918 53.2784 7.35298 53.4318 7.75639C53.5852 8.15696 53.6619 8.63139 53.6619 9.17969V9.55469H48.5483V8.88565H52.8864C52.8864 8.4652 52.8011 8.08736 52.6307 7.75213C52.4631 7.41406 52.2287 7.14702 51.9276 6.95099C51.6293 6.75497 51.2841 6.65696 50.892 6.65696C50.4773 6.65696 50.1122 6.76776 49.7969 6.98935C49.4815 7.21094 49.2344 7.50355 49.0554 7.86719C48.8793 8.23082 48.7898 8.62855 48.7869 9.06037V9.46094C48.7869 9.98082 48.8764 10.4354 49.0554 10.8246C49.2372 11.2109 49.4943 11.5107 49.8267 11.7237C50.1591 11.9368 50.5526 12.0433 51.0071 12.0433C51.3168 12.0433 51.5881 11.995 51.821 11.8984C52.0568 11.8018 52.2543 11.6726 52.4134 11.5107C52.5753 11.3459 52.6974 11.1655 52.7798 10.9695L53.5 11.2038C53.4006 11.4794 53.2372 11.7337 53.0099 11.9666C52.7855 12.1996 52.5043 12.3871 52.1662 12.5291C51.831 12.6683 51.4446 12.7379 51.0071 12.7379ZM58.0266 6.05611V6.71662H54.8093V6.05611H58.0266ZM55.815 12.6016V5.0973C55.815 4.74503 55.896 4.44815 56.0579 4.20668C56.2227 3.9652 56.4371 3.78196 56.7013 3.65696C56.9656 3.53196 57.2454 3.46946 57.5408 3.46946C57.7397 3.46946 57.9045 3.48651 58.0352 3.5206C58.1687 3.55185 58.2738 3.5831 58.3505 3.61435L58.1289 4.27912C58.0721 4.26207 58.0025 4.24219 57.9201 4.21946C57.8377 4.19673 57.734 4.18537 57.609 4.18537C57.2795 4.18537 57.0252 4.2777 56.8462 4.46236C56.6673 4.64702 56.5778 4.91122 56.5778 5.25497L56.5735 12.6016H55.815ZM61.1928 12.7507C60.7979 12.7507 60.4371 12.674 60.1104 12.5206C59.7837 12.3643 59.5238 12.1399 59.3306 11.8473C59.1374 11.5518 59.0408 11.1939 59.0408 10.7734C59.0408 10.4496 59.1019 10.1768 59.2241 9.95526C59.3462 9.73366 59.5195 9.55185 59.744 9.4098C59.9684 9.26776 60.234 9.15554 60.5408 9.07315C60.8477 8.99077 61.1857 8.92685 61.555 8.88139C61.9215 8.83594 62.2312 8.79616 62.484 8.76207C62.7397 8.72798 62.9343 8.67401 63.0678 8.60014C63.2013 8.52628 63.2681 8.40696 63.2681 8.24219V8.08878C63.2681 7.64276 63.1346 7.2919 62.8675 7.03622C62.6033 6.7777 62.2227 6.64844 61.7255 6.64844C61.2539 6.64844 60.869 6.75213 60.5707 6.95952C60.2752 7.1669 60.0678 7.41122 59.9485 7.69247L59.2283 7.43253C59.3761 7.07457 59.5806 6.78906 59.842 6.57599C60.1033 6.36009 60.396 6.20526 60.7198 6.11151C61.0437 6.01491 61.3718 5.96662 61.7042 5.96662C61.9542 5.96662 62.2141 5.99929 62.484 6.06463C62.7567 6.12997 63.0096 6.24361 63.2425 6.40554C63.4755 6.56463 63.6644 6.78764 63.8093 7.07457C63.9542 7.35866 64.0266 7.71946 64.0266 8.15696V12.6016H63.2681V11.5661H63.2212C63.1303 11.7592 62.9954 11.9467 62.8164 12.1286C62.6374 12.3104 62.413 12.4595 62.1431 12.576C61.8732 12.6925 61.5565 12.7507 61.1928 12.7507ZM61.2951 12.0561C61.6985 12.0561 62.0479 11.9666 62.3434 11.7876C62.6388 11.6087 62.8661 11.3714 63.0252 11.076C63.1871 10.7777 63.2681 10.4496 63.2681 10.0916V9.1456C63.2113 9.19957 63.1161 9.24787 62.9826 9.29048C62.8519 9.3331 62.6999 9.37145 62.5266 9.40554C62.3562 9.43679 62.1857 9.46378 62.0153 9.48651C61.8448 9.50923 61.6914 9.52912 61.555 9.54616C61.1857 9.59162 60.8704 9.66264 60.609 9.75923C60.3477 9.85582 60.1474 9.98935 60.0082 10.1598C59.869 10.3274 59.7994 10.5433 59.7994 10.8075C59.7994 11.2053 59.9414 11.5135 60.2255 11.7322C60.5096 11.9482 60.8661 12.0561 61.2951 12.0561ZM70.2035 10.1001V6.05611H70.962V12.6016H70.2035V11.5149H70.1438C69.9904 11.8501 69.7475 12.13 69.4151 12.3544C69.0827 12.576 68.6765 12.6868 68.1964 12.6868C67.7788 12.6868 67.408 12.5959 67.0842 12.4141C66.7603 12.2294 66.506 11.9595 66.3214 11.6044C66.1367 11.2493 66.0444 10.8132 66.0444 10.2962V6.05611H66.8029V10.2493C66.8029 10.7607 66.9535 11.1726 67.2546 11.4851C67.5558 11.7947 67.9421 11.9496 68.4137 11.9496C68.7092 11.9496 68.9933 11.8786 69.266 11.7365C69.5387 11.5945 69.7631 11.3871 69.9393 11.1143C70.1154 10.8388 70.2035 10.5007 70.2035 10.1001ZM73.7287 3.87429V12.6016H72.9702V3.87429H73.7287ZM78.3139 6.05611V6.71662H75.1903V6.05611H78.3139ZM76.1662 4.48793H76.929V10.8928C76.929 11.1655 76.9759 11.38 77.0696 11.5362C77.1634 11.6896 77.2855 11.799 77.4361 11.8643C77.5866 11.9268 77.7472 11.9581 77.9176 11.9581C78.017 11.9581 78.1023 11.9524 78.1733 11.9411C78.2443 11.9268 78.3068 11.9126 78.3608 11.8984L78.5227 12.5845C78.4489 12.6129 78.358 12.6385 78.25 12.6612C78.142 12.6868 78.0085 12.6996 77.8494 12.6996C77.571 12.6996 77.3026 12.6385 77.044 12.5163C76.7884 12.3942 76.5781 12.2124 76.4134 11.9709C76.2486 11.7294 76.1662 11.4297 76.1662 11.0717V4.48793Z" fill="white"/>
<path d="M195.76 8.51065V12.6016H195.001V3.87429H195.76V7.0831H195.828C195.982 6.74503 196.219 6.47514 196.54 6.27344C196.864 6.07173 197.273 5.97088 197.767 5.97088C198.21 5.97088 198.599 6.06179 198.935 6.24361C199.27 6.42543 199.531 6.69389 199.719 7.04901C199.906 7.40412 200 7.84162 200 8.36151V12.6016H199.237V8.40838C199.237 7.86861 199.087 7.44389 198.786 7.13423C198.487 6.82173 198.084 6.66548 197.575 6.66548C197.226 6.66548 196.915 6.73935 196.642 6.88707C196.369 7.0348 196.153 7.24787 195.994 7.52628C195.838 7.80185 195.76 8.12997 195.76 8.51065ZM204.542 12.7379C203.976 12.7379 203.476 12.5945 203.042 12.3075C202.61 12.0206 202.272 11.6243 202.027 11.1186C201.783 10.6101 201.661 10.0234 201.661 9.35866C201.661 8.68821 201.783 8.09872 202.027 7.5902C202.272 7.07884 202.61 6.68111 203.042 6.39702C203.476 6.11009 203.976 5.96662 204.542 5.96662C205.107 5.96662 205.605 6.11009 206.037 6.39702C206.469 6.68395 206.807 7.08168 207.051 7.5902C207.299 8.09872 207.422 8.68821 207.422 9.35866C207.422 10.0234 207.3 10.6101 207.056 11.1186C206.811 11.6243 206.472 12.0206 206.037 12.3075C205.605 12.5945 205.107 12.7379 204.542 12.7379ZM204.542 12.0433C204.996 12.0433 205.381 11.9212 205.696 11.6768C206.012 11.4325 206.25 11.1072 206.412 10.701C206.577 10.2947 206.659 9.8473 206.659 9.35866C206.659 8.87003 206.577 8.42116 206.412 8.01207C206.25 7.60298 206.012 7.27486 205.696 7.0277C205.381 6.78054 204.996 6.65696 204.542 6.65696C204.09 6.65696 203.705 6.78054 203.387 7.0277C203.071 7.27486 202.831 7.60298 202.667 8.01207C202.505 8.42116 202.424 8.87003 202.424 9.35866C202.424 9.8473 202.505 10.2947 202.667 10.701C202.831 11.1072 203.071 11.4325 203.387 11.6768C203.702 11.9212 204.087 12.0433 204.542 12.0433ZM213.92 6.05611L211.529 12.6016H210.719L208.329 6.05611H209.151L211.094 11.6001H211.154L213.097 6.05611H213.92ZM217.816 12.7379C217.205 12.7379 216.676 12.5959 216.23 12.3118C215.784 12.0249 215.439 11.6286 215.195 11.1229C214.953 10.6143 214.833 10.0291 214.833 9.36719C214.833 8.7081 214.953 8.12287 215.195 7.61151C215.439 7.0973 215.776 6.69531 216.205 6.40554C216.637 6.11293 217.135 5.96662 217.701 5.96662C218.056 5.96662 218.398 6.03196 218.728 6.16264C219.057 6.29048 219.353 6.48793 219.614 6.75497C219.878 7.01918 220.087 7.35298 220.24 7.75639C220.394 8.15696 220.471 8.63139 220.471 9.17969V9.55469H215.357V8.88565H219.695C219.695 8.4652 219.61 8.08736 219.439 7.75213C219.272 7.41406 219.037 7.14702 218.736 6.95099C218.438 6.75497 218.093 6.65696 217.701 6.65696C217.286 6.65696 216.921 6.76776 216.605 6.98935C216.29 7.21094 216.043 7.50355 215.864 7.86719C215.688 8.23082 215.598 8.62855 215.596 9.06037V9.46094C215.596 9.98082 215.685 10.4354 215.864 10.8246C216.046 11.2109 216.303 11.5107 216.635 11.7237C216.968 11.9368 217.361 12.0433 217.816 12.0433C218.125 12.0433 218.397 11.995 218.63 11.8984C218.865 11.8018 219.063 11.6726 219.222 11.5107C219.384 11.3459 219.506 11.1655 219.588 10.9695L220.309 11.2038C220.209 11.4794 220.046 11.7337 219.819 11.9666C219.594 12.1996 219.313 12.3871 218.975 12.5291C218.64 12.6683 218.253 12.7379 217.816 12.7379ZM222.142 12.6016V6.05611H222.879V7.06179H222.935C223.065 6.73224 223.293 6.46662 223.616 6.26491C223.943 6.06037 224.312 5.9581 224.724 5.9581C224.787 5.9581 224.857 5.95952 224.933 5.96236C225.01 5.9652 225.074 5.96804 225.125 5.97088V6.74219C225.091 6.73651 225.031 6.72798 224.946 6.71662C224.861 6.70526 224.768 6.69957 224.669 6.69957C224.328 6.69957 224.024 6.77202 223.757 6.9169C223.493 7.05895 223.284 7.25639 223.131 7.50923C222.977 7.76207 222.901 8.05043 222.901 8.37429V12.6016H222.142Z" fill="white"/>
</svg>
