<svg width="450" height="210" viewBox="0 0 450 210" fill="none" xmlns="http://www.w3.org/2000/svg">
<rect x="120.25" y="30.25" width="329.5" height="179.5" rx="4.75" fill="#1E1E1E" fill-opacity="0.7"/>
<rect x="120.25" y="30.25" width="329.5" height="179.5" rx="4.75" stroke="white" stroke-width="0.5" stroke-dasharray="10 5"/>
<mask id="path-2-inside-1_70_4905" fill="white">
<path d="M300 68C300 63.5817 303.582 60 308 60H341.6C346.018 60 349.6 63.5817 349.6 68V97C349.6 101.418 346.018 105 341.6 105H308C303.582 105 300 101.418 300 97V68Z"/>
</mask>
<path d="M300 68C300 63.5817 303.582 60 308 60H341.6C346.018 60 349.6 63.5817 349.6 68V97C349.6 101.418 346.018 105 341.6 105H308C303.582 105 300 101.418 300 97V68Z" fill="#67FF15"/>
<path d="M308 60V61H341.6V60V59H308V60ZM349.6 68H348.6V97H349.6H350.6V68H349.6ZM341.6 105V104H308V105V106H341.6V105ZM300 97H301V68H300H299V97H300ZM308 105V104C304.134 104 301 100.866 301 97H300H299C299 101.971 303.029 106 308 106V105ZM349.6 97H348.6C348.6 100.866 345.466 104 341.6 104V105V106C346.571 106 350.6 101.971 350.6 97H349.6ZM341.6 60V61C345.466 61 348.6 64.134 348.6 68H349.6H350.6C350.6 63.0294 346.571 59 341.6 59V60ZM308 60V59C303.029 59 299 63.0294 299 68H300H301C301 64.134 304.134 61 308 61V60Z" fill="#272727" mask="url(#path-2-inside-1_70_4905)"/>
<path d="M325.76 88.5H323.849L322.904 85.8267H318.773L317.865 88.5H315.96L319.894 77.9971H321.856L325.76 88.5ZM322.442 84.4058L320.985 80.2163C320.941 80.0796 320.895 79.8599 320.846 79.5571H320.816C320.772 79.8354 320.724 80.0552 320.67 80.2163L319.227 84.4058H322.442ZM328.727 88.5H327.02V77.3965H328.727V88.5ZM332.652 88.5H330.946V77.3965H332.652V88.5Z" fill="black"/>
<mask id="path-5-inside-2_70_4905" fill="white">
<path d="M150 68C150 63.5817 153.582 60 158 60H191.6C196.018 60 199.6 63.5817 199.6 68V97C199.6 101.418 196.018 105 191.6 105H158C153.582 105 150 101.418 150 97V68Z"/>
</mask>
<path d="M150 68C150 63.5817 153.582 60 158 60H191.6C196.018 60 199.6 63.5817 199.6 68V97C199.6 101.418 196.018 105 191.6 105H158C153.582 105 150 101.418 150 97V68Z" fill="#1A1A1A"/>
<path d="M158 60V61H191.6V60V59H158V60ZM199.6 68H198.6V97H199.6H200.6V68H199.6ZM191.6 105V104H158V105V106H191.6V105ZM150 97H151V68H150H149V97H150ZM158 105V104C154.134 104 151 100.866 151 97H150H149C149 101.971 153.029 106 158 106V105ZM199.6 97H198.6C198.6 100.866 195.466 104 191.6 104V105V106C196.571 106 200.6 101.971 200.6 97H199.6ZM191.6 60V61C195.466 61 198.6 64.134 198.6 68H199.6H200.6C200.6 63.0294 196.571 59 191.6 59V60ZM158 60V59C153.029 59 149 63.0294 149 68H150H151C151 64.134 154.134 61 158 61V60Z" fill="#272727" mask="url(#path-5-inside-2_70_4905)"/>
<path d="M175.76 88.5H173.849L172.904 85.8267H168.773L167.865 88.5H165.96L169.894 77.9971H171.856L175.76 88.5ZM172.442 84.4058L170.985 80.2163C170.941 80.0796 170.895 79.8599 170.846 79.5571H170.816C170.772 79.8354 170.724 80.0552 170.67 80.2163L169.227 84.4058H172.442ZM178.727 88.5H177.02V77.3965H178.727V88.5ZM182.652 88.5H180.946V77.3965H182.652V88.5Z" fill="#E0E0E0"/>
<rect x="300" y="135" width="48" height="45" rx="8" fill="#D83EFF" fill-opacity="0.9"/>
<path d="M324.959 163.5H323.048L322.103 160.827H317.972L317.064 163.5H315.16L319.093 152.997H321.056L324.959 163.5ZM321.642 159.406L320.184 155.216C320.14 155.08 320.094 154.86 320.045 154.557H320.016C319.972 154.835 319.923 155.055 319.869 155.216L318.426 159.406H321.642ZM327.926 163.5H326.219V152.396H327.926V163.5ZM331.852 163.5H330.145V152.396H331.852V163.5Z" fill="white"/>
<rect x="150" y="135" width="48" height="45" rx="8" fill="#D83EFF"/>
<path d="M174.959 163.5H173.048L172.103 160.827H167.972L167.064 163.5H165.16L169.093 152.997H171.056L174.959 163.5ZM171.642 159.406L170.184 155.216C170.14 155.08 170.094 154.86 170.045 154.557H170.016C169.972 154.835 169.923 155.055 169.869 155.216L168.426 159.406H171.642ZM177.926 163.5H176.219V152.396H177.926V163.5ZM181.852 163.5H180.145V152.396H181.852V163.5Z" fill="white"/>
<path d="M163.358 12.1364C162.821 12.1364 162.351 11.9943 161.947 11.7102C161.544 11.4261 161.229 11.0298 161.001 10.5213C160.777 10.0128 160.665 9.42045 160.665 8.74432C160.665 8.07102 160.777 7.48153 161.001 6.97585C161.229 6.46733 161.545 6.07244 161.952 5.79119C162.358 5.5071 162.831 5.36506 163.371 5.36506C163.768 5.36506 164.099 5.43608 164.364 5.57812C164.628 5.71733 164.839 5.89062 164.999 6.09801C165.158 6.3054 165.281 6.5071 165.369 6.70312H165.438V3.27273H166.2V12H165.459V10.7855H165.369C165.281 10.9844 165.156 11.1889 164.994 11.3991C164.832 11.6065 164.618 11.7812 164.351 11.9233C164.087 12.0653 163.756 12.1364 163.358 12.1364ZM163.447 11.4418C163.871 11.4418 164.232 11.3267 164.53 11.0966C164.828 10.8636 165.055 10.544 165.212 10.1378C165.371 9.72869 165.45 9.25994 165.45 8.73153C165.45 8.20881 165.372 7.74716 165.216 7.34659C165.06 6.94318 164.832 6.62784 164.534 6.40057C164.236 6.17045 163.874 6.0554 163.447 6.0554C163.01 6.0554 162.641 6.17472 162.339 6.41335C162.041 6.64915 161.814 6.96875 161.658 7.37216C161.504 7.77557 161.428 8.22869 161.428 8.73153C161.428 9.24006 161.506 9.69886 161.662 10.108C161.818 10.517 162.045 10.8423 162.344 11.0838C162.645 11.3224 163.013 11.4418 163.447 11.4418ZM171.007 12.1364C170.396 12.1364 169.868 11.9943 169.422 11.7102C168.976 11.4233 168.631 11.027 168.386 10.5213C168.145 10.0128 168.024 9.42756 168.024 8.76562C168.024 8.10653 168.145 7.52131 168.386 7.00994C168.631 6.49574 168.967 6.09375 169.396 5.80398C169.828 5.51136 170.327 5.36506 170.892 5.36506C171.247 5.36506 171.589 5.4304 171.919 5.56108C172.249 5.68892 172.544 5.88636 172.805 6.15341C173.07 6.41761 173.278 6.75142 173.432 7.15483C173.585 7.5554 173.662 8.02983 173.662 8.57812V8.95312H168.548V8.28409H172.886C172.886 7.86364 172.801 7.4858 172.631 7.15057C172.463 6.8125 172.229 6.54545 171.928 6.34943C171.629 6.15341 171.284 6.0554 170.892 6.0554C170.477 6.0554 170.112 6.16619 169.797 6.38778C169.482 6.60937 169.234 6.90199 169.055 7.26562C168.879 7.62926 168.79 8.02699 168.787 8.45881V8.85938C168.787 9.37926 168.876 9.83381 169.055 10.223C169.237 10.6094 169.494 10.9091 169.827 11.1222C170.159 11.3352 170.553 11.4418 171.007 11.4418C171.317 11.4418 171.588 11.3935 171.821 11.2969C172.057 11.2003 172.254 11.071 172.413 10.9091C172.575 10.7443 172.697 10.5639 172.78 10.3679L173.5 10.6023C173.401 10.8778 173.237 11.1321 173.01 11.3651C172.786 11.598 172.504 11.7855 172.166 11.9276C171.831 12.0668 171.445 12.1364 171.007 12.1364ZM178.027 5.45455V6.11506H174.809V5.45455H178.027ZM175.815 12V4.49574C175.815 4.14347 175.896 3.84659 176.058 3.60511C176.223 3.36364 176.437 3.1804 176.701 3.0554C176.966 2.9304 177.245 2.8679 177.541 2.8679C177.74 2.8679 177.904 2.88494 178.035 2.91903C178.169 2.95028 178.274 2.98153 178.35 3.01278L178.129 3.67756C178.072 3.66051 178.002 3.64062 177.92 3.6179C177.838 3.59517 177.734 3.58381 177.609 3.58381C177.279 3.58381 177.025 3.67614 176.846 3.8608C176.667 4.04545 176.578 4.30966 176.578 4.65341L176.574 12H175.815ZM181.193 12.1491C180.798 12.1491 180.437 12.0724 180.11 11.919C179.784 11.7628 179.524 11.5384 179.331 11.2457C179.137 10.9503 179.041 10.5923 179.041 10.1719C179.041 9.84801 179.102 9.57528 179.224 9.35369C179.346 9.1321 179.52 8.95028 179.744 8.80824C179.968 8.66619 180.234 8.55398 180.541 8.47159C180.848 8.3892 181.186 8.32528 181.555 8.27983C181.922 8.23437 182.231 8.1946 182.484 8.16051C182.74 8.12642 182.934 8.07244 183.068 7.99858C183.201 7.92472 183.268 7.8054 183.268 7.64062V7.48722C183.268 7.04119 183.135 6.69034 182.868 6.43466C182.603 6.17614 182.223 6.04688 181.725 6.04688C181.254 6.04688 180.869 6.15057 180.571 6.35795C180.275 6.56534 180.068 6.80966 179.949 7.09091L179.228 6.83097C179.376 6.47301 179.581 6.1875 179.842 5.97443C180.103 5.75852 180.396 5.60369 180.72 5.50994C181.044 5.41335 181.372 5.36506 181.704 5.36506C181.954 5.36506 182.214 5.39773 182.484 5.46307C182.757 5.52841 183.01 5.64205 183.243 5.80398C183.475 5.96307 183.664 6.18608 183.809 6.47301C183.954 6.7571 184.027 7.1179 184.027 7.5554V12H183.268V10.9645H183.221C183.13 11.1577 182.995 11.3452 182.816 11.527C182.637 11.7088 182.413 11.858 182.143 11.9744C181.873 12.0909 181.556 12.1491 181.193 12.1491ZM181.295 11.4545C181.699 11.4545 182.048 11.3651 182.343 11.1861C182.639 11.0071 182.866 10.7699 183.025 10.4744C183.187 10.1761 183.268 9.84801 183.268 9.49006V8.54403C183.211 8.59801 183.116 8.64631 182.983 8.68892C182.852 8.73153 182.7 8.76989 182.527 8.80398C182.356 8.83523 182.186 8.86222 182.015 8.88494C181.845 8.90767 181.691 8.92756 181.555 8.9446C181.186 8.99006 180.87 9.06108 180.609 9.15767C180.348 9.25426 180.147 9.38778 180.008 9.55824C179.869 9.72585 179.799 9.94176 179.799 10.206C179.799 10.6037 179.941 10.9119 180.225 11.1307C180.51 11.3466 180.866 11.4545 181.295 11.4545ZM190.203 9.49858V5.45455H190.962V12H190.203V10.9134H190.144C189.99 11.2486 189.748 11.5284 189.415 11.7528C189.083 11.9744 188.676 12.0852 188.196 12.0852C187.779 12.0852 187.408 11.9943 187.084 11.8125C186.76 11.6278 186.506 11.358 186.321 11.0028C186.137 10.6477 186.044 10.2116 186.044 9.6946V5.45455H186.803V9.64773C186.803 10.1591 186.953 10.571 187.255 10.8835C187.556 11.1932 187.942 11.348 188.414 11.348C188.709 11.348 188.993 11.277 189.266 11.1349C189.539 10.9929 189.763 10.7855 189.939 10.5128C190.115 10.2372 190.203 9.89915 190.203 9.49858ZM193.729 3.27273V12H192.97V3.27273H193.729ZM198.314 5.45455V6.11506H195.19V5.45455H198.314ZM196.166 3.88636H196.929V10.2912C196.929 10.5639 196.976 10.7784 197.07 10.9347C197.163 11.0881 197.286 11.1974 197.436 11.2628C197.587 11.3253 197.747 11.3565 197.918 11.3565C198.017 11.3565 198.102 11.3509 198.173 11.3395C198.244 11.3253 198.307 11.3111 198.361 11.2969L198.523 11.983C198.449 12.0114 198.358 12.0369 198.25 12.0597C198.142 12.0852 198.009 12.098 197.849 12.098C197.571 12.098 197.303 12.0369 197.044 11.9148C196.788 11.7926 196.578 11.6108 196.413 11.3693C196.249 11.1278 196.166 10.8281 196.166 10.4702V3.88636Z" fill="white"/>
<path d="M315.76 7.90909V12H315.001V3.27273H315.76V6.48153H315.828C315.982 6.14347 316.219 5.87358 316.54 5.67188C316.864 5.47017 317.273 5.36932 317.767 5.36932C318.21 5.36932 318.599 5.46023 318.935 5.64205C319.27 5.82386 319.531 6.09233 319.719 6.44744C319.906 6.80256 320 7.24006 320 7.75994V12H319.237V7.80682C319.237 7.26705 319.087 6.84233 318.786 6.53267C318.487 6.22017 318.084 6.06392 317.575 6.06392C317.226 6.06392 316.915 6.13778 316.642 6.28551C316.369 6.43324 316.153 6.64631 315.994 6.92472C315.838 7.20028 315.76 7.52841 315.76 7.90909ZM324.542 12.1364C323.976 12.1364 323.476 11.9929 323.042 11.706C322.61 11.419 322.272 11.0227 322.027 10.517C321.783 10.0085 321.661 9.42187 321.661 8.7571C321.661 8.08665 321.783 7.49716 322.027 6.98864C322.272 6.47727 322.61 6.07955 323.042 5.79545C323.476 5.50852 323.976 5.36506 324.542 5.36506C325.107 5.36506 325.605 5.50852 326.037 5.79545C326.469 6.08239 326.807 6.48011 327.051 6.98864C327.299 7.49716 327.422 8.08665 327.422 8.7571C327.422 9.42187 327.3 10.0085 327.056 10.517C326.811 11.0227 326.472 11.419 326.037 11.706C325.605 11.9929 325.107 12.1364 324.542 12.1364ZM324.542 11.4418C324.996 11.4418 325.381 11.3196 325.696 11.0753C326.012 10.831 326.25 10.5057 326.412 10.0994C326.577 9.69318 326.659 9.24574 326.659 8.7571C326.659 8.26847 326.577 7.8196 326.412 7.41051C326.25 7.00142 326.012 6.6733 325.696 6.42614C325.381 6.17898 324.996 6.0554 324.542 6.0554C324.09 6.0554 323.705 6.17898 323.387 6.42614C323.071 6.6733 322.831 7.00142 322.667 7.41051C322.505 7.8196 322.424 8.26847 322.424 8.7571C322.424 9.24574 322.505 9.69318 322.667 10.0994C322.831 10.5057 323.071 10.831 323.387 11.0753C323.702 11.3196 324.087 11.4418 324.542 11.4418ZM333.92 5.45455L331.529 12H330.719L328.329 5.45455H329.151L331.094 10.9986H331.154L333.097 5.45455H333.92ZM337.816 12.1364C337.205 12.1364 336.676 11.9943 336.23 11.7102C335.784 11.4233 335.439 11.027 335.195 10.5213C334.953 10.0128 334.833 9.42756 334.833 8.76562C334.833 8.10653 334.953 7.52131 335.195 7.00994C335.439 6.49574 335.776 6.09375 336.205 5.80398C336.637 5.51136 337.135 5.36506 337.701 5.36506C338.056 5.36506 338.398 5.4304 338.728 5.56108C339.057 5.68892 339.353 5.88636 339.614 6.15341C339.878 6.41761 340.087 6.75142 340.24 7.15483C340.394 7.5554 340.471 8.02983 340.471 8.57812V8.95312H335.357V8.28409H339.695C339.695 7.86364 339.61 7.4858 339.439 7.15057C339.272 6.8125 339.037 6.54545 338.736 6.34943C338.438 6.15341 338.093 6.0554 337.701 6.0554C337.286 6.0554 336.921 6.16619 336.605 6.38778C336.29 6.60937 336.043 6.90199 335.864 7.26562C335.688 7.62926 335.598 8.02699 335.596 8.45881V8.85938C335.596 9.37926 335.685 9.83381 335.864 10.223C336.046 10.6094 336.303 10.9091 336.635 11.1222C336.968 11.3352 337.361 11.4418 337.816 11.4418C338.125 11.4418 338.397 11.3935 338.63 11.2969C338.865 11.2003 339.063 11.071 339.222 10.9091C339.384 10.7443 339.506 10.5639 339.588 10.3679L340.309 10.6023C340.209 10.8778 340.046 11.1321 339.819 11.3651C339.594 11.598 339.313 11.7855 338.975 11.9276C338.64 12.0668 338.253 12.1364 337.816 12.1364ZM342.142 12V5.45455H342.879V6.46023H342.935C343.065 6.13068 343.293 5.86506 343.616 5.66335C343.943 5.45881 344.312 5.35653 344.724 5.35653C344.787 5.35653 344.857 5.35795 344.933 5.3608C345.01 5.36364 345.074 5.36648 345.125 5.36932V6.14062C345.091 6.13494 345.031 6.12642 344.946 6.11506C344.861 6.10369 344.768 6.09801 344.669 6.09801C344.328 6.09801 344.024 6.17045 343.757 6.31534C343.493 6.45739 343.284 6.65483 343.131 6.90767C342.977 7.16051 342.901 7.44886 342.901 7.77273V12H342.142Z" fill="white"/>
<path d="M6.06818 72.9545L3.67756 79.5H2.8679L0.477273 72.9545H1.29972L3.2429 78.4986H3.30256L5.24574 72.9545H6.06818ZM9.18111 79.6491C8.78622 79.6491 8.42543 79.5724 8.09872 79.419C7.77202 79.2628 7.51207 79.0384 7.31889 78.7457C7.12571 78.4503 7.02912 78.0923 7.02912 77.6719C7.02912 77.348 7.0902 77.0753 7.21236 76.8537C7.33452 76.6321 7.50781 76.4503 7.73224 76.3082C7.95668 76.1662 8.2223 76.054 8.52912 75.9716C8.83594 75.8892 9.17401 75.8253 9.54332 75.7798C9.9098 75.7344 10.2195 75.6946 10.4723 75.6605C10.728 75.6264 10.9226 75.5724 11.0561 75.4986C11.1896 75.4247 11.2564 75.3054 11.2564 75.1406V74.9872C11.2564 74.5412 11.1229 74.1903 10.8558 73.9347C10.5916 73.6761 10.2109 73.5469 9.71378 73.5469C9.24219 73.5469 8.85724 73.6506 8.55895 73.858C8.26349 74.0653 8.05611 74.3097 7.93679 74.5909L7.21662 74.331C7.36435 73.973 7.56889 73.6875 7.83026 73.4744C8.09162 73.2585 8.38423 73.1037 8.7081 73.0099C9.03196 72.9134 9.36009 72.8651 9.69247 72.8651C9.94247 72.8651 10.2024 72.8977 10.4723 72.9631C10.745 73.0284 10.9979 73.142 11.2308 73.304C11.4638 73.4631 11.6527 73.6861 11.7976 73.973C11.9425 74.2571 12.0149 74.6179 12.0149 75.0554V79.5H11.2564V78.4645H11.2095C11.1186 78.6577 10.9837 78.8452 10.8047 79.027C10.6257 79.2088 10.4013 79.358 10.1314 79.4744C9.86151 79.5909 9.54474 79.6491 9.18111 79.6491ZM9.28338 78.9545C9.68679 78.9545 10.0362 78.8651 10.3317 78.6861C10.6271 78.5071 10.8544 78.2699 11.0135 77.9744C11.1754 77.6761 11.2564 77.348 11.2564 76.9901V76.044C11.1996 76.098 11.1044 76.1463 10.9709 76.1889C10.8402 76.2315 10.6882 76.2699 10.5149 76.304C10.3445 76.3352 10.174 76.3622 10.0036 76.3849C9.8331 76.4077 9.67969 76.4276 9.54332 76.4446C9.17401 76.4901 8.85866 76.5611 8.5973 76.6577C8.33594 76.7543 8.13565 76.8878 7.99645 77.0582C7.85724 77.2259 7.78764 77.4418 7.78764 77.706C7.78764 78.1037 7.92969 78.4119 8.21378 78.6307C8.49787 78.8466 8.8544 78.9545 9.28338 78.9545ZM14.0327 79.5V72.9545H14.7699V73.9602H14.8253C14.956 73.6307 15.1832 73.3651 15.5071 73.1634C15.8338 72.9588 16.2031 72.8565 16.6151 72.8565C16.6776 72.8565 16.7472 72.858 16.8239 72.8608C16.9006 72.8636 16.9645 72.8665 17.0156 72.8693V73.6406C16.9815 73.6349 16.9219 73.6264 16.8366 73.6151C16.7514 73.6037 16.6591 73.598 16.5597 73.598C16.2188 73.598 15.9148 73.6705 15.6477 73.8153C15.3835 73.9574 15.1747 74.1548 15.0213 74.4077C14.8679 74.6605 14.7912 74.9489 14.7912 75.2727V79.5H14.0327ZM18.3185 79.5V72.9545H19.0813V79.5H18.3185ZM18.7063 71.8295C18.5501 71.8295 18.4165 71.777 18.3058 71.6719C18.195 71.5639 18.1396 71.4347 18.1396 71.2841C18.1396 71.1335 18.195 71.0057 18.3058 70.9006C18.4165 70.7926 18.5501 70.7386 18.7063 70.7386C18.8626 70.7386 18.9961 70.7926 19.1069 70.9006C19.2177 71.0057 19.2731 71.1335 19.2731 71.2841C19.2731 71.4347 19.2177 71.5639 19.1069 71.6719C18.9961 71.777 18.8626 71.8295 18.7063 71.8295ZM22.9155 79.6491C22.5206 79.6491 22.1598 79.5724 21.8331 79.419C21.5064 79.2628 21.2464 79.0384 21.0533 78.7457C20.8601 78.4503 20.7635 78.0923 20.7635 77.6719C20.7635 77.348 20.8246 77.0753 20.9467 76.8537C21.0689 76.6321 21.2422 76.4503 21.4666 76.3082C21.6911 76.1662 21.9567 76.054 22.2635 75.9716C22.5703 75.8892 22.9084 75.8253 23.2777 75.7798C23.6442 75.7344 23.9538 75.6946 24.2067 75.6605C24.4624 75.6264 24.657 75.5724 24.7905 75.4986C24.924 75.4247 24.9908 75.3054 24.9908 75.1406V74.9872C24.9908 74.5412 24.8572 74.1903 24.5902 73.9347C24.326 73.6761 23.9453 73.5469 23.4482 73.5469C22.9766 73.5469 22.5916 73.6506 22.2933 73.858C21.9979 74.0653 21.7905 74.3097 21.6712 74.5909L20.951 74.331C21.0987 73.973 21.3033 73.6875 21.5646 73.4744C21.826 73.2585 22.1186 73.1037 22.4425 73.0099C22.7663 72.9134 23.0945 72.8651 23.4268 72.8651C23.6768 72.8651 23.9368 72.8977 24.2067 72.9631C24.4794 73.0284 24.7322 73.142 24.9652 73.304C25.1982 73.4631 25.3871 73.6861 25.532 73.973C25.6768 74.2571 25.7493 74.6179 25.7493 75.0554V79.5H24.9908V78.4645H24.9439C24.853 78.6577 24.718 78.8452 24.5391 79.027C24.3601 79.2088 24.1357 79.358 23.8658 79.4744C23.5959 79.5909 23.2791 79.6491 22.9155 79.6491ZM23.0178 78.9545C23.4212 78.9545 23.7706 78.8651 24.0661 78.6861C24.3615 78.5071 24.5888 78.2699 24.7479 77.9744C24.9098 77.6761 24.9908 77.348 24.9908 76.9901V76.044C24.9339 76.098 24.8388 76.1463 24.7053 76.1889C24.5746 76.2315 24.4226 76.2699 24.2493 76.304C24.0788 76.3352 23.9084 76.3622 23.7379 76.3849C23.5675 76.4077 23.4141 76.4276 23.2777 76.4446C22.9084 76.4901 22.593 76.5611 22.3317 76.6577C22.0703 76.7543 21.87 76.8878 21.7308 77.0582C21.5916 77.2259 21.522 77.4418 21.522 77.706C21.522 78.1037 21.6641 78.4119 21.9482 78.6307C22.2322 78.8466 22.5888 78.9545 23.0178 78.9545ZM28.5256 75.4091V79.5H27.767V72.9545H28.5043V73.9815H28.5724C28.7259 73.6463 28.9645 73.3778 29.2884 73.1761C29.6151 72.9716 30.0185 72.8693 30.4986 72.8693C30.9389 72.8693 31.3253 72.9616 31.6577 73.1463C31.9929 73.3281 32.2528 73.5966 32.4375 73.9517C32.625 74.3068 32.7188 74.7429 32.7188 75.2599V79.5H31.9602V75.3068C31.9602 74.7699 31.8097 74.3452 31.5085 74.0327C31.2102 73.7202 30.8097 73.5639 30.3068 73.5639C29.9631 73.5639 29.6577 73.6378 29.3906 73.7855C29.1236 73.9332 28.9119 74.1463 28.7557 74.4247C28.6023 74.7003 28.5256 75.0284 28.5256 75.4091ZM37.2944 72.9545V73.6151H34.1708V72.9545H37.2944ZM35.1467 71.3864H35.9094V77.7912C35.9094 78.0639 35.9563 78.2784 36.0501 78.4347C36.1438 78.5881 36.266 78.6974 36.4165 78.7628C36.5671 78.8253 36.7276 78.8565 36.8981 78.8565C36.9975 78.8565 37.0827 78.8509 37.1538 78.8395C37.2248 78.8253 37.2873 78.8111 37.3413 78.7969L37.5032 79.483C37.4293 79.5114 37.3384 79.5369 37.2305 79.5597C37.1225 79.5852 36.989 79.598 36.8299 79.598C36.5515 79.598 36.283 79.5369 36.0245 79.4148C35.7688 79.2926 35.5586 79.1108 35.3938 78.8693C35.229 78.6278 35.1467 78.3281 35.1467 77.9702V71.3864Z" fill="white" fill-opacity="0.5"/>
<path d="M3.66477 85.7727V94.5H2.8679V86.608H2.81676L0.771307 87.9673V87.1406L2.83381 85.7727H3.66477Z" fill="white"/>
<path d="M6.06818 147.955L3.67756 154.5H2.8679L0.477273 147.955H1.29972L3.2429 153.499H3.30256L5.24574 147.955H6.06818ZM9.18111 154.649C8.78622 154.649 8.42543 154.572 8.09872 154.419C7.77202 154.263 7.51207 154.038 7.31889 153.746C7.12571 153.45 7.02912 153.092 7.02912 152.672C7.02912 152.348 7.0902 152.075 7.21236 151.854C7.33452 151.632 7.50781 151.45 7.73224 151.308C7.95668 151.166 8.2223 151.054 8.52912 150.972C8.83594 150.889 9.17401 150.825 9.54332 150.78C9.9098 150.734 10.2195 150.695 10.4723 150.661C10.728 150.626 10.9226 150.572 11.0561 150.499C11.1896 150.425 11.2564 150.305 11.2564 150.141V149.987C11.2564 149.541 11.1229 149.19 10.8558 148.935C10.5916 148.676 10.2109 148.547 9.71378 148.547C9.24219 148.547 8.85724 148.651 8.55895 148.858C8.26349 149.065 8.05611 149.31 7.93679 149.591L7.21662 149.331C7.36435 148.973 7.56889 148.687 7.83026 148.474C8.09162 148.259 8.38423 148.104 8.7081 148.01C9.03196 147.913 9.36009 147.865 9.69247 147.865C9.94247 147.865 10.2024 147.898 10.4723 147.963C10.745 148.028 10.9979 148.142 11.2308 148.304C11.4638 148.463 11.6527 148.686 11.7976 148.973C11.9425 149.257 12.0149 149.618 12.0149 150.055V154.5H11.2564V153.464H11.2095C11.1186 153.658 10.9837 153.845 10.8047 154.027C10.6257 154.209 10.4013 154.358 10.1314 154.474C9.86151 154.591 9.54474 154.649 9.18111 154.649ZM9.28338 153.955C9.68679 153.955 10.0362 153.865 10.3317 153.686C10.6271 153.507 10.8544 153.27 11.0135 152.974C11.1754 152.676 11.2564 152.348 11.2564 151.99V151.044C11.1996 151.098 11.1044 151.146 10.9709 151.189C10.8402 151.232 10.6882 151.27 10.5149 151.304C10.3445 151.335 10.174 151.362 10.0036 151.385C9.8331 151.408 9.67969 151.428 9.54332 151.445C9.17401 151.49 8.85866 151.561 8.5973 151.658C8.33594 151.754 8.13565 151.888 7.99645 152.058C7.85724 152.226 7.78764 152.442 7.78764 152.706C7.78764 153.104 7.92969 153.412 8.21378 153.631C8.49787 153.847 8.8544 153.955 9.28338 153.955ZM14.0327 154.5V147.955H14.7699V148.96H14.8253C14.956 148.631 15.1832 148.365 15.5071 148.163C15.8338 147.959 16.2031 147.857 16.6151 147.857C16.6776 147.857 16.7472 147.858 16.8239 147.861C16.9006 147.864 16.9645 147.866 17.0156 147.869V148.641C16.9815 148.635 16.9219 148.626 16.8366 148.615C16.7514 148.604 16.6591 148.598 16.5597 148.598C16.2188 148.598 15.9148 148.67 15.6477 148.815C15.3835 148.957 15.1747 149.155 15.0213 149.408C14.8679 149.661 14.7912 149.949 14.7912 150.273V154.5H14.0327ZM18.3185 154.5V147.955H19.0813V154.5H18.3185ZM18.7063 146.83C18.5501 146.83 18.4165 146.777 18.3058 146.672C18.195 146.564 18.1396 146.435 18.1396 146.284C18.1396 146.134 18.195 146.006 18.3058 145.901C18.4165 145.793 18.5501 145.739 18.7063 145.739C18.8626 145.739 18.9961 145.793 19.1069 145.901C19.2177 146.006 19.2731 146.134 19.2731 146.284C19.2731 146.435 19.2177 146.564 19.1069 146.672C18.9961 146.777 18.8626 146.83 18.7063 146.83ZM22.9155 154.649C22.5206 154.649 22.1598 154.572 21.8331 154.419C21.5064 154.263 21.2464 154.038 21.0533 153.746C20.8601 153.45 20.7635 153.092 20.7635 152.672C20.7635 152.348 20.8246 152.075 20.9467 151.854C21.0689 151.632 21.2422 151.45 21.4666 151.308C21.6911 151.166 21.9567 151.054 22.2635 150.972C22.5703 150.889 22.9084 150.825 23.2777 150.78C23.6442 150.734 23.9538 150.695 24.2067 150.661C24.4624 150.626 24.657 150.572 24.7905 150.499C24.924 150.425 24.9908 150.305 24.9908 150.141V149.987C24.9908 149.541 24.8572 149.19 24.5902 148.935C24.326 148.676 23.9453 148.547 23.4482 148.547C22.9766 148.547 22.5916 148.651 22.2933 148.858C21.9979 149.065 21.7905 149.31 21.6712 149.591L20.951 149.331C21.0987 148.973 21.3033 148.687 21.5646 148.474C21.826 148.259 22.1186 148.104 22.4425 148.01C22.7663 147.913 23.0945 147.865 23.4268 147.865C23.6768 147.865 23.9368 147.898 24.2067 147.963C24.4794 148.028 24.7322 148.142 24.9652 148.304C25.1982 148.463 25.3871 148.686 25.532 148.973C25.6768 149.257 25.7493 149.618 25.7493 150.055V154.5H24.9908V153.464H24.9439C24.853 153.658 24.718 153.845 24.5391 154.027C24.3601 154.209 24.1357 154.358 23.8658 154.474C23.5959 154.591 23.2791 154.649 22.9155 154.649ZM23.0178 153.955C23.4212 153.955 23.7706 153.865 24.0661 153.686C24.3615 153.507 24.5888 153.27 24.7479 152.974C24.9098 152.676 24.9908 152.348 24.9908 151.99V151.044C24.9339 151.098 24.8388 151.146 24.7053 151.189C24.5746 151.232 24.4226 151.27 24.2493 151.304C24.0788 151.335 23.9084 151.362 23.7379 151.385C23.5675 151.408 23.4141 151.428 23.2777 151.445C22.9084 151.49 22.593 151.561 22.3317 151.658C22.0703 151.754 21.87 151.888 21.7308 152.058C21.5916 152.226 21.522 152.442 21.522 152.706C21.522 153.104 21.6641 153.412 21.9482 153.631C22.2322 153.847 22.5888 153.955 23.0178 153.955ZM28.5256 150.409V154.5H27.767V147.955H28.5043V148.982H28.5724C28.7259 148.646 28.9645 148.378 29.2884 148.176C29.6151 147.972 30.0185 147.869 30.4986 147.869C30.9389 147.869 31.3253 147.962 31.6577 148.146C31.9929 148.328 32.2528 148.597 32.4375 148.952C32.625 149.307 32.7188 149.743 32.7188 150.26V154.5H31.9602V150.307C31.9602 149.77 31.8097 149.345 31.5085 149.033C31.2102 148.72 30.8097 148.564 30.3068 148.564C29.9631 148.564 29.6577 148.638 29.3906 148.786C29.1236 148.933 28.9119 149.146 28.7557 149.425C28.6023 149.7 28.5256 150.028 28.5256 150.409ZM37.2944 147.955V148.615H34.1708V147.955H37.2944ZM35.1467 146.386H35.9094V152.791C35.9094 153.064 35.9563 153.278 36.0501 153.435C36.1438 153.588 36.266 153.697 36.4165 153.763C36.5671 153.825 36.7276 153.857 36.8981 153.857C36.9975 153.857 37.0827 153.851 37.1538 153.839C37.2248 153.825 37.2873 153.811 37.3413 153.797L37.5032 154.483C37.4293 154.511 37.3384 154.537 37.2305 154.56C37.1225 154.585 36.989 154.598 36.8299 154.598C36.5515 154.598 36.283 154.537 36.0245 154.415C35.7688 154.293 35.5586 154.111 35.3938 153.869C35.229 153.628 35.1467 153.328 35.1467 152.97V146.386Z" fill="white" fill-opacity="0.5"/>
<path d="M0.971591 169.5V168.916L3.82244 165.712C4.1946 165.291 4.49432 164.932 4.72159 164.634C4.94886 164.335 5.11364 164.06 5.21591 163.807C5.32102 163.554 5.37358 163.291 5.37358 163.018C5.37358 162.686 5.29545 162.396 5.1392 162.149C4.9858 161.899 4.77415 161.705 4.50426 161.565C4.23438 161.426 3.9304 161.357 3.59233 161.357C3.23438 161.357 2.92045 161.433 2.65057 161.587C2.38352 161.74 2.17614 161.95 2.02841 162.217C1.88068 162.484 1.80682 162.791 1.80682 163.138H1.04403C1.04403 162.655 1.15483 162.227 1.37642 161.855C1.60085 161.48 1.90625 161.186 2.29261 160.973C2.68182 160.76 3.12216 160.653 3.61364 160.653C4.09943 160.653 4.53125 160.759 4.90909 160.969C5.28693 161.176 5.58381 161.459 5.79972 161.817C6.01563 162.175 6.12358 162.575 6.12358 163.018C6.12358 163.339 6.06676 163.651 5.95312 163.952C5.84233 164.253 5.65057 164.588 5.37784 164.957C5.10511 165.327 4.72727 165.778 4.24432 166.312L2.07955 168.729V168.784H6.39631V169.5H0.971591Z" fill="white"/>
</svg>
